<?xml version="1.0" encoding="UTF-8" standalone="no"?>
<!-- Created with Inkscape (http://www.inkscape.org/) -->

<svg
   xmlns:dc="http://purl.org/dc/elements/1.1/"
   xmlns:cc="http://creativecommons.org/ns#"
   xmlns:rdf="http://www.w3.org/1999/02/22-rdf-syntax-ns#"
   xmlns:svg="http://www.w3.org/2000/svg"
   xmlns="http://www.w3.org/2000/svg"
   xmlns:sodipodi="http://sodipodi.sourceforge.net/DTD/sodipodi-0.dtd"
   xmlns:inkscape="http://www.inkscape.org/namespaces/inkscape"
   width="28.83882mm"
   height="29.372313mm"
   viewBox="0 0 28.83882 29.372313"
   version="1.1"
   id="svg3705"
   inkscape:version="0.92.5 (2060ec1f9f, 2020-04-08)"
   sodipodi:docname="croco_thumb_up_dark.svg">
  <defs
     id="defs3699" />
  <sodipodi:namedview
     id="base"
     pagecolor="#ffffff"
     bordercolor="#666666"
     borderopacity="1.0"
     inkscape:pageopacity="0.0"
     inkscape:pageshadow="2"
     inkscape:zoom="2.8284271"
     inkscape:cx="108.73067"
     inkscape:cy="23.104329"
     inkscape:document-units="mm"
     inkscape:current-layer="layer1"
     showgrid="false"
     fit-margin-top="0"
     fit-margin-left="0"
     fit-margin-right="0"
     fit-margin-bottom="0"
     inkscape:window-width="1848"
     inkscape:window-height="1016"
     inkscape:window-x="72"
     inkscape:window-y="27"
     inkscape:window-maximized="1"
     showguides="false"
     inkscape:snap-global="false" />
  <metadata
     id="metadata3702">
    <rdf:RDF>
      <cc:Work
         rdf:about="">
        <dc:format>image/svg+xml</dc:format>
        <dc:type
           rdf:resource="http://purl.org/dc/dcmitype/StillImage" />
        <dc:title></dc:title>
      </cc:Work>
    </rdf:RDF>
  </metadata>
  <g
     inkscape:label="Layer 1"
     inkscape:groupmode="layer"
     id="layer1"
     transform="translate(-113.76995,-101.23616)">
    <path
       sodipodi:nodetypes="cscscscscscscscscscscscscccccccc"
       inkscape:connector-curvature="0"
       id="path1789"
       d="m 130.70066,107.20653 c 0,0 1.06271,0.86772 1.05013,1.17027 -0.0224,0.54066 -0.91389,1.15873 -0.91389,1.15873 0,0 0.88082,0.86653 0.8599,1.12222 -0.031,0.38435 -0.99028,0.84216 -0.99028,0.84216 0,0 0.79496,0.77386 0.78152,1.07114 -0.0138,0.29901 -1.08191,1.00114 -1.08191,1.00114 0,0 1.00975,0.68697 1.03472,0.97607 0.0172,0.20281 -0.98658,0.90959 -0.98658,0.90959 0,0 0.97099,0.72977 0.98365,0.93068 0.0276,0.4436 -1.03282,0.92148 -1.03282,0.92148 0,0 1.10628,0.59119 1.1273,0.80253 0.0301,0.30486 -0.66855,1.2564 -0.66855,1.2564 0,0 1.07744,-0.0181 1.21032,0.14984 0.21599,0.27325 -0.19592,1.71755 -0.19592,1.71755 0,0 0.92871,-0.894 1.26802,-0.82993 0.2661,0.0499 0.65536,1.31307 0.65536,1.31307 0,0 0.40218,-1.35698 0.67018,-1.47444 0.16509,-0.0723 1.22194,0.78385 1.22194,0.78385 0,0 0.062,-1.31099 0.25353,-1.44094 0.18335,-0.12418 1.39487,0.13838 1.39487,0.13838 0,0 -0.056,-0.93981 0.0922,-1.06055 0.18369,-0.1495 1.02594,0.0577 1.02594,0.0577 0,0 -0.0491,-1.07494 0.16138,-1.22185 0.1824,-0.12755 0.97978,0.24207 0.97978,0.24207 l -2.14402,2.96249 -3.94227,1.76365 -2.78956,-0.70317 -1.14117,-1.7521 0.242,-10.93926 0.50724,-1.01439 z"
       style="fill:#34a13c;fill-opacity:1;stroke:none;stroke-width:0.12910351;stroke-linecap:butt;stroke-linejoin:round;stroke-miterlimit:4;stroke-dasharray:none;stroke-opacity:1" />
    <ellipse
       ry="2.9755685"
       rx="14.41941"
       cy="127.6329"
       cx="128.18936"
       id="ellipse1791"
       style="opacity:1;fill:#2b373b;fill-opacity:1;stroke:none;stroke-width:0.08033577;stroke-linecap:round;stroke-linejoin:round;stroke-miterlimit:4;stroke-dasharray:none;stroke-dashoffset:0;stroke-opacity:1" />
    <path
       style="fill:#699f27;fill-opacity:1;stroke:none;stroke-width:0.07431573;stroke-linecap:butt;stroke-linejoin:miter;stroke-miterlimit:4;stroke-dasharray:none;stroke-opacity:1"
       d="m 126.7186,124.51342 c 0.0517,0.96513 0.21022,2.75513 0.15493,2.89558 -0.0853,0.15062 -0.99975,0.73589 -1.49959,1.10378 -0.12651,0.0749 -0.24871,0.0172 -0.21288,-0.21279 l 0.062,-0.31658 -0.85671,0.27593 c -0.35955,0.0758 -0.44101,-0.299 -0.27575,-0.4367 l 0.53006,-0.43664 -0.45738,-0.009 c -0.45014,-0.009 -0.28643,-0.33044 -0.0775,-0.41114 l 1.07932,-0.36746 -0.0697,-2.62043 1.57219,0.0103 z"
       id="path1793"
       inkscape:connector-curvature="0"
       sodipodi:nodetypes="cccccccccccccc" />
    <path
       sodipodi:nodetypes="ccscccccccccccc"
       inkscape:connector-curvature="0"
       id="path1795"
       d="m 123.93643,113.15943 c 0,0 -3.97424,-0.7619 -4.07307,-0.80887 -0.14294,-0.0562 -0.4607,-0.39602 -0.54929,-0.58124 -0.15981,-0.33415 -0.0248,-0.87602 -0.20719,-0.98974 -0.31804,-0.19665 -0.54528,-0.0456 -0.59722,0.41354 -0.046,0.37412 0.0301,0.44194 -0.0349,0.80099 l -0.5152,-0.10694 c -0.78074,-0.21949 -0.89392,0.46573 -0.50654,0.70115 -0.35774,0.004 -0.50552,0.43206 -0.0777,0.62323 -0.33999,0.0244 -0.40261,0.5092 -0.0154,0.62498 0.51633,0.21686 1.49403,0.25402 2.09352,0.36579 l 1.30798,0.53801 0.61701,0.28036 4.09252,-0.23939 z"
       style="fill:#699f27;fill-opacity:1;stroke:none;stroke-width:0.1272613;stroke-linecap:butt;stroke-linejoin:miter;stroke-miterlimit:4;stroke-dasharray:none;stroke-opacity:1" />
    <path
       id="path1797"
       d="m 121.14356,108.47938 0.34404,0.10368 -0.3133,1.45395 h 4.6e-4 l -0.22744,1.05694 -0.025,0.11876 c -0.0946,0.65113 -0.15157,0.87229 -0.32311,2.05832 v 0 c -0.0241,0.16896 0,0.0672 -0.0319,0.29323 -0.0138,0.17732 -0.0224,0.44102 -0.0276,0.65554 -0.0112,0.40105 -0.0275,0.78738 -0.025,1.22564 h -4.6e-4 c 0,0.30254 -0.0293,0.52731 -0.0172,0.84604 h -4.6e-4 c 0.009,0.2426 -1.7e-4,0.46677 0.0207,0.71599 0.0181,0.26335 0.009,0.50526 0.0387,0.77396 h 8.7e-4 c 0.0568,0.49708 0.13314,0.99984 0.24251,1.49708 h -4.6e-4 c 0.0611,0.2762 0.0985,0.55659 0.17939,0.82683 h 4.5e-4 c 0.20212,0.67621 0.46117,1.3314 0.81443,1.92476 0.18412,0.30942 0.37772,0.61291 0.61058,0.88608 0.14339,0.16827 0.29134,0.33259 0.4548,0.48424 0.29297,0.11583 0.59999,0.19722 0.90924,0.22073 0.32088,0.0241 0.64262,-0.009 0.94964,-0.11084 0.15355,-0.0517 0.30322,-0.12022 0.4473,-0.20875 0.14407,-0.0884 0.28281,-0.1967 0.41337,-0.3257 0.23674,-0.23382 0.44549,-0.53997 0.61911,-0.92483 0.13968,-0.30977 0.26232,-0.6558 0.34757,-1.07606 0.0172,-0.0844 0.0388,-0.15941 0.0534,-0.24837 l 0.0215,-0.13615 c 0.0164,-0.18714 0.0241,-0.34654 0.0362,-0.52068 h 4.5e-4 c 0.0284,-0.41087 0.0568,-0.81933 0.0863,-1.22831 0.0198,-0.28213 0.0422,-0.5739 0.0594,-0.84776 0.025,-0.40708 0.0697,-0.86472 0.0885,-1.25992 h -4.6e-4 c 0.0207,-0.43438 0.0258,-0.86162 0.0353,-1.2879 0.009,-0.42069 0.0345,-0.85009 0.0345,-1.27103 0,-0.3679 -0.009,-0.74561 -0.0181,-1.11963 h 4.6e-4 c -0.0198,-0.62867 -0.0439,-1.2594 -0.0947,-1.92571 -0.0319,-0.41871 -0.0775,-0.86334 -0.12376,-1.30659 -0.0284,-0.27042 -0.0405,-0.62514 -0.0861,-1.03291 -0.46117,0.0586 -0.90529,0.10334 -1.34449,0.129 -0.43912,0.0258 -0.87402,0.0319 -1.31728,0.0129 -0.44325,-0.0189 -0.8946,-0.062 -1.368,-0.13701 -0.46263,-0.0732 -0.94817,-0.17818 -1.46419,-0.31597 z"
       style="fill:#d3d95d;fill-opacity:1;stroke:none;stroke-width:0.06455177;stroke-linecap:butt;stroke-linejoin:round;stroke-miterlimit:4;stroke-dasharray:none;stroke-opacity:1"
       inkscape:connector-curvature="0"
       sodipodi:nodetypes="ccccccccccccccccccccccccccsccccccccccccscccccccccc" />
    <path
       id="path1799"
       d="m 125.57782,122.97586 c 0.23674,-0.23382 0.4455,-0.53997 0.61911,-0.92483 l -4.40403,-0.0207 c 0.18412,0.30942 0.37771,0.61291 0.61058,0.88608 z"
       style="fill:#efecc3;fill-opacity:1;stroke:none;stroke-width:0.06455177;stroke-linecap:butt;stroke-linejoin:round;stroke-miterlimit:4;stroke-dasharray:none;stroke-opacity:1"
       inkscape:connector-curvature="0" />
    <path
       id="path1801"
       d="m 126.54451,120.97497 h 4.6e-4 c 0.0172,-0.0844 0.0387,-0.15941 0.0534,-0.24837 l 0.0215,-0.13614 c 0.0164,-0.18714 0.0241,-0.34654 0.0362,-0.52068 l -5.85712,-0.79126 c 0.0611,0.27619 0.0986,0.55659 0.17939,0.82683 z"
       style="fill:#efecc3;fill-opacity:1;stroke:none;stroke-width:0.06455177;stroke-linecap:butt;stroke-linejoin:round;stroke-miterlimit:4;stroke-dasharray:none;stroke-opacity:1"
       inkscape:connector-curvature="0" />
    <path
       id="path1803"
       d="m 126.7425,118.84146 h 4.5e-4 c 0.0198,-0.28213 0.0422,-0.5739 0.0594,-0.84776 l -6.28479,-0.98623 c 0.0181,0.26335 0.009,0.50526 0.0387,0.77396 z"
       style="fill:#efecc3;fill-opacity:1;stroke:none;stroke-width:0.06455177;stroke-linecap:butt;stroke-linejoin:round;stroke-miterlimit:4;stroke-dasharray:none;stroke-opacity:1"
       inkscape:connector-curvature="0" />
    <path
       id="path1805"
       d="m 126.89028,116.73378 c 0.0207,-0.43438 0.0258,-0.86162 0.0353,-1.2879 l -6.41156,-4.3e-4 c 0,0.30254 -0.0293,0.52731 -0.0172,0.84604 z"
       style="fill:#efecc3;fill-opacity:1;stroke:none;stroke-width:0.06455177;stroke-linecap:butt;stroke-linejoin:round;stroke-miterlimit:4;stroke-dasharray:none;stroke-opacity:1"
       inkscape:connector-curvature="0" />
    <path
       id="path1807"
       d="m 126.95969,114.17484 h 4.6e-4 c 0,-0.3679 -0.009,-0.74561 -0.0181,-1.11963 l -6.34301,0.21582 c -0.0241,0.16896 0,0.0723 -0.0327,0.29866 -0.0112,0.1836 -0.0215,0.43559 -0.0267,0.65011 z"
       style="fill:#efecc3;fill-opacity:1;stroke:none;stroke-width:0.06455177;stroke-linecap:butt;stroke-linejoin:round;stroke-miterlimit:4;stroke-dasharray:none;stroke-opacity:1"
       inkscape:connector-curvature="0"
       sodipodi:nodetypes="ccccccc" />
    <path
       id="path1809"
       d="m 126.84713,111.1295 c -0.0319,-0.41871 -0.0775,-0.86333 -0.12375,-1.30659 l -5.54865,0.21409 -0.22744,1.05694 z"
       style="fill:#efecc3;fill-opacity:1;stroke:none;stroke-width:0.06455177;stroke-linecap:butt;stroke-linejoin:round;stroke-miterlimit:4;stroke-dasharray:none;stroke-opacity:1"
       inkscape:connector-curvature="0" />
    <path
       sodipodi:nodetypes="cccccccccscccccsccccccccccccccccccccccccccccccccccccccccccccccccccccccccccccccccccccsccccccccccccccc"
       style="fill:#93bd31;fill-opacity:1;stroke:none;stroke-width:0.06455177;stroke-linecap:butt;stroke-linejoin:round;stroke-miterlimit:4;stroke-dasharray:none;stroke-opacity:1"
       d="m 125.26492,101.24925 c -0.70876,-0.11437 -1.49193,0.54349 -1.61637,1.09216 -0.25207,1.0243 -0.15148,1.00423 -0.21892,1.87981 -0.67758,0 -1.26439,0.0456 -2.12722,0.0327 -0.69429,-0.47796 -1.67071,-2.25899 -2.62482,-0.72538 -0.72435,-1.40977 -1.41244,-0.28876 -1.46729,0.1793 -0.1489,1.01043 -0.33354,1.99822 0.82777,2.35337 0,-1.4e-4 0.009,-1.4e-4 0.009,0 0,1.5e-4 0.009,4.3e-4 0.009,8.7e-4 0.45893,0.0542 0.9375,0.14278 1.42682,0.25103 0.48934,0.10825 0.98917,0.23605 1.49038,0.36713 1.00251,0.26223 2.01054,0.53833 2.94966,0.70359 0.4697,0.0827 0.92164,0.13736 1.34631,0.1495 0.42455,0.0121 0.82139,-0.0181 1.18155,-0.10541 0.17998,-0.0439 0.35128,-0.10145 0.51222,-0.17491 0.16088,-0.0732 0.31158,-0.16302 0.4517,-0.27058 0.14011,-0.10756 0.26938,-0.23321 0.38719,-0.37918 0.11772,-0.14597 0.22399,-0.31236 0.3177,-0.50113 -1.8e-4,-0.003 -1.8e-4,-0.006 0,-0.009 0,-0.003 0.009,-0.006 0.009,-0.009 0,-0.003 0.009,-0.006 0.009,-0.009 0,-0.003 0.009,-0.006 0.009,-0.009 0,-0.003 0.009,-0.006 0.009,-0.009 0,-0.003 0.009,-0.006 0.009,-0.009 0,-0.003 0.009,-0.006 0.009,-0.009 0,-1.5e-4 0.009,-1.5e-4 0.009,0 0,-1.5e-4 0.009,-1.5e-4 0.009,0 0,-1.5e-4 0.009,-1.5e-4 0.009,0 h 4.5e-4 c 0,-1.5e-4 0.009,-1.5e-4 0.009,0 0,-1.5e-4 0.009,-1.5e-4 0.009,0 0,-1.5e-4 0.009,-1.5e-4 0.009,0 0,-1.5e-4 0.009,-1.5e-4 0.009,0 0,-1.5e-4 0.009,-1.5e-4 0.009,0 0,-1.5e-4 0.009,-1.5e-4 0.009,0 0,-1.5e-4 0.009,-1.5e-4 0.009,0 0,0.003 0.009,0.005 0.009,0.009 0,0.003 0.009,0.005 0.009,0.009 0,0.003 0.009,0.005 0.009,0.009 0,0.003 0.009,0.005 0.009,0.009 0,0.003 0.009,0.005 0.009,0.009 1.7e-4,0.003 1.7e-4,0.006 0,0.009 1.7e-4,0.003 1.7e-4,0.006 0,0.009 1.7e-4,0.003 1.7e-4,0.006 0,0.009 1.7e-4,0.003 1.7e-4,0.006 0,0.009 1.7e-4,0.003 1.7e-4,0.006 0,0.009 0,0.003 -1.7e-4,0.006 -4.6e-4,0.009 -1.7e-4,0.003 -4.6e-4,0.006 -8.6e-4,0.009 1.7e-4,0.003 1.7e-4,0.006 0,0.009 1.7e-4,0.003 1.7e-4,0.006 0,0.009 1.7e-4,0.003 1.7e-4,0.006 0,0.009 -0.099,0.19919 -0.21194,0.37565 -0.33819,0.53135 -0.12634,0.1557 -0.26568,0.29065 -0.41613,0.40631 -0.15053,0.11574 -0.31252,0.21237 -0.48424,0.29151 -0.17164,0.0792 -0.35275,0.14081 -0.54247,0.18688 -0.37935,0.0922 -0.79134,0.12393 -1.22736,0.1117 -0.43602,-0.0121 -0.8959,-0.0689 -1.37119,-0.15218 -0.95067,-0.16724 -1.96412,-0.44411 -2.96525,-0.70583 -0.50052,-0.13081 -0.9982,-0.25818 -1.48331,-0.36574 -0.47813,-0.1061 -0.94343,-0.19196 -1.3885,-0.24527 0.019,0.75182 0.26223,1.2774 0.75527,1.55453 l 2.29722,0.69464 c 0.51602,0.13779 1.00156,0.24285 1.46419,0.31597 0.4734,0.0749 0.92475,0.11841 1.368,0.1371 0.44326,0.0189 0.87816,0.0121 1.31728,-0.0138 0.43921,-0.0258 0.88289,-0.0706 1.34406,-0.12909 0.0456,0.40786 0.0577,0.76258 0.0863,1.033 0.0465,0.44316 0.0919,0.88788 0.12375,1.30659 0.0508,0.6663 0.0749,1.29704 0.0948,1.92562 0.0121,0.3741 0.0164,0.75173 0.0181,1.11972 h -4.5e-4 c 0,0.42086 -0.025,0.85034 -0.0344,1.27103 -0.009,0.42629 -0.0146,0.85353 -0.0353,1.28791 h 4.6e-4 c -0.019,0.3952 -0.0629,0.85274 -0.0881,1.25983 -0.0172,0.27395 -0.0396,0.56563 -0.0594,0.84785 h -4.6e-4 c -0.0293,0.40889 -0.0577,0.81744 -0.0863,1.2283 -0.0121,0.17405 -0.0198,0.33354 -0.0362,0.52068 l -0.0215,0.13615 c -0.0146,0.0889 -0.0362,0.16414 -0.0534,0.24828 -0.0853,0.42035 -0.20789,0.76629 -0.34757,1.07614 l -4.6e-4,4.6e-4 c -0.17361,0.38452 -0.38245,0.69067 -0.61911,0.92431 -0.13064,0.1291 -0.26929,0.23735 -0.41337,0.32579 -0.14408,0.0884 -0.29375,0.15734 -0.4473,0.20877 -0.30701,0.10274 -0.62832,0.13512 -0.9492,0.11073 -0.30926,-0.0232 -0.6167,-0.1048 -0.90968,-0.22072 0.59371,0.55056 1.31926,0.98831 2.2136,1.25277 1.391,0.43249 2.77605,0.84457 4.20597,0.84156 4.95425,-0.0103 6.64588,-1.10474 8.2291,-2.20826 2.6255,-1.93553 4.1741,-6.2829 3.55852,-6.53618 v 0 c -1.34974,-0.5534 -8.80524,10.71992 -10.5637,0.97823 -0.66983,-4.69512 1.86189,-12.94035 -0.96582,-15.70655 -0.49364,-0.3853 -1.39737,-0.62014 -1.86904,0.51353 -0.24536,0.92095 -0.35464,0.69024 -1.02094,0.66888 -0.13116,-0.0121 -0.14942,-0.30529 -0.26077,-0.81881 -0.17336,-0.52197 -0.60482,-1.05419 -1.08011,-1.14289 z"
       id="path1811"
       inkscape:connector-curvature="0" />
    <ellipse
       transform="scale(-1,1)"
       ry="1.3530478"
       rx="0.99440873"
       cy="103.51214"
       cx="-128.72174"
       id="ellipse1813"
       style="opacity:1;fill:#ffffff;fill-opacity:1;stroke:none;stroke-width:1.00065756;stroke-linecap:round;stroke-linejoin:round;stroke-miterlimit:4;stroke-dasharray:none;stroke-dashoffset:0;stroke-opacity:1" />
    <ellipse
       transform="matrix(-0.99457806,0.10399266,0.10399266,0.99457806,0,0)"
       style="opacity:1;fill:#000000;fill-opacity:1;stroke:none;stroke-width:0.50187755;stroke-linecap:round;stroke-linejoin:round;stroke-miterlimit:4;stroke-dasharray:none;stroke-dashoffset:0;stroke-opacity:1"
       id="ellipse1815"
       cx="-117.15553"
       cy="116.29987"
       rx="0.49874344"
       ry="0.67861807" />
    <ellipse
       transform="scale(-1,1)"
       style="opacity:1;fill:#ffffff;fill-opacity:1;stroke:none;stroke-width:1.00065756;stroke-linecap:round;stroke-linejoin:round;stroke-miterlimit:4;stroke-dasharray:none;stroke-dashoffset:0;stroke-opacity:1"
       id="ellipse1817"
       cx="-125.01553"
       cy="103.1115"
       rx="0.99440873"
       ry="1.3530478" />
    <ellipse
       transform="matrix(-0.99790194,0.06474351,0.06474351,0.99790194,0,0)"
       ry="0.67861807"
       rx="0.49874344"
       cy="111.05191"
       cx="-118.1316"
       id="ellipse1819"
       style="opacity:1;fill:#000000;fill-opacity:1;stroke:none;stroke-width:0.50187755;stroke-linecap:round;stroke-linejoin:round;stroke-miterlimit:4;stroke-dasharray:none;stroke-dashoffset:0;stroke-opacity:1" />
    <ellipse
       ry="0.30676043"
       rx="0.21285416"
       cy="103.62368"
       cx="119.46826"
       id="ellipse1823"
       style="opacity:1;fill:#000000;fill-opacity:1;stroke:none;stroke-width:0.06890205;stroke-linecap:round;stroke-linejoin:round;stroke-miterlimit:4;stroke-dasharray:none;stroke-dashoffset:0;stroke-opacity:1" />
    <path
       sodipodi:nodetypes="cssccsccsccssccsscccccccccccccccc"
       inkscape:connector-curvature="0"
       id="path1825"
       d="m 127.98481,106.56252 c 0.0517,0.0698 0.10722,0.13211 0.13762,0.1756 0.49906,0.71461 -0.22735,0.64978 -0.44782,0.36213 -0.0319,-0.0422 -0.0886,-0.12418 -0.10446,-0.1644 l -0.0698,0.0189 c 0.35171,1.77104 -0.608,1.27035 -0.76516,0.79342 -0.0327,-0.0978 -0.13151,-0.46866 -0.144,-0.54419 l -0.37737,0.21849 c 0.1235,1.3202 -0.55443,1.01138 -0.69136,0.36006 -0.0172,-0.0792 -0.0198,-0.21581 -0.0172,-0.30167 l -0.8803,-0.037 c 0.009,0.17405 0.0327,0.43835 0.009,0.55909 -0.1086,0.54074 -0.58225,0.4076 -0.62049,-0.0293 -0.0103,-0.11178 -0.0499,-0.44291 -0.037,-0.57571 l -0.88238,-0.20255 c -0.0241,0.17611 -0.0732,0.40545 -0.10678,0.52481 -0.11342,0.39951 -0.52188,0.3642 -0.56365,-0.0517 -0.0146,-0.14873 0.0301,-0.40821 0.068,-0.59405 l -0.87936,-0.21461 -0.0276,0.3195 c -0.0586,0.64607 -0.73304,0.57063 -0.66432,0.009 l 0.0319,-0.51601 -0.77585,-0.16277 -0.15389,0.43086 c -0.10119,0.2909 -0.58475,0.53152 -0.55108,-0.17405 l 0.0387,-0.46323 -0.29633,-0.0612 -0.11859,0.42285 c -0.14778,0.51197 -0.67043,0.60851 -0.68886,-0.15596 l 0.0422,-0.48856 0.16491,-0.4777 8.79895,-0.18869 z"
       style="fill:#ffffff;stroke:none;stroke-width:0.03245352;stroke-linecap:butt;stroke-linejoin:miter;stroke-miterlimit:4;stroke-dasharray:none;stroke-opacity:1" />
    <path
       sodipodi:nodetypes="ccccc"
       inkscape:connector-curvature="0"
       id="path1827"
       d="m 118.08509,106.01998 c 4.50919,1.17776 8.8929,2.68071 10.08436,0.24449 l -0.3884,-1.45291 -9.03422,0.48906 z"
       style="fill:#93bd31;fill-opacity:1;stroke:none;stroke-width:0.22785641px;stroke-linecap:butt;stroke-linejoin:miter;stroke-opacity:1" />
    <path
       style="fill:#000000;fill-opacity:1;stroke:none;stroke-width:0.06455177;stroke-linecap:butt;stroke-linejoin:round;stroke-miterlimit:4;stroke-dasharray:none;stroke-opacity:1"
       d="m 118.05271,106.23673 c 0.44506,0.0534 0.91036,0.13917 1.3885,0.24528 0.48511,0.10756 0.98279,0.23493 1.48331,0.36575 1.00113,0.26171 2.01458,0.53859 2.96525,0.70583 0.47529,0.0835 0.93516,0.14003 1.37118,0.15217 0.43602,0.0121 0.84802,-0.0198 1.22737,-0.11169 0.18972,-0.0457 0.37083,-0.10774 0.54247,-0.18688 0.17172,-0.0792 0.33371,-0.17577 0.48424,-0.29152 0.15045,-0.11565 0.28979,-0.2506 0.41613,-0.4063 0.12625,-0.15571 0.23924,-0.33217 0.33819,-0.53136 a 0.08612758,0.08612758 0 0 0 0,-0.009 0.08612758,0.08612758 0 0 0 0,-0.009 0.08612758,0.08612758 0 0 0 0,-0.009 0.08612758,0.08612758 0 0 0 0,-0.009 0.08612758,0.08612758 0 0 0 4.5e-4,-0.009 0.08612758,0.08612758 0 0 0 0,-0.009 0.08612758,0.08612758 0 0 0 0,-0.009 0.08612758,0.08612758 0 0 0 0,-0.009 0.08612758,0.08612758 0 0 0 0,-0.009 0.08612758,0.08612758 0 0 0 0,-0.009 0.08612758,0.08612758 0 0 0 -0.009,-0.009 0.08612758,0.08612758 0 0 0 -0.009,-0.009 0.08612758,0.08612758 0 0 0 -0.009,-0.009 0.08612758,0.08612758 0 0 0 -0.009,-0.009 0.08612758,0.08612758 0 0 0 -0.009,-0.009 0.08612758,0.08612758 0 0 0 -0.009,0 0.08612758,0.08612758 0 0 0 -0.009,0 0.08612758,0.08612758 0 0 0 -0.009,0 0.08612758,0.08612758 0 0 0 -0.009,0 0.08612758,0.08612758 0 0 0 -0.009,-8.6e-4 0.08612758,0.08612758 0 0 0 -0.009,0 0.08612758,0.08612758 0 0 0 -0.009,8.6e-4 h -4.5e-4 a 0.08612758,0.08612758 0 0 0 -0.009,0 0.08612758,0.08612758 0 0 0 -0.009,0 0.08612758,0.08612758 0 0 0 -0.009,0 0.08612758,0.08612758 0 0 0 -0.009,0.009 0.08612758,0.08612758 0 0 0 -0.009,0.009 0.08612758,0.08612758 0 0 0 -0.009,0.009 0.08612758,0.08612758 0 0 0 -0.009,0.009 0.08612758,0.08612758 0 0 0 -0.009,0.009 0.08612758,0.08612758 0 0 0 -0.009,0.009 0.08612758,0.08612758 0 0 0 0,0.009 c -0.0937,0.18878 -0.19997,0.35515 -0.31769,0.50112 -0.11782,0.14598 -0.24709,0.27162 -0.3872,0.37919 -0.14012,0.10756 -0.29082,0.19713 -0.45169,0.27059 -0.16096,0.0732 -0.33225,0.13115 -0.51223,0.1749 -0.36015,0.0875 -0.757,0.11764 -1.18156,0.10542 -0.42465,-0.0121 -0.87661,-0.0672 -1.34629,-0.14952 -0.93914,-0.16526 -1.94715,-0.44135 -2.94967,-0.70359 -0.50122,-0.13107 -1.00104,-0.25887 -1.49037,-0.36712 -0.48934,-0.10825 -0.96789,-0.19696 -1.42682,-0.25104 a 0.08637283,0.08637283 0 0 0 -0.009,-8.6e-4 0.08637283,0.08637283 0 0 0 -0.009,0 c 0,5.3e-4 0,0 0,0 0,0.0629 0.009,0.11359 0.0103,0.17353 z"
       id="path1829"
       inkscape:connector-curvature="0" />
    <path
       style="fill:#93bd31;fill-opacity:1;stroke:none;stroke-width:0.07431573;stroke-linecap:butt;stroke-linejoin:miter;stroke-miterlimit:4;stroke-dasharray:none;stroke-opacity:1"
       d="m 130.91406,124.88812 c 0.0327,1.03103 0.13831,2.88774 0,3.09296 -0.21883,0.26783 -1.10232,0.71592 -1.70636,1.10396 -0.40838,0.23296 -0.44808,-0.0586 -0.36652,-0.22881 l 0.10239,-0.20738 -0.79358,0.0968 c -0.26137,0.0534 -0.61704,-0.11445 -0.28178,-0.41802 l 0.52188,-0.42078 h -0.62092 c -0.28247,0 -0.34818,-0.32338 -0.0241,-0.43042 l 1.28506,-0.28816 0.0388,-4.47345 1.60491,1.10827 z"
       id="path1831"
       inkscape:connector-curvature="0"
       sodipodi:nodetypes="cccccccccccccc" />
    <ellipse
       style="opacity:1;fill:#000000;fill-opacity:1;stroke:none;stroke-width:0.06075282;stroke-linecap:round;stroke-linejoin:round;stroke-miterlimit:4;stroke-dasharray:none;stroke-dashoffset:0;stroke-opacity:1"
       id="ellipse1835"
       cx="117.86792"
       cy="103.52266"
       rx="0.18767937"
       ry="0.27047905" />
    <path
       sodipodi:nodetypes="cccccccccccccccc"
       inkscape:connector-curvature="0"
       id="path1847"
       d="m 128.92661,112.60008 c 0,0 -3.61301,2.15695 -3.75773,2.14504 -0.0775,0.0464 -1.08439,-0.10824 -1.42598,-0.13413 -0.41002,-0.0472 -0.65912,0.42959 -0.12825,0.63025 l 0.77932,0.28595 -0.81147,0.12381 c -0.70998,0.13925 -0.61534,0.79852 0.0102,0.71441 l 0.76694,-0.14623 -0.63771,0.57533 c -0.23146,0.21386 -0.18382,0.7426 0.33186,0.52646 l 0.87052,-0.34048 -0.43982,0.50873 c -0.323,0.38225 0.18192,0.6918 0.52978,0.39223 l 1.90414,-1.66797 2.72616,-1.07843 z"
       style="fill:#93bd31;fill-opacity:1;stroke:none;stroke-width:0.10705012;stroke-linecap:butt;stroke-linejoin:miter;stroke-miterlimit:4;stroke-dasharray:none;stroke-opacity:1" />
  </g>
</svg>
