<?xml version="1.0" encoding="UTF-8" standalone="no"?>
<!-- Created with Inkscape (http://www.inkscape.org/) -->

<svg
   xmlns:dc="http://purl.org/dc/elements/1.1/"
   xmlns:cc="http://creativecommons.org/ns#"
   xmlns:rdf="http://www.w3.org/1999/02/22-rdf-syntax-ns#"
   xmlns:svg="http://www.w3.org/2000/svg"
   xmlns="http://www.w3.org/2000/svg"
   xmlns:sodipodi="http://sodipodi.sourceforge.net/DTD/sodipodi-0.dtd"
   xmlns:inkscape="http://www.inkscape.org/namespaces/inkscape"
   width="191.25603mm"
   height="41.653797mm"
   viewBox="0 0 191.25603 41.653797"
   version="1.1"
   id="svg8014"
   inkscape:version="0.92.5 (2060ec1f9f, 2020-04-08)"
   sodipodi:docname="landing-page-text.svg">
  <defs
     id="defs8008" />
  <sodipodi:namedview
     id="base"
     pagecolor="#ffffff"
     bordercolor="#666666"
     borderopacity="1.0"
     inkscape:pageopacity="0.0"
     inkscape:pageshadow="2"
     inkscape:zoom="1.4"
     inkscape:cx="299.93062"
     inkscape:cy="-1.7426623"
     inkscape:document-units="mm"
     inkscape:current-layer="layer1"
     showgrid="false"
     fit-margin-top="0"
     fit-margin-left="0"
     fit-margin-right="0"
     fit-margin-bottom="0"
     inkscape:window-width="1848"
     inkscape:window-height="1016"
     inkscape:window-x="72"
     inkscape:window-y="1107"
     inkscape:window-maximized="1" />
  <metadata
     id="metadata8011">
    <rdf:RDF>
      <cc:Work
         rdf:about="">
        <dc:format>image/svg+xml</dc:format>
        <dc:type
           rdf:resource="http://purl.org/dc/dcmitype/StillImage" />
        <dc:title></dc:title>
      </cc:Work>
    </rdf:RDF>
  </metadata>
  <g
     inkscape:label="Layer 1"
     inkscape:groupmode="layer"
     id="layer1"
     transform="translate(82.020873,-103.23196)">
    <g
       id="g8776">
      <path
         d="m -54.3561,122.22076 v -9.65999 h 3.588001 q 1.9734,0 3.325799,1.3938 1.3662,1.38 1.3662,3.43619 0,2.0562 -1.3662,3.45 -1.352399,1.38 -3.325799,1.38 z m 2.208001,-2.139 h 1.38 q 1.048801,0 1.766401,-0.759 0.717597,-0.759 0.717597,-1.932 0,-1.173 -0.717597,-1.93199 -0.7176,-0.759 -1.766401,-0.759 h -1.38 z"
         style="font-style:normal;font-variant:normal;font-weight:bold;font-stretch:normal;font-size:13.79998207px;line-height:1.25;font-family:'TT Hoves';-inkscape-font-specification:'TT Hoves Bold';letter-spacing:0px;word-spacing:0px;fill:#002236;fill-opacity:1;stroke:none;stroke-width:0.34499955"
         id="path7754"
         inkscape:connector-curvature="0" />
      <path
         d="m -38.762098,121.33756 q -1.021202,1.0212 -2.622003,1.0212 -1.600798,0 -2.635797,-1.0212 -1.021202,-1.035 -1.021202,-2.6358 0,-1.6008 1.021202,-2.622 1.034999,-1.03499 2.635797,-1.03499 1.600801,0 2.622003,1.03499 1.034999,1.0212 1.034999,2.622 0,1.6008 -1.034999,2.6358 z m -3.767402,-1.38 q 0.4554,0.4692 1.145399,0.4692 0.690002,0 1.131602,-0.4692 0.455398,-0.483 0.455398,-1.2558 0,-0.7728 -0.455398,-1.242 -0.4416,-0.483 -1.131602,-0.483 -0.689999,0 -1.145399,0.483 -0.441601,0.4692 -0.441601,1.242 0,0.7728 0.441601,1.2558 z"
         style="font-style:normal;font-variant:normal;font-weight:bold;font-stretch:normal;font-size:13.79998207px;line-height:1.25;font-family:'TT Hoves';-inkscape-font-specification:'TT Hoves Bold';letter-spacing:0px;word-spacing:0px;fill:#002236;fill-opacity:1;stroke:none;stroke-width:0.34499955"
         id="path7756"
         inkscape:connector-curvature="0" />
      <path
         d="m -36.416099,122.22076 v -7.03799 h 1.794 l 0.138001,0.62099 h 0.069 q 0.1656,-0.19319 0.469202,-0.37259 0.593399,-0.3864 1.462799,-0.3864 1.241999,0 2.0286,0.81419 0.800399,0.8004 0.800399,2.0838 v 4.278 h -2.07 v -3.864 q 0,-0.5796 -0.372599,-0.9384 -0.358802,-0.3726 -0.9384,-0.3726 -0.579599,0 -0.952201,0.3726 -0.358799,0.3588 -0.358799,0.9384 v 3.864 z"
         style="font-style:normal;font-variant:normal;font-weight:bold;font-stretch:normal;font-size:13.79998207px;line-height:1.25;font-family:'TT Hoves';-inkscape-font-specification:'TT Hoves Bold';letter-spacing:0px;word-spacing:0px;fill:#002236;fill-opacity:1;stroke:none;stroke-width:0.34499955"
         id="path7758"
         inkscape:connector-curvature="0" />
      <path
         d="m -27.653099,120.28876 v -3.174 h -1.104 v -1.93199 h 1.104 v -2.208 h 2.07 v 2.208 h 1.586899 v 1.93199 h -1.586899 v 2.691 q 0,0.483 0.482999,0.483 h 1.1039 v 1.932 h -1.6559 q -2.000999,0 -2.000999,-1.932 z"
         style="font-style:normal;font-variant:normal;font-weight:bold;font-stretch:normal;font-size:13.79998207px;line-height:1.25;font-family:'TT Hoves';-inkscape-font-specification:'TT Hoves Bold';letter-spacing:0px;word-spacing:0px;fill:#002236;fill-opacity:1;stroke:none;stroke-width:0.34499955"
         id="path7760"
         inkscape:connector-curvature="0" />
      <path
         d="m -22.478198,115.87276 v -3.31199 h 1.863 v 3.31199 z"
         style="font-style:normal;font-variant:normal;font-weight:bold;font-stretch:normal;font-size:13.79998207px;line-height:1.25;font-family:'TT Hoves';-inkscape-font-specification:'TT Hoves Bold';letter-spacing:0px;word-spacing:0px;fill:#002236;fill-opacity:1;stroke:none;stroke-width:0.34499955"
         id="path7762"
         inkscape:connector-curvature="0" />
      <path
         d="m -18.269198,120.28876 v -3.174 h -1.104001 v -1.93199 h 1.104001 v -2.208 h 2.069999 v 2.208 h 1.587 v 1.93199 h -1.587 v 2.691 q 0,0.483 0.483,0.483 h 1.104 v 1.932 H -16.2682 q -2.000998,0 -2.000998,-1.932 z"
         style="font-style:normal;font-variant:normal;font-weight:bold;font-stretch:normal;font-size:13.79998207px;line-height:1.25;font-family:'TT Hoves';-inkscape-font-specification:'TT Hoves Bold';letter-spacing:0px;word-spacing:0px;fill:#002236;fill-opacity:1;stroke:none;stroke-width:0.34499955"
         id="path7764"
         inkscape:connector-curvature="0" />
      <path
         d="m -9.2991989,122.22076 v -9.65999 h 2.07 v 9.65999 z"
         style="font-style:normal;font-variant:normal;font-weight:bold;font-stretch:normal;font-size:13.79998207px;line-height:1.25;font-family:'TT Hoves';-inkscape-font-specification:'TT Hoves Bold';letter-spacing:0px;word-spacing:0px;fill:#002236;fill-opacity:1;stroke:none;stroke-width:0.34499955"
         id="path7766"
         inkscape:connector-curvature="0" />
      <path
         d="M -0.88129795,120.08176 H 1.1887021 q -0.24840205,0.6486 -0.70380005,1.1454 -1.076401,1.1316 -2.67720195,1.1316 -1.6007,0 -2.6357,-1.0212 -1.021199,-1.035 -1.021199,-2.6358 0,-1.6008 1.021199,-2.622 1.035,-1.03499 2.6357,-1.03499 1.54559995,0 2.56680195,1.00739 1.02119905,1.0074 1.02119905,2.5116 0,0.1932 -0.041,0.5244 l -0.028,0.1656 h -5.1059 q 0.055,0.6348 0.482999,1.0488 0.441502,0.4002 1.1039,0.4002 0.552,0 0.9936,-0.3036 0.22079995,-0.1656 0.31740195,-0.3174 z m -2.89790095,-2.07 h 3.17389895 q -0.303599,-1.38 -1.58699995,-1.38 -1.283298,0 -1.586899,1.38 z"
         style="font-style:normal;font-variant:normal;font-weight:bold;font-stretch:normal;font-size:13.79998207px;line-height:1.25;font-family:'TT Hoves';-inkscape-font-specification:'TT Hoves Bold';letter-spacing:0px;word-spacing:0px;fill:#002236;fill-opacity:1;stroke:none;stroke-width:0.34499955"
         id="path7768"
         inkscape:connector-curvature="0" />
      <path
         d="m 3.1207001,120.28876 v -3.174 h -1.103998 v -1.93199 h 1.103998 v -2.208 h 2.070002 v 2.208 h 1.587 v 1.93199 h -1.587 v 2.691 q 0,0.483 0.483,0.483 h 1.104 v 1.932 h -1.656001 q -2.001001,0 -2.001001,-1.932 z"
         style="font-style:normal;font-variant:normal;font-weight:bold;font-stretch:normal;font-size:13.79998207px;line-height:1.25;font-family:'TT Hoves';-inkscape-font-specification:'TT Hoves Bold';letter-spacing:0px;word-spacing:0px;fill:#002236;fill-opacity:1;stroke:none;stroke-width:0.34499955"
         id="path7770"
         inkscape:connector-curvature="0" />
      <path
         d="m 11.607702,124.98075 v -1.93199 H 12.9877 q 0.414002,0 0.483003,-0.276 l 0.069,-0.207 -2.829,-7.38299 h 2.208001 l 1.655998,4.41599 h 0.276 l 1.380001,-4.41599 H 18.4387 l -2.897996,8.14199 q -0.317399,0.91079 -0.828,1.28339 -0.510601,0.3726 -1.656001,0.3726 z"
         style="font-style:normal;font-variant:normal;font-weight:bold;font-stretch:normal;font-size:13.79998207px;line-height:1.25;font-family:'TT Hoves';-inkscape-font-specification:'TT Hoves Bold';letter-spacing:0px;word-spacing:0px;fill:#002236;fill-opacity:1;stroke:none;stroke-width:0.34499955"
         id="path7772"
         inkscape:connector-curvature="0" />
      <path
         d="m 24.9936,121.33756 q -1.0212,1.0212 -2.622,1.0212 -1.6007,0 -2.6357,-1.0212 -1.0212,-1.035 -1.0212,-2.6358 0,-1.6008 1.0212,-2.622 1.035,-1.03499 2.6357,-1.03499 1.6008,0 2.622,1.03499 1.035,1.0212 1.035,2.622 0,1.6008 -1.035,2.6358 z m -3.7673,-1.38 q 0.4553,0.4692 1.1453,0.4692 0.69,0 1.1316,-0.4692 0.4554,-0.483 0.4554,-1.2558 0,-0.7728 -0.4554,-1.242 -0.4416,-0.483 -1.1316,-0.483 -0.69,0 -1.1453,0.483 -0.4416,0.4692 -0.4416,1.242 0,0.7728 0.4416,1.2558 z"
         style="font-style:normal;font-variant:normal;font-weight:bold;font-stretch:normal;font-size:13.79998207px;line-height:1.25;font-family:'TT Hoves';-inkscape-font-specification:'TT Hoves Bold';letter-spacing:0px;word-spacing:0px;fill:#002236;fill-opacity:1;stroke:none;stroke-width:0.34499955"
         id="path7774"
         inkscape:connector-curvature="0" />
      <path
         d="m 27.3396,119.46076 v -4.27799 h 2.07 v 3.86399 q 0,0.5796 0.3588,0.9522 0.3726,0.3588 0.9522,0.3588 0.5796,0 0.9384,-0.3588 0.3726,-0.3726 0.3726,-0.9522 v -3.86399 h 2.07 v 7.03799 h -1.794 l -0.138,-0.621 h -0.069 q -0.1656,0.1932 -0.4692,0.3864 -0.5658,0.3726 -1.4628,0.3726 -1.242,0 -2.0424,-0.8004 -0.7866,-0.8142 -0.7866,-2.0976 z"
         style="font-style:normal;font-variant:normal;font-weight:bold;font-stretch:normal;font-size:13.79998207px;line-height:1.25;font-family:'TT Hoves';-inkscape-font-specification:'TT Hoves Bold';letter-spacing:0px;word-spacing:0px;fill:#002236;fill-opacity:1;stroke:none;stroke-width:0.34499955"
         id="path7776"
         inkscape:connector-curvature="0" />
      <path
         d="m 35.7576,122.22076 v -7.03799 h 1.794 l 0.138,0.55199 h 0.069 q 0.138,-0.16559 0.2898,-0.27599 0.3726,-0.276 0.9522,-0.276 h 1.311 v 1.93199 h -1.242 q -1.242,0 -1.242,1.242 v 3.864 z"
         style="font-style:normal;font-variant:normal;font-weight:bold;font-stretch:normal;font-size:13.79998207px;line-height:1.25;font-family:'TT Hoves';-inkscape-font-specification:'TT Hoves Bold';letter-spacing:0px;word-spacing:0px;fill:#002236;fill-opacity:1;stroke:none;stroke-width:0.34499955"
         id="path7778"
         inkscape:connector-curvature="0" />
      <g
         transform="translate(1640.9316,1102.5636)"
         id="g7828">
        <path
           inkscape:connector-curvature="0"
           id="path7780"
           style="font-style:normal;font-variant:normal;font-weight:bold;font-stretch:normal;font-size:13.79998207px;line-height:1.25;font-family:'TT Hoves';-inkscape-font-specification:'TT Hoves Bold';letter-spacing:0px;word-spacing:0px;fill:#002236;fill-opacity:1;stroke:none;stroke-width:0.34499955"
           d="m -1657.5772,-962.8168 h 2.139 q 0.055,0.207 0.2346,0.3864 0.3726,0.3726 1.0764,0.3726 0.6624,0 1.0212,-0.345 0.3588,-0.345 0.3588,-0.966 v -0.82799 h -0.069 q -0.1932,0.2208 -0.414,0.345 -0.5244,0.34499 -1.242,0.34499 -1.4214,0 -2.3322,-0.93839 -0.9108,-0.9522 -0.9108,-2.4426 0,-1.4904 0.9108,-2.4288 0.9108,-0.9522 2.3322,-0.9522 0.7866,0 1.3662,0.414 0.2346,0.1794 0.4278,0.414 h 0.069 l 0.138,-0.69 h 1.794 v 6.76199 q 0,1.4766 -0.8832,2.2908 -0.8832,0.8142 -2.5668,0.8142 -2.0562,0 -2.9394,-1.2696 -0.414,-0.5796 -0.5106,-1.2834 z m 2.346,-3.03599 q 0.414,0.414 1.035,0.414 0.621,0 1.035,-0.414 0.414,-0.414 0.414,-1.035 0,-0.621 -0.414,-1.035 -0.414,-0.414 -1.035,-0.414 -0.621,0 -1.035,0.414 -0.414,0.414 -0.414,1.035 0,0.621 0.414,1.035 z" />
        <path
           inkscape:connector-curvature="0"
           id="path7782"
           style="font-style:normal;font-variant:normal;font-weight:bold;font-stretch:normal;font-size:13.79998207px;line-height:1.25;font-family:'TT Hoves';-inkscape-font-specification:'TT Hoves Bold';letter-spacing:0px;word-spacing:0px;fill:#002236;fill-opacity:1;stroke:none;stroke-width:0.34499955"
           d="m -1644.3982,-965.23179 h 2.07 q -0.2484,0.6486 -0.7038,1.1454 -1.0764,1.13159 -2.6772,1.13159 -1.6008,0 -2.6358,-1.02119 -1.0212,-1.035 -1.0212,-2.6358 0,-1.6008 1.0212,-2.622 1.035,-1.035 2.6358,-1.035 1.5456,0 2.5668,1.0074 1.0212,1.0074 1.0212,2.5116 0,0.1932 -0.041,0.5244 l -0.028,0.1656 h -5.106 q 0.055,0.6348 0.483,1.0488 0.4416,0.4002 1.104,0.4002 0.552,0 0.9936,-0.3036 0.2208,-0.1656 0.3174,-0.3174 z m -2.898,-2.07 h 3.174 q -0.3036,-1.38 -1.587,-1.38 -1.2834,0 -1.587,1.38 z" />
        <path
           inkscape:connector-curvature="0"
           id="path7784"
           style="font-style:normal;font-variant:normal;font-weight:bold;font-stretch:normal;font-size:13.79998207px;line-height:1.25;font-family:'TT Hoves';-inkscape-font-specification:'TT Hoves Bold';letter-spacing:0px;word-spacing:0px;fill:#002236;fill-opacity:1;stroke:none;stroke-width:0.34499955"
           d="m -1640.3962,-965.02479 v -3.174 h -1.104 v -1.932 h 1.104 v -2.20799 h 2.07 v 2.20799 h 1.587 v 1.932 h -1.587 v 2.691 q 0,0.483 0.483,0.483 h 1.104 v 1.93199 h -1.656 q -2.001,0 -2.001,-1.93199 z" />
        <path
           inkscape:connector-curvature="0"
           id="path7786"
           style="font-style:normal;font-variant:normal;font-weight:bold;font-stretch:normal;font-size:13.79998207px;line-height:1.25;font-family:'TT Hoves';-inkscape-font-specification:'TT Hoves Bold';letter-spacing:0px;word-spacing:0px;fill:#002236;fill-opacity:1;stroke:none;stroke-width:0.34499955"
           d="m -1626.8723,-965.23179 h 2.07 q -0.2484,0.6486 -0.7038,1.1454 -1.0764,1.13159 -2.6772,1.13159 -1.6008,0 -2.6358,-1.02119 -1.0212,-1.035 -1.0212,-2.6358 0,-1.6008 1.0212,-2.622 1.035,-1.035 2.6358,-1.035 1.5456,0 2.5668,1.0074 1.0212,1.0074 1.0212,2.5116 0,0.1932 -0.041,0.5244 l -0.028,0.1656 h -5.106 q 0.055,0.6348 0.483,1.0488 0.4416,0.4002 1.104,0.4002 0.552,0 0.9936,-0.3036 0.2208,-0.1656 0.3174,-0.3174 z m -2.898,-2.07 h 3.174 q -0.3036,-1.38 -1.587,-1.38 -1.2834,0 -1.587,1.38 z" />
        <path
           inkscape:connector-curvature="0"
           id="path7788"
           style="font-style:normal;font-variant:normal;font-weight:bold;font-stretch:normal;font-size:13.79998207px;line-height:1.25;font-family:'TT Hoves';-inkscape-font-specification:'TT Hoves Bold';letter-spacing:0px;word-spacing:0px;fill:#002236;fill-opacity:1;stroke:none;stroke-width:0.34499955"
           d="m -1618.8683,-963.0928 -0.138,-0.621 h -0.069 q -0.1656,0.1932 -0.4692,0.3864 -0.5658,0.3726 -1.4628,0.3726 -1.2144,0 -1.9182,-0.621 -0.7038,-0.62099 -0.7038,-1.58699 0,-1.0212 0.7452,-1.6422 0.7452,-0.6348 2.1528,-0.6348 h 1.587 v -0.138 q 0,-0.4692 -0.2898,-0.7452 -0.2898,-0.2898 -0.8142,-0.2898 -0.5382,0 -0.8832,0.3174 -0.1656,0.1656 -0.2208,0.3036 h -2.001 q 0.1242,-0.9936 0.9246,-1.6284 0.8004,-0.6486 2.1804,-0.6486 1.5042,0 2.3322,0.7314 0.8418,0.7314 0.8418,1.9458 v 4.49879 z m -0.276,-2.82899 v -0.138 h -1.311 q -0.552,0 -0.828,0.207 -0.276,0.207 -0.276,0.552 0,0.3312 0.2484,0.552 0.2622,0.207 0.7176,0.207 0.6624,0 1.0488,-0.3726 0.4002,-0.3864 0.4002,-1.0074 z" />
        <path
           inkscape:connector-curvature="0"
           id="path7790"
           style="font-style:normal;font-variant:normal;font-weight:bold;font-stretch:normal;font-size:13.79998207px;line-height:1.25;font-family:'TT Hoves';-inkscape-font-specification:'TT Hoves Bold';letter-spacing:0px;word-spacing:0px;fill:#002236;fill-opacity:1;stroke:none;stroke-width:0.34499955"
           d="m -1615.0733,-965.02479 v -3.174 h -1.104 v -1.932 h 1.104 v -2.20799 h 2.07 v 2.20799 h 1.587 v 1.932 h -1.587 v 2.691 q 0,0.483 0.483,0.483 h 1.104 v 1.93199 h -1.656 q -2.001,0 -2.001,-1.93199 z" />
        <path
           inkscape:connector-curvature="0"
           id="path7792"
           style="font-style:normal;font-variant:normal;font-weight:bold;font-stretch:normal;font-size:13.79998207px;line-height:1.25;font-family:'TT Hoves';-inkscape-font-specification:'TT Hoves Bold';letter-spacing:0px;word-spacing:0px;fill:#002236;fill-opacity:1;stroke:none;stroke-width:0.34499955"
           d="m -1605.5514,-965.23179 h 2.07 q -0.2484,0.6486 -0.7038,1.1454 -1.0764,1.13159 -2.6772,1.13159 -1.6008,0 -2.6358,-1.02119 -1.0212,-1.035 -1.0212,-2.6358 0,-1.6008 1.0212,-2.622 1.035,-1.035 2.6358,-1.035 1.5456,0 2.5668,1.0074 1.0212,1.0074 1.0212,2.5116 0,0.1932 -0.041,0.5244 l -0.028,0.1656 h -5.106 q 0.055,0.6348 0.483,1.0488 0.4416,0.4002 1.104,0.4002 0.552,0 0.9936,-0.3036 0.2208,-0.1656 0.3174,-0.3174 z m -2.898,-2.07 h 3.174 q -0.3036,-1.38 -1.587,-1.38 -1.2834,0 -1.587,1.38 z" />
        <path
           inkscape:connector-curvature="0"
           id="path7794"
           style="font-style:normal;font-variant:normal;font-weight:bold;font-stretch:normal;font-size:13.79998207px;line-height:1.25;font-family:'TT Hoves';-inkscape-font-specification:'TT Hoves Bold';letter-spacing:0px;word-spacing:0px;fill:#002236;fill-opacity:1;stroke:none;stroke-width:0.34499955"
           d="m -1601.9634,-963.0928 v -7.03799 h 1.794 l 0.138,0.621 h 0.069 q 0.1656,-0.1932 0.4692,-0.3726 0.5934,-0.3864 1.4628,-0.3864 1.242,0 2.0286,0.8142 0.8004,0.8004 0.8004,2.0838 v 4.27799 h -2.07 v -3.86399 q 0,-0.5796 -0.3726,-0.9384 -0.3588,-0.3726 -0.9384,-0.3726 -0.5796,0 -0.9522,0.3726 -0.3588,0.3588 -0.3588,0.9384 v 3.86399 z" />
      </g>
      <path
         inkscape:connector-curvature="0"
         id="path7637"
         style="font-style:normal;font-variant:normal;font-weight:bold;font-stretch:normal;font-size:13.79998207px;line-height:1.25;font-family:'TT Hoves';-inkscape-font-specification:'TT Hoves Bold';letter-spacing:0px;word-spacing:0px;fill:#002236;fill-opacity:1;stroke:none;stroke-width:0.34499955"
         d="m 46.5044,122.2621 v -5.106 h -1.104 v -1.932 h 1.104 v -0.966 q 0,-1.932 2.001,-1.932 h 1.587 v 1.725 h -1.035 q -0.483,0 -0.483,0.483 v 0.69 h 1.518 v 1.932 h -1.518 v 5.106 z" />
      <path
         inkscape:connector-curvature="0"
         id="path7639"
         style="font-style:normal;font-variant:normal;font-weight:bold;font-stretch:normal;font-size:13.79998207px;line-height:1.25;font-family:'TT Hoves';-inkscape-font-specification:'TT Hoves Bold';letter-spacing:0px;word-spacing:0px;fill:#002236;fill-opacity:1;stroke:none;stroke-width:0.34499955"
         d="m 51.3344,119.5021 v -4.278 h 2.07 v 3.864 q 0,0.5796 0.3588,0.9522 0.3726,0.3588 0.9522,0.3588 0.5796,0 0.9384,-0.3588 0.3726,-0.3726 0.3726,-0.9522 v -3.864 h 2.07 v 7.038 h -1.794 l -0.138,-0.621 h -0.069 q -0.1656,0.1932 -0.4692,0.3864 -0.5658,0.3726 -1.4628,0.3726 -1.242,0 -2.0424,-0.8004 -0.7866,-0.8142 -0.7866,-2.0976 z" />
      <path
         inkscape:connector-curvature="0"
         id="path7641"
         style="font-style:normal;font-variant:normal;font-weight:bold;font-stretch:normal;font-size:13.79998207px;line-height:1.25;font-family:'TT Hoves';-inkscape-font-specification:'TT Hoves Bold';letter-spacing:0px;word-spacing:0px;fill:#002236;fill-opacity:1;stroke:none;stroke-width:0.34499955"
         d="m 59.7524,122.2621 v -7.038 h 1.794 l 0.138,0.621 h 0.069 q 0.1656,-0.1932 0.4692,-0.3726 0.5934,-0.3864 1.4628,-0.3864 1.242,0 2.0286,0.8142 0.8004,0.8004 0.8004,2.0838 v 4.278 h -2.07 v -3.864 q 0,-0.5796 -0.3726,-0.9384 -0.3588,-0.3726 -0.9384,-0.3726 -0.5796,0 -0.9522,0.3726 -0.3588,0.3588 -0.3588,0.9384 v 3.864 z" />
      <path
         inkscape:connector-curvature="0"
         id="path7643"
         style="font-style:normal;font-variant:normal;font-weight:bold;font-stretch:normal;font-size:13.79998207px;line-height:1.25;font-family:'TT Hoves';-inkscape-font-specification:'TT Hoves Bold';letter-spacing:0px;word-spacing:0px;fill:#002236;fill-opacity:1;stroke:none;stroke-width:0.34499955"
         d="m 73.2764,122.2621 -0.138,-0.69 h -0.069 q -0.1932,0.2208 -0.4554,0.414 -0.6348,0.414 -1.4766,0.414 -1.4214,0 -2.4012,-1.035 -0.9798,-1.035 -0.9798,-2.622 0,-1.587 0.9798,-2.622 0.9798,-1.035 2.4012,-1.035 0.759,0 1.3662,0.345 0.1932,0.1104 0.4278,0.345 h 0.069 v -3.174 h 2.07 v 9.66 z m -3.0084,-2.2632 q 0.4554,0.4692 1.1454,0.4692 0.69,0 1.1316,-0.4692 0.4554,-0.483 0.4554,-1.2558 0,-0.7728 -0.4554,-1.242 -0.4416,-0.483 -1.1316,-0.483 -0.69,0 -1.1454,0.483 -0.4416,0.4692 -0.4416,1.242 0,0.7728 0.4416,1.2558 z" />
      <path
         sodipodi:nodetypes="cscscscscscscscscscscscscccccccc"
         inkscape:connector-curvature="0"
         id="path7645"
         d="m 93.8865,111.7666 c 0,0 1.234,1.0076 1.2194,1.3589 -0.026,0.6278 -1.0612,1.3455 -1.0612,1.3455 0,0 1.0228,1.0062 0.9985,1.3031 -0.036,0.4463 -1.1499,0.9779 -1.1499,0.9779 0,0 0.9231,0.8986 0.9075,1.2438 -0.016,0.3472 -1.2563,1.1625 -1.2563,1.1625 0,0 1.1725,0.7977 1.2015,1.1334 0.02,0.2355 -1.1456,1.0562 -1.1456,1.0562 0,0 1.1275,0.8474 1.1422,1.0807 0.032,0.5151 -1.1993,1.07 -1.1993,1.07 0,0 1.2846,0.6865 1.309,0.9319 0.035,0.354 -0.7763,1.4589 -0.7763,1.4589 0,0 1.2511,-0.021 1.4054,0.174 0.2508,0.3173 -0.2275,1.9944 -0.2275,1.9944 0,0 1.0784,-1.0381 1.4724,-0.9637 0.309,0.058 0.761,1.5247 0.761,1.5247 0,0 0.467,-1.5757 0.7782,-1.7121 0.1917,-0.084 1.4189,0.9102 1.4189,0.9102 0,0 0.072,-1.5223 0.2944,-1.6732 0.2129,-0.1442 1.6197,0.1607 1.6197,0.1607 0,0 -0.065,-1.0913 0.107,-1.2315 0.2133,-0.1736 1.1913,0.067 1.1913,0.067 0,0 -0.057,-1.2482 0.1874,-1.4188 0.2118,-0.1481 1.1377,0.2811 1.1377,0.2811 l -2.4896,3.44 -4.5777,2.0479 -3.2392,-0.8165 -1.3251,-2.0345 0.281,-12.7025 0.589,-1.1779 z"
         style="fill:#34a13c;fill-opacity:1;stroke:none;stroke-width:0.14991298;stroke-linecap:butt;stroke-linejoin:round;stroke-miterlimit:4;stroke-dasharray:none;stroke-opacity:1" />
      <path
         sodipodi:nodetypes="cccccccccccccccc"
         inkscape:connector-curvature="0"
         id="path7647"
         d="m 87.5758,114.5867 c 0,0 -6.2443,1.3651 -6.3749,1.3215 -0.082,0.025 -1.04,-0.512 -1.2888,-0.5918 -0.2814,-0.2178 -0.8186,0.1428 -0.3957,0.5047 l 0.9003,0.7841 -0.3231,-0.092 c -0.7732,-0.055 -0.4787,0.3743 0.085,0.3639 l 0.01,0.3379 -0.8133,0.4501 c -0.2305,0.1226 -0.2799,0.5766 0.1599,0.5228 l 1.0018,-0.1452 -0.6042,0.2319 c -0.3832,0.2791 0.1669,0.6514 0.5547,0.4539 l 2.4892,-0.8891 3.2813,-0.9426 z"
         style="fill:#77b52a;fill-opacity:1;stroke:none;stroke-width:0.10142651;stroke-linecap:butt;stroke-linejoin:miter;stroke-miterlimit:4;stroke-dasharray:none;stroke-opacity:1" />
      <ellipse
         ry="3.4551837"
         rx="16.743593"
         cy="135.4854"
         cx="90.970421"
         id="ellipse7649"
         style="opacity:1;fill:#f0f0f1;fill-opacity:1;stroke:none;stroke-width:0.09328464;stroke-linecap:round;stroke-linejoin:round;stroke-miterlimit:4;stroke-dasharray:none;stroke-dashoffset:0;stroke-opacity:1" />
      <path
         style="fill:#77b52a;fill-opacity:1;stroke:none;stroke-width:0.08629426;stroke-linecap:butt;stroke-linejoin:miter;stroke-miterlimit:4;stroke-dasharray:none;stroke-opacity:1"
         d="m 89.2626,131.8631 c 0.06,1.1207 0.2441,3.1992 0.1799,3.3623 -0.099,0.1749 -1.1609,0.8545 -1.7413,1.2817 -0.1469,0.087 -0.2888,0.02 -0.2472,-0.2471 l 0.072,-0.3676 -0.9948,0.3204 c -0.4175,0.088 -0.5121,-0.3472 -0.3202,-0.5071 l 0.6155,-0.507 -0.5311,-0.01 c -0.5227,-0.01 -0.3326,-0.3837 -0.09,-0.4774 l 1.2533,-0.4267 -0.081,-3.0428 1.8256,0.012 z"
         id="path7651"
         inkscape:connector-curvature="0"
         sodipodi:nodetypes="cccccccccccccc" />
      <path
         id="path7653"
         d="m 84.735,130.5785 c 0.3402,0.1345 0.6968,0.229 1.0558,0.2563 0.3726,0.028 0.7462,-0.01 1.1027,-0.1287 0.1783,-0.06 0.3521,-0.1396 0.5194,-0.2424 0.1673,-0.1027 0.3283,-0.2284 0.48,-0.3782 l -3.686,-0.069 c 0.1665,0.1954 0.3383,0.3861 0.5281,0.5622 z"
         style="fill:#d3d95d;fill-opacity:1;stroke:none;stroke-width:0.07495651;stroke-linecap:butt;stroke-linejoin:round;stroke-miterlimit:4;stroke-dasharray:none;stroke-opacity:1"
         inkscape:connector-curvature="0" />
      <path
         id="path7655"
         d="m 82.7439,113.2524 0.3995,0.1204 -0.3638,1.6883 h 5.3e-4 l -0.2641,1.2273 -0.029,0.1379 c -0.1099,0.7561 -0.176,1.0129 -0.3752,2.3901 v 0 c -0.028,0.1962 0,0.078 -0.037,0.3405 -0.016,0.2059 -0.026,0.5121 -0.032,0.7612 -0.013,0.4657 -0.032,0.9143 -0.029,1.4232 h -5.3e-4 c 0,0.3513 -0.034,0.6123 -0.02,0.9824 h -5.3e-4 c 0.011,0.2817 -2e-4,0.542 0.024,0.8314 0.021,0.3058 0.01,0.5867 0.045,0.8987 h 0.001 c 0.066,0.5772 0.1546,1.161 0.2816,1.7384 h -5.3e-4 c 0.071,0.3207 0.1144,0.6463 0.2083,0.9601 h 5.3e-4 c 0.2347,0.7852 0.5355,1.546 0.9457,2.235 0.2138,0.3593 0.4386,0.7117 0.709,1.0289 0.1665,0.1954 0.3383,0.3862 0.5281,0.5623 0.3402,0.1345 0.6967,0.229 1.0558,0.2563 0.3726,0.028 0.7462,-0.01 1.1027,-0.1287 0.1783,-0.06 0.3521,-0.1396 0.5194,-0.2424 0.1673,-0.1027 0.3284,-0.2284 0.48,-0.3782 0.2749,-0.2715 0.5173,-0.627 0.7189,-1.0739 0.1622,-0.3597 0.3046,-0.7615 0.4036,-1.2495 0.02,-0.098 0.045,-0.1851 0.062,-0.2884 l 0.025,-0.1581 c 0.019,-0.2173 0.028,-0.4024 0.042,-0.6046 h 5.3e-4 c 0.033,-0.4771 0.066,-0.9514 0.1002,-1.4263 0.023,-0.3276 0.049,-0.6664 0.069,-0.9844 0.029,-0.4727 0.081,-1.0041 0.1028,-1.463 h -5.3e-4 c 0.024,-0.5044 0.03,-1.0005 0.041,-1.4955 0.011,-0.4885 0.04,-0.9871 0.04,-1.4759 0,-0.4272 -0.01,-0.8658 -0.021,-1.3001 h 5.3e-4 c -0.023,-0.73 -0.051,-1.4624 -0.11,-2.2361 -0.037,-0.4862 -0.09,-1.0025 -0.1437,-1.5172 -0.033,-0.314 -0.047,-0.7259 -0.1,-1.1994 -0.5355,0.068 -1.0512,0.12 -1.5612,0.1498 -0.5099,0.03 -1.0149,0.037 -1.5296,0.015 -0.5147,-0.022 -1.0388,-0.072 -1.5885,-0.1591 -0.5372,-0.085 -1.101,-0.2069 -1.7002,-0.3669 z"
         style="fill:#d3d95d;fill-opacity:1;stroke:none;stroke-width:0.07495651;stroke-linecap:butt;stroke-linejoin:round;stroke-miterlimit:4;stroke-dasharray:none;stroke-opacity:1"
         inkscape:connector-curvature="0"
         sodipodi:nodetypes="ccccccccccccccccccccccccccsccccccccccccscccccccccc" />
      <path
         id="path7657"
         d="m 87.8929,130.0855 c 0.2749,-0.2715 0.5173,-0.627 0.7189,-1.0739 l -5.1139,-0.024 c 0.2138,0.3593 0.4386,0.7117 0.709,1.0289 z"
         style="fill:#efecc3;fill-opacity:1;stroke:none;stroke-width:0.07495651;stroke-linecap:butt;stroke-linejoin:round;stroke-miterlimit:4;stroke-dasharray:none;stroke-opacity:1"
         inkscape:connector-curvature="0" />
      <path
         id="path7659"
         d="m 83.4979,128.9873 5.1139,0.024 c 0.1622,-0.3597 0.3046,-0.7615 0.4036,-1.2495 l -6.4632,-1.0098 c 0.2347,0.7852 0.5355,1.546 0.9457,2.235 z"
         style="fill:#d3d95d;fill-opacity:1;stroke:none;stroke-width:0.07495651;stroke-linecap:butt;stroke-linejoin:round;stroke-miterlimit:4;stroke-dasharray:none;stroke-opacity:1"
         inkscape:connector-curvature="0" />
      <path
         id="path7661"
         d="m 89.0154,127.7621 h 5.3e-4 c 0.02,-0.098 0.045,-0.1851 0.062,-0.2884 l 0.025,-0.1581 c 0.019,-0.2173 0.028,-0.4024 0.042,-0.6046 l -6.8012,-0.9188 c 0.071,0.3207 0.1145,0.6463 0.20831,0.9601 z"
         style="fill:#efecc3;fill-opacity:1;stroke:none;stroke-width:0.07495651;stroke-linecap:butt;stroke-linejoin:round;stroke-miterlimit:4;stroke-dasharray:none;stroke-opacity:1"
         inkscape:connector-curvature="0" />
      <path
         id="path7663"
         d="m 89.1451,126.711 c 0.033,-0.4771 0.066,-0.9514 0.1002,-1.4263 l -7.183,-1.2309 c 0.066,0.5772 0.1546,1.161 0.2816,1.7384 z"
         style="fill:#d3d95d;fill-opacity:1;stroke:none;stroke-width:0.07495651;stroke-linecap:butt;stroke-linejoin:round;stroke-miterlimit:4;stroke-dasharray:none;stroke-opacity:1"
         inkscape:connector-curvature="0" />
      <path
         id="path7665"
         d="m 89.2453,125.2847 h 5.3e-4 c 0.023,-0.3276 0.049,-0.6664 0.069,-0.9844 l -7.2978,-1.1452 c 0.021,0.3058 0.01,0.5867 0.045,0.8987 z"
         style="fill:#efecc3;fill-opacity:1;stroke:none;stroke-width:0.07495651;stroke-linecap:butt;stroke-linejoin:round;stroke-miterlimit:4;stroke-dasharray:none;stroke-opacity:1"
         inkscape:connector-curvature="0" />
      <path
         id="path7667"
         d="m 89.3146,124.3003 c 0.029,-0.4727 0.081,-1.0041 0.1028,-1.463 l -7.4249,-0.5136 c 0.011,0.2817 0,0.542 0.024,0.8314 z"
         style="fill:#d3d95d;fill-opacity:1;stroke:none;stroke-width:0.07495651;stroke-linecap:butt;stroke-linejoin:round;stroke-miterlimit:4;stroke-dasharray:none;stroke-opacity:1"
         inkscape:connector-curvature="0" />
      <path
         id="path7669"
         d="m 89.4169,122.8373 c 0.024,-0.5044 0.03,-1.0005 0.041,-1.4955 l -7.445,-5e-4 c 0,0.3513 -0.034,0.6123 -0.02,0.9824 z"
         style="fill:#efecc3;fill-opacity:1;stroke:none;stroke-width:0.07495651;stroke-linecap:butt;stroke-linejoin:round;stroke-miterlimit:4;stroke-dasharray:none;stroke-opacity:1"
         inkscape:connector-curvature="0" />
      <path
         id="path7671"
         d="m 89.4577,121.3418 c 0.011,-0.4885 0.04,-0.9871 0.04,-1.4759 l -7.4554,0.052 c -0.013,0.4657 -0.032,0.9143 -0.029,1.4232 z"
         style="fill:#d3d95d;fill-opacity:1;stroke:none;stroke-width:0.07495651;stroke-linecap:butt;stroke-linejoin:round;stroke-miterlimit:4;stroke-dasharray:none;stroke-opacity:1"
         inkscape:connector-curvature="0" />
      <path
         id="path7673"
         d="m 89.4975,119.8659 h 5.3e-4 c 0,-0.4272 -0.01,-0.8658 -0.021,-1.3001 l -7.3654,0.2506 c -0.028,0.1962 0,0.084 -0.038,0.3468 -0.013,0.2132 -0.025,0.5058 -0.031,0.7549 z"
         style="fill:#efecc3;fill-opacity:1;stroke:none;stroke-width:0.07495651;stroke-linecap:butt;stroke-linejoin:round;stroke-miterlimit:4;stroke-dasharray:none;stroke-opacity:1"
         inkscape:connector-curvature="0"
         sodipodi:nodetypes="ccccccc" />
      <path
         id="path7675"
         d="m 89.4768,118.5658 c -0.023,-0.73 -0.051,-1.4624 -0.11,-2.2361 l -6.8508,-0.041 -0.029,0.138 c -0.1099,0.7561 -0.176,1.0129 -0.3752,2.39 z"
         style="fill:#d3d95d;fill-opacity:1;stroke:none;stroke-width:0.07495651;stroke-linecap:butt;stroke-linejoin:round;stroke-miterlimit:4;stroke-dasharray:none;stroke-opacity:1"
         inkscape:connector-curvature="0" />
      <path
         id="path7677"
         d="m 89.3668,116.3297 c -0.037,-0.4862 -0.09,-1.0025 -0.1437,-1.5172 l -6.443,0.2486 -0.2641,1.2273 z"
         style="fill:#efecc3;fill-opacity:1;stroke:none;stroke-width:0.07495651;stroke-linecap:butt;stroke-linejoin:round;stroke-miterlimit:4;stroke-dasharray:none;stroke-opacity:1"
         inkscape:connector-curvature="0" />
      <path
         id="path7679"
         d="m 89.2231,114.8125 c -0.033,-0.314 -0.047,-0.7259 -0.1,-1.1994 -0.5355,0.068 -1.0507,0.12 -1.5607,0.1498 -0.5099,0.03 -1.0149,0.037 -1.5296,0.015 -0.5147,-0.022 -1.0388,-0.072 -1.5885,-0.1591 -0.5372,-0.085 -1.101,-0.2069 -1.7002,-0.3669 l 0.399,0.1204 -0.3633,1.6883 z"
         style="fill:#d3d95d;fill-opacity:1;stroke:none;stroke-width:0.07495651;stroke-linecap:butt;stroke-linejoin:round;stroke-miterlimit:4;stroke-dasharray:none;stroke-opacity:1"
         inkscape:connector-curvature="0" />
      <path
         sodipodi:nodetypes="cccccccccscccccsccccccccccccccccccccccccccccccccccccccccccccccccccccccccccccccccccccsccccccccccccccc"
         style="fill:#a2cb41;fill-opacity:1;stroke:none;stroke-width:0.07495651;stroke-linecap:butt;stroke-linejoin:round;stroke-miterlimit:4;stroke-dasharray:none;stroke-opacity:1"
         d="m 87.5746,104.8491 c -0.823,-0.1328 -1.7324,0.6311 -1.8769,1.2682 -0.2927,1.1894 -0.1759,1.1661 -0.2542,2.1828 -0.7868,0 -1.4682,0.053 -2.4701,0.038 -0.8062,-0.555 -1.94,-2.6231 -3.0479,-0.8423 -0.8411,-1.637 -1.6401,-0.3353 -1.7038,0.2082 -0.1729,1.1733 -0.3873,2.3203 0.9612,2.7327 0,-1.7e-4 0.01,-1.7e-4 0.01,0 0,1.7e-4 0.01,5e-4 0.01,0.001 0.5329,0.063 1.0886,0.1658 1.6568,0.2915 0.56821,0.1257 1.14861,0.2741 1.7306,0.4263 1.1641,0.3045 2.33461,0.6251 3.4251,0.817 0.54541,0.096 1.0702,0.1595 1.56331,0.1736 0.49299,0.014 0.95379,-0.021 1.372,-0.1224 0.20899,-0.051 0.4079,-0.1178 0.59479,-0.2031 0.18681,-0.085 0.3618,-0.1893 0.5245,-0.3142 0.1627,-0.1249 0.3128,-0.2708 0.4496,-0.4403 0.1367,-0.1695 0.2601,-0.3627 0.36891,-0.5819 -2.1e-4,-0.003 -2.1e-4,-0.007 0,-0.01 0,-0.004 0.01,-0.007 0.01,-0.01 0,-0.004 0.01,-0.007 0.01,-0.01 0,-0.004 0.01,-0.007 0.01,-0.01 0,-0.004 0.01,-0.007 0.01,-0.01 0,-0.004 0.01,-0.007 0.01,-0.01 0,-0.004 0.01,-0.007 0.01,-0.01 0,-1.7e-4 0.01,-1.7e-4 0.01,0 0,-1.7e-4 0.01,-1.7e-4 0.01,0 0,-1.7e-4 0.01,-1.7e-4 0.01,0 h 5.3e-4 c 0,-1.7e-4 0.01,-1.7e-4 0.01,0 0,-1.7e-4 0.01,-1.7e-4 0.01,0 0,-1.7e-4 0.01,-1.7e-4 0.01,0 0,-1.7e-4 0.01,-1.7e-4 0.01,0 0,-1.7e-4 0.01,-1.7e-4 0.01,0 0,-1.7e-4 0.01,-1.7e-4 0.01,0 0,-1.7e-4 0.01,-1.7e-4 0.01,0 0,0.003 0.01,0.006 0.01,0.01 0,0.003 0.01,0.006 0.01,0.01 0,0.003 0.01,0.006 0.01,0.01 0,0.003 0.01,0.006 0.01,0.01 0,0.003 0.01,0.006 0.01,0.01 2e-4,0.003 2e-4,0.007 0,0.01 2e-4,0.003 2e-4,0.007 0,0.01 2e-4,0.003 2e-4,0.007 0,0.01 2e-4,0.003 2e-4,0.007 0,0.01 2e-4,0.003 2e-4,0.007 0,0.01 0,0.003 -2e-4,0.007 -5.3e-4,0.01 -2e-4,0.003 -5.3e-4,0.007 -0.001,0.01 2e-4,0.003 2e-4,0.007 0,0.01 2e-4,0.003 2e-4,0.007 0,0.01 2e-4,0.003 2e-4,0.007 0,0.01 -0.1149,0.2313 -0.2461,0.4362 -0.3927,0.617 -0.1467,0.1808 -0.3085,0.3375 -0.4832,0.4718 -0.1748,0.1344 -0.3629,0.2466 -0.5623,0.3385 -0.1993,0.092 -0.4096,0.1635 -0.6299,0.217 -0.4405,0.1071 -0.9189,0.1439 -1.4252,0.1297 -0.5063,-0.014 -1.0403,-0.08 -1.5922,-0.1767 -1.1039,-0.1942 -2.2807,-0.5157 -3.4432,-0.8196 -0.5812,-0.1519 -1.1591,-0.2998 -1.7224,-0.4247 -0.5552,-0.1232 -1.0955,-0.2229 -1.6123,-0.2848 0.022,0.873 0.3045,1.4833 0.877,1.8051 l 2.6675,0.8066 c 0.5992,0.16 1.163,0.282 1.7002,0.3669 0.5497,0.087 1.0738,0.1375 1.5885,0.1592 0.5147,0.022 1.0197,0.014 1.5296,-0.016 0.51,-0.03 1.0252,-0.082 1.5607,-0.1499 0.053,0.4736 0.067,0.8855 0.1002,1.1995 0.054,0.5146 0.1067,1.031 0.1437,1.5172 0.059,0.7737 0.087,1.5061 0.1101,2.236 0.014,0.4344 0.019,0.8729 0.021,1.3002 h -5.3e-4 c 0,0.4887 -0.029,0.9874 -0.04,1.4759 -0.011,0.495 -0.017,0.9911 -0.041,1.4955 h 5.3e-4 c -0.022,0.4589 -0.073,0.9902 -0.1023,1.4629 -0.02,0.3181 -0.046,0.6568 -0.069,0.9845 h -5.3e-4 c -0.034,0.4748 -0.067,0.9492 -0.1002,1.4263 -0.014,0.2021 -0.023,0.3873 -0.042,0.6046 l -0.025,0.1581 c -0.017,0.1032 -0.042,0.1906 -0.062,0.2883 -0.099,0.4881 -0.2414,0.8898 -0.4036,1.2496 l -5.3e-4,5.3e-4 c -0.2016,0.4465 -0.4441,0.802 -0.7189,1.0733 -0.1517,0.1499 -0.3127,0.2756 -0.48,0.3783 -0.1673,0.1027 -0.3411,0.1827 -0.5194,0.2424 -0.3565,0.1193 -0.7296,0.1569 -1.1022,0.1286 -0.3591,-0.027 -0.7161,-0.1217 -1.0563,-0.2563 0.6894,0.6393 1.5319,1.1476 2.5704,1.4547 1.6152,0.5022 3.2235,0.9807 4.8839,0.9772 5.7528,-0.012 7.7171,-1.2828 9.5555,-2.5642 3.0487,-2.2475 4.8469,-7.2956 4.1321,-7.5897 v 0 c -1.5673,-0.6426 -10.2245,12.4478 -12.2664,1.1359 -0.7778,-5.4519 2.162,-15.02613 -1.1215,-18.2382 -0.5732,-0.4474 -1.6226,-0.7201 -2.1703,0.5963 -0.2849,1.0694 -0.4118,0.8015 -1.1855,0.7767 -0.1523,-0.014 -0.1735,-0.3545 -0.3028,-0.9508 -0.2013,-0.6061 -0.7023,-1.2241 -1.2542,-1.3271 z"
         id="path7681"
         inkscape:connector-curvature="0" />
      <ellipse
         transform="scale(-1,1)"
         ry="1.571138"
         rx="1.1546919"
         cy="107.47674"
         cx="-91.588585"
         id="ellipse7683"
         style="opacity:1;fill:#ffffff;fill-opacity:1;stroke:none;stroke-width:1.16194797;stroke-linecap:round;stroke-linejoin:round;stroke-miterlimit:4;stroke-dasharray:none;stroke-dashoffset:0;stroke-opacity:1" />
      <ellipse
         transform="matrix(-0.99457806,0.10399266,0.10399266,0.99457806,0,0)"
         style="opacity:1;fill:#000000;fill-opacity:1;stroke:none;stroke-width:0.58277237;stroke-linecap:round;stroke-linejoin:round;stroke-miterlimit:4;stroke-dasharray:none;stroke-dashoffset:0;stroke-opacity:1"
         id="ellipse7685"
         cx="-79.656082"
         cy="116.50315"
         rx="0.57913309"
         ry="0.7880007" />
      <ellipse
         transform="scale(-1,1)"
         style="opacity:1;fill:#ffffff;fill-opacity:1;stroke:none;stroke-width:1.16194797;stroke-linecap:round;stroke-linejoin:round;stroke-miterlimit:4;stroke-dasharray:none;stroke-dashoffset:0;stroke-opacity:1"
         id="ellipse7687"
         cx="-87.284996"
         cy="107.01153"
         rx="1.1546919"
         ry="1.571138" />
      <ellipse
         transform="matrix(-0.99790194,0.06474351,0.06474351,0.99790194,0,0)"
         ry="0.7880007"
         rx="0.57913309"
         cy="112.59732"
         cx="-79.944046"
         id="ellipse7689"
         style="opacity:1;fill:#000000;fill-opacity:1;stroke:none;stroke-width:0.58277237;stroke-linecap:round;stroke-linejoin:round;stroke-miterlimit:4;stroke-dasharray:none;stroke-dashoffset:0;stroke-opacity:1" />
      <path
         style="font-style:normal;font-variant:normal;font-weight:bold;font-stretch:normal;font-size:13.79998207px;line-height:1.25;font-family:'TT Hoves';-inkscape-font-specification:'TT Hoves Bold';letter-spacing:0px;word-spacing:0px;fill:#002236;fill-opacity:1;stroke:none;stroke-width:0.37701234"
         d="m 80.6929,114.1447 c -0.9197,0.4271 -1.4151,0.9158 -1.7482,1.5637 -0.3401,0.6619 -0.3689,1.3043 -0.087,1.927 0.2697,0.5953 0.6647,0.979 1.1845,1.1519 0.5248,0.1596 1.2197,0.1095 2.0846,-0.1499 l 1.0924,-0.3292 c 0.3321,-0.095 0.5805,-0.1196 0.7452,-0.073 0.1647,0.047 0.2952,0.1754 0.3902,0.386 0.087,0.1923 0.065,0.4008 -0.065,0.6253 -0.1251,0.2112 -0.3664,0.3978 -0.7235,0.5597 -0.4762,0.2157 -0.8771,0.232 -1.2031,0.048 -0.132,-0.073 -0.2449,-0.1872 -0.3379,-0.3436 -0.1877,-0.3177 -2.1331,0.6534 -1.9508,0.9436 0.2108,0.3755 0.4617,0.6435 0.8868,0.9462 0.8931,0.5335 1.9899,0.5054 3.2902,-0.084 0.9799,-0.444 1.6447,-0.999 1.9942,-1.665 0.3491,-0.6661 0.3824,-1.3105 0.1003,-1.9333 -0.5725,-1.2637 -1.6825,-1.6433 -3.3306,-1.1394 l -1.0929,0.3292 c -0.5867,0.1665 -0.9442,0.1082 -1.0729,-0.1757 -0.083,-0.1832 -0.062,-0.3694 0.062,-0.5582 0.1201,-0.1978 0.3495,-0.3735 0.6883,-0.527 0.3938,-0.1785 0.7434,-0.2103 1.0496,-0.095 0.1197,0.045 0.2291,0.1172 0.3291,0.2155 0.066,0.1048 1.2005,-0.6512 1.1545,-0.8362 l -0.268,-0.214 -0.6477,0.3458 -0.2268,-0.6422 -0.4822,0.5595 -0.4395,-0.5978 -0.6566,0.6805 z"
         id="path7691"
         inkscape:connector-curvature="0"
         sodipodi:nodetypes="cccccccccccccccccccccccccccccccc" />
      <path
         style="fill:#a2cb41;fill-opacity:1;stroke:none;stroke-width:0.12430493;stroke-linecap:butt;stroke-linejoin:miter;stroke-miterlimit:4;stroke-dasharray:none;stroke-opacity:1"
         d="m 93.4476,115.4917 c 0,0 -7.3026,2.8348 -7.4689,2.8068 -0.094,0.046 -1.3563,-0.4232 -1.6727,-0.4726 -0.3818,-0.2105 -0.9642,0.3279 -0.3835,0.6859 l 1.2386,0.7791 -1.8589,0.092 c -0.9467,0.08 -0.5192,0.9227 0.1619,0.8033 l 1.5315,-0.1133 -0.8995,0.699 c -0.2966,0.1802 -0.3254,0.8023 0.2924,0.6028 l 1.1857,-0.3655 -0.7614,0.6594 c -0.4112,0.4106 0.3452,0.7044 0.7771,0.3919 l 2.8999,-1.7593 3.7948,-1.7625 z"
         id="path7693"
         inkscape:connector-curvature="0"
         sodipodi:nodetypes="cccccccccccccccc" />
      <ellipse
         ry="0.35620543"
         rx="0.24716294"
         cy="107.60625"
         cx="80.84359"
         id="ellipse7695"
         style="opacity:1;fill:#000000;fill-opacity:1;stroke:none;stroke-width:0.08000798;stroke-linecap:round;stroke-linejoin:round;stroke-miterlimit:4;stroke-dasharray:none;stroke-dashoffset:0;stroke-opacity:1" />
      <path
         sodipodi:nodetypes="cssccsccsccssccsscccccccccccccccc"
         inkscape:connector-curvature="0"
         id="path7697"
         d="m 90.7329,111.0188 c 0.06,0.081 0.1245,0.1534 0.1598,0.2039 0.5795,0.8298 -0.264,0.7545 -0.52,0.4205 -0.037,-0.049 -0.1029,-0.1442 -0.1213,-0.1909 l -0.081,0.022 c 0.4084,2.0565 -0.706,1.4751 -0.8885,0.9213 -0.038,-0.1135 -0.1527,-0.5442 -0.1672,-0.6319 l -0.4382,0.2537 c 0.1434,1.533 -0.6438,1.1744 -0.8028,0.4181 -0.02,-0.092 -0.023,-0.2506 -0.02,-0.3503 l -1.0222,-0.043 c 0.011,0.2021 0.038,0.509 0.01,0.6492 -0.1261,0.6279 -0.6761,0.4733 -0.7205,-0.034 -0.012,-0.1298 -0.058,-0.5143 -0.043,-0.6685 l -1.0246,-0.2352 c -0.028,0.2045 -0.085,0.4708 -0.124,0.6094 -0.1317,0.4639 -0.606,0.4229 -0.6545,-0.06 -0.017,-0.1727 0.035,-0.474 0.079,-0.6898 l -1.0211,-0.2492 -0.032,0.371 c -0.068,0.7502 -0.8512,0.6626 -0.7714,0.01 l 0.037,-0.5992 -0.9009,-0.189 -0.1787,0.5003 c -0.1175,0.3378 -0.679,0.6172 -0.6399,-0.2021 l 0.045,-0.5379 -0.3441,-0.071 -0.1377,0.491 c -0.1716,0.5945 -0.7785,0.7066 -0.7999,-0.1811 l 0.049,-0.5673 0.1915,-0.5547 10.2172,-0.2191 z"
         style="fill:#ffffff;stroke:none;stroke-width:0.03768452;stroke-linecap:butt;stroke-linejoin:miter;stroke-miterlimit:4;stroke-dasharray:none;stroke-opacity:1" />
      <path
         sodipodi:nodetypes="ccccc"
         inkscape:connector-curvature="0"
         id="path7699"
         d="m 79.2375,110.3888 c 5.236,1.3676 10.3263,3.1128 11.7098,0.2839 l -0.451,-1.6871 -10.4904,0.5679 z"
         style="fill:#a2cb41;fill-opacity:1;stroke:none;stroke-width:0.26458332px;stroke-linecap:butt;stroke-linejoin:miter;stroke-opacity:1" />
      <path
         sodipodi:nodetypes="ccccc"
         inkscape:connector-curvature="0"
         id="path7701"
         d="m 89.1536,112.0629 c 0.122,-0.3962 0.1755,-0.7093 0.2093,-0.9912 0.1279,-1.2462 -0.9757,-0.9313 -1.1325,-0.1292 -0.2048,0.7396 -0.436,1.352 -0.4131,1.2827 0.5055,-0.074 0.9253,0.1133 1.3363,-0.1623 z"
         style="fill:#ed1b24;fill-opacity:1;stroke:none;stroke-width:0.14024776px;stroke-linecap:butt;stroke-linejoin:miter;stroke-opacity:1" />
      <path
         style="fill:#000000;fill-opacity:1;stroke:none;stroke-width:0.07495651;stroke-linecap:butt;stroke-linejoin:round;stroke-miterlimit:4;stroke-dasharray:none;stroke-opacity:1"
         d="m 79.1999,110.6405 c 0.5168,0.062 1.0571,0.1616 1.6123,0.2848 0.5633,0.1249 1.1412,0.2728 1.7224,0.4247 1.1625,0.3039 2.3393,0.6254 3.4432,0.8196 0.5519,0.097 1.0859,0.1626 1.5922,0.1767 0.5063,0.014 0.9847,-0.023 1.4252,-0.1297 0.2203,-0.053 0.4306,-0.1251 0.6299,-0.217 0.1994,-0.092 0.3875,-0.2041 0.5623,-0.3385 0.1747,-0.1343 0.3365,-0.291 0.4832,-0.4718 0.1466,-0.1808 0.2778,-0.3857 0.3927,-0.617 a 0.10001,0.10001 0 0 0 0,-0.01 0.10001,0.10001 0 0 0 0,-0.01 0.10001,0.10001 0 0 0 0,-0.01 0.10001,0.10001 0 0 0 0,-0.01 0.10001,0.10001 0 0 0 5.3e-4,-0.01 0.10001,0.10001 0 0 0 0,-0.01 0.10001,0.10001 0 0 0 0,-0.01 0.10001,0.10001 0 0 0 0,-0.01 0.10001,0.10001 0 0 0 0,-0.01 0.10001,0.10001 0 0 0 0,-0.01 0.10001,0.10001 0 0 0 -0.01,-0.01 0.10001,0.10001 0 0 0 -0.01,-0.01 0.10001,0.10001 0 0 0 -0.01,-0.01 0.10001,0.10001 0 0 0 -0.01,-0.01 0.10001,0.10001 0 0 0 -0.01,-0.01 0.10001,0.10001 0 0 0 -0.01,0 0.10001,0.10001 0 0 0 -0.01,0 0.10001,0.10001 0 0 0 -0.01,0 0.10001,0.10001 0 0 0 -0.01,0 0.10001,0.10001 0 0 0 -0.01,-0.001 0.10001,0.10001 0 0 0 -0.01,0 0.10001,0.10001 0 0 0 -0.01,0.001 h -5.3e-4 a 0.10001,0.10001 0 0 0 -0.01,0 0.10001,0.10001 0 0 0 -0.01,0 0.10001,0.10001 0 0 0 -0.01,0 0.10001,0.10001 0 0 0 -0.01,0.01 0.10001,0.10001 0 0 0 -0.01,0.01 0.10001,0.10001 0 0 0 -0.01,0.01 0.10001,0.10001 0 0 0 -0.01,0.01 0.10001,0.10001 0 0 0 -0.01,0.01 0.10001,0.10001 0 0 0 -0.01,0.01 0.10001,0.10001 0 0 0 0,0.01 c -0.10881,0.2192 -0.2322,0.4124 -0.3689,0.5819 -0.1368,0.1695 -0.28691,0.3154 -0.44961,0.4403 -0.1627,0.1249 -0.33769,0.2289 -0.52449,0.3142 -0.1869,0.085 -0.3858,0.1523 -0.5948,0.2031 -0.4182,0.1016 -0.87901,0.1366 -1.372,0.1224 -0.4931,-0.014 -1.01791,-0.078 -1.5633,-0.1736 -1.09051,-0.1919 -2.261,-0.5125 -3.4251,-0.817 -0.58201,-0.1522 -1.1624,-0.3006 -1.7306,-0.4263 -0.56821,-0.1257 -1.1239,-0.2287 -1.6568,-0.2915 a 0.10029478,0.10029478 0 0 0 -0.01,-0.001 0.10029478,0.10029478 0 0 0 -0.01,0 c 0,6.1e-4 0,0 0,0 0,0.073 0.011,0.1319 0.012,0.2015 z"
         id="path7703"
         inkscape:connector-curvature="0" />
      <path
         style="fill:#a2cb41;fill-opacity:1;stroke:none;stroke-width:0.08629426;stroke-linecap:butt;stroke-linejoin:miter;stroke-miterlimit:4;stroke-dasharray:none;stroke-opacity:1"
         d="m 94.1343,132.2982 c 0.038,1.1972 0.1606,3.3532 0,3.5915 -0.2541,0.311 -1.28,0.8313 -1.9814,1.2819 -0.4742,0.2705 -0.5203,-0.068 -0.4256,-0.2657 l 0.1189,-0.2408 -0.9215,0.1124 c -0.3035,0.062 -0.7165,-0.1329 -0.3272,-0.4854 l 0.606,-0.4886 h -0.721 c -0.328,0 -0.4043,-0.3755 -0.028,-0.4998 l 1.4922,-0.3346 0.045,-5.1945 1.8636,1.2869 z"
         id="path7705"
         inkscape:connector-curvature="0"
         sodipodi:nodetypes="cccccccccccccc" />
      <path
         id="path7707"
         d="m 89.0771,127.4738 0.025,-0.1581 c 0,0.021 0,0.037 -0.01,0.059 -0.01,0.036 -0.015,0.064 -0.022,0.099 z"
         style="fill:#d2d75f;fill-opacity:1;stroke:none;stroke-width:0.15666464px;stroke-linecap:butt;stroke-linejoin:miter;stroke-opacity:1"
         inkscape:connector-curvature="0" />
      <path
         style="fill:#ffffff;fill-opacity:1;stroke:#ffffff;stroke-width:0.065;stroke-linecap:butt;stroke-linejoin:miter;stroke-miterlimit:4;stroke-dasharray:none;stroke-opacity:1"
         d="m 73.9044,109.8837 0.9484,1.1232 c 0.3564,0.3135 1.0127,-0.1874 0.9233,-0.4217 l -0.4307,-1.4338 0.2717,0.035 0.3189,1.0158 c 0.097,0.4317 0.9884,0.1765 1.0158,-0.059 l 0.095,-1.2048 -0.1771,-0.319 -2.4923,0.6851 z"
         id="path7709"
         inkscape:connector-curvature="0"
         sodipodi:nodetypes="ccccccccccc" />
      <path
         style="fill:#002236;fill-opacity:1;stroke:none;stroke-width:0.3250356px;stroke-linecap:butt;stroke-linejoin:miter;stroke-opacity:1"
         d="m 81.4619,133.6067 -0.7798,0.5541 c 0.5198,-0.019 1.1678,-0.1924 1.5308,0.041 l 0.7676,-0.4925 c -0.3691,-0.1759 -0.8595,-0.2264 -1.5186,-0.1026 z"
         id="path7711"
         inkscape:connector-curvature="0"
         sodipodi:nodetypes="ccccc" />
      <path
         style="fill:#002236;fill-opacity:1;stroke:none;stroke-width:0.39992461px;stroke-linecap:butt;stroke-linejoin:miter;stroke-opacity:1"
         d="m 82.9131,134.3708 1.1099,0.1183 -0.2517,-0.3228 0.2273,-0.4644 c -0.3664,0.2186 -0.7746,0.3983 -1.0855,0.6689 z"
         id="path7713"
         inkscape:connector-curvature="0"
         sodipodi:nodetypes="ccccc" />
      <path
         style="fill:#002236;fill-opacity:1;stroke:none;stroke-width:0.3606863px;stroke-linecap:butt;stroke-linejoin:miter;stroke-opacity:1"
         d="m 82.4311,135.1422 0.3581,0.6036 c 0.1068,-0.1126 0.2551,-0.3179 0.359,-0.4324 0.1035,-0.1135 0.1441,-0.1765 0.1884,-0.3332 -0.185,-0.029 -0.38,0.01 -0.9055,0.1623 z"
         id="path7715"
         inkscape:connector-curvature="0"
         sodipodi:nodetypes="ccsccc" />
      <path
         inkscape:connector-curvature="0"
         id="path7717"
         d="m 80.7066,134.9695 0.3426,0.1674 0.4726,0.1644 0.6579,-0.4414 c 0.2388,-0.4418 -0.9769,-0.1822 -1.4737,0.1095 z"
         style="fill:#002236;fill-opacity:1;stroke:none;stroke-width:0.48934653px;stroke-linecap:butt;stroke-linejoin:miter;stroke-opacity:1"
         sodipodi:nodetypes="cccccc" />
      <path
         style="fill:#a2cb41;fill-opacity:1;stroke:none;stroke-width:0.26458332px;stroke-linecap:butt;stroke-linejoin:miter;stroke-opacity:1"
         d="m 85.8167,106.848 c 0.8248,-0.1569 2.054,-0.071 2.8853,0.3106 l -0.3812,-1.539 -0.874,-0.6969 -1.1221,0.3898 z"
         id="path7719"
         inkscape:connector-curvature="0"
         sodipodi:nodetypes="cccccc" />
      <path
         style="fill:#a2cb41;fill-opacity:1;stroke:none;stroke-width:0.26458332px;stroke-linecap:butt;stroke-linejoin:miter;stroke-opacity:1"
         d="m 90.6359,106.4918 -0.2785,0.7441 c 0.9611,-0.12 1.8257,-0.041 2.7509,0.4512 l -0.5352,-1.3607 -0.7324,-0.5197 -0.8268,0.071 z"
         id="path7721"
         inkscape:connector-curvature="0"
         sodipodi:nodetypes="ccccccc" />
      <path
         style="fill:#77b52a;fill-opacity:1;stroke:none;stroke-width:0.00264583;stroke-linecap:butt;stroke-linejoin:miter;stroke-miterlimit:4;stroke-dasharray:none;stroke-opacity:1"
         d="m 78.6992,116.4097 c 0.4443,0.032 0.5207,0.4022 0.3186,0.602 -0.1,0.052 -0.2145,0.067 -0.3312,0.068 -0.2933,-0.01 -0.2226,-0.6637 0.013,-0.6697 z"
         id="path7723"
         inkscape:connector-curvature="0"
         sodipodi:nodetypes="cccc" />
      <path
         sodipodi:nodetypes="cccc"
         inkscape:connector-curvature="0"
         id="path7725"
         d="m 78.714,117.3432 c 0.2424,-0.3353 0.709,-0.1007 0.6126,0.2301 -0.071,0.1647 -0.1408,0.189 -0.3842,0.2414 -0.2151,0.025 -0.3234,-0.3466 -0.2284,-0.4715 z"
         style="fill:#77b52a;fill-opacity:1;stroke:none;stroke-width:0.00264583;stroke-linecap:butt;stroke-linejoin:miter;stroke-miterlimit:4;stroke-dasharray:none;stroke-opacity:1" />
      <path
         style="fill:#77b52a;fill-opacity:1;stroke:none;stroke-width:0.00216001;stroke-linecap:butt;stroke-linejoin:miter;stroke-miterlimit:4;stroke-dasharray:none;stroke-opacity:1"
         d="m 79.0279,117.9772 c 0.2265,-0.212 0.5766,-0.1453 0.5656,0.1956 -0.01,0.1003 -0.076,0.1695 -0.166,0.2499 -0.1255,0.1102 -0.5705,-0.2546 -0.3996,-0.4455 z"
         id="path7727"
         inkscape:connector-curvature="0"
         sodipodi:nodetypes="cccc"
         inkscape:transform-center-x="0.036153713"
         inkscape:transform-center-y="0.0374367" />
      <ellipse
         style="opacity:1;fill:#000000;fill-opacity:1;stroke:none;stroke-width:0.07054523;stroke-linecap:round;stroke-linejoin:round;stroke-miterlimit:4;stroke-dasharray:none;stroke-dashoffset:0;stroke-opacity:1"
         id="ellipse7729"
         cx="78.985313"
         cy="107.48895"
         rx="0.21793035"
         ry="0.31407607" />
    </g>
  </g>
</svg>
