<?xml version="1.0" encoding="UTF-8" standalone="no"?>
<!-- Created with Inkscape (http://www.inkscape.org/) -->

<svg
   xmlns:dc="http://purl.org/dc/elements/1.1/"
   xmlns:cc="http://creativecommons.org/ns#"
   xmlns:rdf="http://www.w3.org/1999/02/22-rdf-syntax-ns#"
   xmlns:svg="http://www.w3.org/2000/svg"
   xmlns="http://www.w3.org/2000/svg"
   xmlns:sodipodi="http://sodipodi.sourceforge.net/DTD/sodipodi-0.dtd"
   xmlns:inkscape="http://www.inkscape.org/namespaces/inkscape"
   width="37.191353mm"
   height="35.039246mm"
   viewBox="0 0 37.191353 35.039246"
   version="1.1"
   id="svg3705"
   inkscape:version="0.92.5 (2060ec1f9f, 2020-04-08)"
   sodipodi:docname="loading-illustration-dark.svg">
  <defs
     id="defs3699" />
  <sodipodi:namedview
     id="base"
     pagecolor="#ffffff"
     bordercolor="#666666"
     borderopacity="1.0"
     inkscape:pageopacity="0.0"
     inkscape:pageshadow="2"
     inkscape:zoom="5.6"
     inkscape:cx="47.200767"
     inkscape:cy="63.534516"
     inkscape:document-units="mm"
     inkscape:current-layer="layer1"
     showgrid="false"
     fit-margin-top="0"
     fit-margin-left="0"
     fit-margin-right="0"
     fit-margin-bottom="0"
     inkscape:window-width="1848"
     inkscape:window-height="1016"
     inkscape:window-x="72"
     inkscape:window-y="1107"
     inkscape:window-maximized="1" />
  <metadata
     id="metadata3702">
    <rdf:RDF>
      <cc:Work
         rdf:about="">
        <dc:format>image/svg+xml</dc:format>
        <dc:type
           rdf:resource="http://purl.org/dc/dcmitype/StillImage" />
        <dc:title></dc:title>
      </cc:Work>
    </rdf:RDF>
  </metadata>
  <g
     inkscape:label="Layer 1"
     inkscape:groupmode="layer"
     id="layer1"
     transform="translate(-108.9594,-98.41595)">
    <path
       sodipodi:nodetypes="cacacscscscscscscscscscscccccccc"
       inkscape:connector-curvature="0"
       id="path3583"
       d="m 131.29194,105.57955 c 0,0 0.9747,0.58002 1.0127,1.06951 0.049,0.62645 -1.0695,1.55221 -1.0695,1.55221 0,0 0.9966,0.43695 1.0316,0.88968 0.047,0.60694 -1.183,1.39132 -1.183,1.39132 0,0 0.9231,0.89859 0.9075,1.24377 -0.016,0.34725 -1.2563,1.16255 -1.2563,1.16255 0,0 1.1725,0.79774 1.2015,1.13337 0.02,0.23555 -1.1456,1.05624 -1.1456,1.05624 0,0 1.1275,0.84735 1.1422,1.08071 0.032,0.51509 -1.1993,1.06999 -1.1993,1.06999 0,0 1.2846,0.68651 1.309,0.93184 0.035,0.35402 -0.7763,1.45897 -0.7763,1.45897 0,0 1.2511,-0.0212 1.4054,0.174 0.2508,0.31726 -0.2275,1.99439 -0.2275,1.99439 0,0 1.0784,-1.03813 1.4724,-0.96374 0.309,0.0583 0.761,1.52475 0.761,1.52475 0,0 0.467,-1.57577 0.7782,-1.71213 0.1917,-0.084 1.4189,0.91019 1.4189,0.91019 0,0 0.072,-1.52229 0.2944,-1.67314 0.2129,-0.14424 1.6197,0.16061 1.6197,0.16061 0,0 -0.065,-1.09124 0.107,-1.23141 0.2133,-0.17361 1.1913,0.0669 1.1913,0.0669 0,0 -0.057,-1.24821 0.1874,-1.41882 0.2118,-0.14812 1.1377,0.28109 1.1377,0.28109 l -2.4896,3.43996 -4.5777,2.04793 -3.2392,-0.81651 -1.3251,-2.03453 0.281,-12.70245 0.589,-1.17789 z"
       style="fill:#34a13c;fill-opacity:1;stroke:none;stroke-width:0.14991298;stroke-linecap:butt;stroke-linejoin:round;stroke-miterlimit:4;stroke-dasharray:none;stroke-opacity:1" />
    <ellipse
       style="opacity:1;fill:#2b373b;fill-opacity:1;stroke:none;stroke-width:0.09955752;stroke-linecap:round;stroke-linejoin:round;stroke-miterlimit:4;stroke-dasharray:none;stroke-dashoffset:0;stroke-opacity:1"
       id="ellipse3587"
       cx="127.55508"
       cy="129.91167"
       rx="18.595676"
       ry="3.5435269" />
    <path
       style="fill:#699f27;fill-opacity:1;stroke:none;stroke-width:0.08629426;stroke-linecap:butt;stroke-linejoin:miter;stroke-miterlimit:4;stroke-dasharray:none;stroke-opacity:1"
       d="m 124.79014,125.246 -1.26091,3.12206 -2.12026,0.42372 c -0.17121,-0.0118 -0.25742,-0.10367 -0.11928,-0.32856 l 0.2209,-0.30253 -1.03687,-0.13103 c -0.4668,-0.11413 -0.42458,-0.54519 -0.0753,-0.59493 l 0.7723,-0.19866 -0.47672,-0.23434 c -0.51316,-0.24873 -0.12494,-0.52308 0.12065,-0.47062 l 1.31605,0.14428 1.21522,-2.7908 1.64861,0.78427 z"
       id="path3589"
       inkscape:connector-curvature="0"
       sodipodi:nodetypes="cccccccccccccc" />
    <path
       style="fill:#93bd31;fill-opacity:1;stroke:none;stroke-width:0.28330019;stroke-linecap:butt;stroke-linejoin:round;stroke-miterlimit:4;stroke-dasharray:none;stroke-opacity:1"
       d="M 59.373047 0.00390625 C 56.418193 -0.098540862 53.268009 2.4612736 52.755859 4.71875 C 51.649554 9.2140294 51.979493 9.8195015 51.683594 13.662109 C 48.709899 13.650771 46.134365 13.861758 42.347656 13.804688 C 39.300563 11.707087 35.015501 3.8905262 30.828125 10.621094 C 27.649202 4.4342112 24.629352 9.1741156 24.388672 11.228516 C 23.734058 15.669612 22.916253 20.193502 28.039062 21.746094 C 27.947976 25.487297 29.064265 28.017184 31.400391 29.330078 L 41.480469 32.378906 L 41.482422 32.378906 L 42.990234 32.833984 L 41.615234 39.214844 L 40.617188 43.853516 L 40.507812 44.375 C 40.092405 47.232663 39.842763 48.203302 39.089844 53.408203 C 38.984017 54.149784 39.026688 53.703753 38.890625 54.695312 C 38.803696 55.461763 38.852755 56.630785 38.830078 57.572266 C 38.780944 59.332429 38.709365 61.027619 38.720703 62.951172 C 38.720703 64.27892 38.593571 65.265411 38.646484 66.664062 C 38.688437 67.728831 38.645582 68.712808 38.736328 69.806641 C 38.81532 70.962307 38.774344 72.023799 38.90625 73.203125 C 39.155699 75.384593 39.490703 77.591138 39.970703 79.773438 C 40.23905 80.985532 40.402915 82.216063 40.757812 83.402344 C 41.644792 86.369764 42.781631 89.245364 44.332031 91.849609 C 45.140094 93.207556 45.989697 94.539302 47.011719 95.738281 C 47.641048 96.476801 48.290383 97.197933 49.007812 97.863281 C 49.011074 97.864571 49.014316 97.865899 49.017578 97.867188 C 51.621989 100.28084 54.804671 102.1995 58.726562 103.35938 C 64.831255 105.25742 70.910057 107.06608 77.185547 107.05273 C 98.928451 107.00662 106.3525 102.20419 113.30078 97.361328 C 124.82354 88.866651 131.61762 69.787529 128.91602 68.675781 C 122.99244 66.246868 90.272105 115.72254 82.554688 72.96875 C 79.615009 52.363484 91.507227 15.889071 78.478516 3.9257812 C 76.312053 2.2349718 72.183291 1.3154263 70.113281 6.2910156 C 69.036494 10.332729 67.931995 9.320068 65.007812 9.2265625 C 64.767057 7.6984995 64.842284 7.5056401 64.353516 5.2519531 C 63.543109 1.8317453 61.83527 0.35967092 59.96875 0.05859375 L 59.960938 0.060546875 C 59.766526 0.029172072 59.570037 0.010736057 59.373047 0.00390625 z M 65.591797 33.740234 C 65.591875 33.74093 65.591719 33.741492 65.591797 33.742188 C 64.579847 33.870313 63.586634 33.982654 62.605469 34.078125 C 61.624303 34.173596 60.655205 34.252203 59.691406 34.308594 C 58.727797 34.365098 57.769832 34.399385 56.808594 34.410156 C 57.769855 34.39929 58.729712 34.363145 59.693359 34.306641 C 60.656969 34.250137 61.624733 34.173586 62.605469 34.078125 C 63.586204 33.982664 64.579942 33.868285 65.591797 33.740234 z M 66.296875 74.394531 C 66.223672 75.521722 66.135503 76.702316 66.054688 77.853516 C 65.926184 79.648224 65.801073 81.441079 65.675781 83.244141 C 65.622868 84.008286 65.589767 84.708006 65.517578 85.529297 L 65.421875 86.126953 C 65.358001 86.517114 65.263091 86.847348 65.1875 87.216797 C 65.000219 88.14 64.769993 88.980895 64.511719 89.761719 C 64.253982 90.540917 63.968348 91.260281 63.662109 91.939453 C 63.968187 91.260245 64.254055 90.540982 64.511719 89.761719 C 64.769672 88.981582 64.998441 88.140993 65.185547 87.21875 C 65.261515 86.849112 65.35567 86.519067 65.419922 86.128906 L 65.513672 85.53125 C 65.585861 84.709996 65.620915 84.010276 65.673828 83.246094 C 65.798553 81.44307 65.923664 79.65014 66.052734 77.855469 C 66.133596 76.703583 66.223633 75.522316 66.296875 74.394531 z M 63.660156 91.941406 C 63.660258 91.941181 63.662008 91.941632 63.662109 91.941406 C 62.900421 93.628928 61.985653 94.972472 60.947266 95.998047 C 60.946242 95.999058 60.944384 95.998989 60.943359 96 C 60.370753 96.565026 59.763961 97.040157 59.132812 97.427734 C 59.763758 97.039873 60.371098 96.56532 60.943359 96 C 61.982352 94.973858 62.898203 93.63025 63.660156 91.941406 z M 59.128906 97.429688 C 58.56101 97.777999 57.970935 98.047283 57.369141 98.263672 C 57.971046 98.046968 58.561046 97.778317 59.128906 97.429688 z "
       transform="matrix(0.26458333,0,0,0.26458333,108.9594,98.41595)"
       id="path2195" />
    <path
       sodipodi:nodetypes="cccccccccccccccc"
       inkscape:connector-curvature="0"
       id="path3585"
       d="m 124.85328,111.04307 c 0,0 -6.12618,1.44772 -6.25678,1.40416 -0.082,0.0255 -1.19356,-0.35622 -1.44236,-0.43593 -0.32733,-0.15938 -0.78316,0.10735 -0.36026,0.46919 l 0.9003,0.58109 -1.20117,-0.11798 c -0.7732,-0.0546 -0.5348,0.67841 0.029,0.66799 l 0.93987,0.0599 -0.8133,0.45016 c -0.2305,0.12251 -0.2799,0.57652 0.1599,0.52278 l 1.0018,-0.14521 -0.5925,0.36047 c -0.3832,0.27914 0.085,0.6865 0.4728,0.48902 l 2.5594,-1.05279 3.2813,-0.94265 z"
       style="fill:#699f27;fill-opacity:1;stroke:none;stroke-width:0.10142651;stroke-linecap:butt;stroke-linejoin:miter;stroke-miterlimit:4;stroke-dasharray:none;stroke-opacity:1" />
    <path
       inkscape:connector-curvature="0"
       id="path3591"
       d="m 119.93436,106.98266 0.39944,0.12042 -0.3638,1.68828 v 0 l -0.26408,1.22729 -0.0289,0.13798 c -0.10991,0.75609 -0.17597,1.01292 -0.37518,2.39005 v 0 c -0.028,0.19621 -0.0167,0.0782 -0.0527,0.34055 -0.023,0.20279 -0.0101,0.51209 -0.0161,0.76119 -0.013,0.46571 -0.0319,0.91423 -0.0289,1.42317 v 0 c 0,0.3513 -0.0336,0.61231 -0.0196,0.98237 v 0 c 0.0111,0.28172 -2.1e-4,0.54206 0.0238,0.83147 0.0209,0.30577 0.0101,0.58663 0.045,0.89866 v 0 c 0.066,0.57718 0.15463,1.16098 0.28163,1.73838 v 0 c 0.071,0.3207 0.11437,0.64629 0.20827,0.96016 v 0 c 0.23468,0.78513 0.53545,1.54597 0.94566,2.23501 0.2138,0.35929 0.4386,0.71163 0.70901,1.02886 0.16651,0.1954 0.33832,0.3862 0.52814,0.56224 0.34019,0.13457 0.69673,0.22905 1.05573,0.25632 0.37261,0.0283 0.74628,-0.009 1.10278,-0.12868 0.17832,-0.0597 0.35204,-0.13962 0.51937,-0.24235 0.16728,-0.10273 0.32836,-0.22842 0.48006,-0.37828 0.2749,-0.2715 0.51722,-0.62699 0.71882,-1.07383 0.16217,-0.35977 0.30458,-0.76152 0.40359,-1.24954 0.0201,-0.0978 0.045,-0.18512 0.062,-0.28835 l 0.0249,-0.15814 c 0.0191,-0.21729 0.0284,-0.40242 0.0424,-0.60461 v 0 c 0.033,-0.47705 0.0661,-0.95142 0.10025,-1.42626 0.023,-0.32764 0.0493,-0.66639 0.0693,-0.98444 0.029,-0.47272 0.081,-1.00407 0.10282,-1.46296 v 0 c 0.0241,-0.5044 0.0298,-1.00049 0.0408,-1.49551 0.0108,-0.48849 0.0398,-0.98713 0.0398,-1.47588 0,-0.42728 -0.0101,-0.86582 -0.0212,-1.30018 v 0 c -0.023,-0.72992 -0.0511,-1.46234 -0.11006,-2.23604 -0.037,-0.4862 -0.09,-1.00256 -0.14365,-1.51723 -0.033,-0.31398 -0.0468,-0.72586 -0.0997,-1.19941 -0.53549,0.0678 -1.05114,0.12002 -1.56115,0.14986 -0.50991,0.0299 -1.01492,0.0371 -1.52961,0.0156 -0.51472,-0.0217 -1.03883,-0.0723 -1.58853,-0.15917 -0.53721,-0.0849 -1.10096,-0.20691 -1.70016,-0.3669 z"
       style="fill:#d3d95d;fill-opacity:1;stroke:none;stroke-width:0.07495651;stroke-linecap:butt;stroke-linejoin:round;stroke-miterlimit:4;stroke-dasharray:none;stroke-opacity:1" />
    <path
       inkscape:connector-curvature="0"
       id="path3593"
       d="m 125.08339,123.81575 c 0.2749,-0.2715 0.51724,-0.62699 0.71882,-1.07383 l -5.11389,-0.0243 c 0.21386,0.3593 0.43863,0.71164 0.709,1.02887 z"
       style="fill:#efecc3;fill-opacity:1;stroke:none;stroke-width:0.07495651;stroke-linecap:butt;stroke-linejoin:round;stroke-miterlimit:4;stroke-dasharray:none;stroke-opacity:1" />
    <path
       inkscape:connector-curvature="0"
       id="path3595"
       d="m 126.20581,121.49238 v 0 c 0.0198,-0.0978 0.045,-0.18512 0.062,-0.28835 l 0.0254,-0.15814 c 0.0191,-0.21729 0.0279,-0.40242 0.0419,-0.60461 l -6.80112,-0.91881 c 0.0706,0.3207 0.11441,0.64629 0.20826,0.96016 z"
       style="fill:#efecc3;fill-opacity:1;stroke:none;stroke-width:0.07495651;stroke-linecap:butt;stroke-linejoin:round;stroke-miterlimit:4;stroke-dasharray:none;stroke-opacity:1" />
    <path
       inkscape:connector-curvature="0"
       id="path3597"
       d="m 126.43576,119.01502 v 0 c 0.023,-0.32764 0.0487,-0.66639 0.0687,-0.98444 l -7.29777,-1.14515 c 0.0212,0.30577 0.01,0.58663 0.0455,0.89866 z"
       style="fill:#efecc3;fill-opacity:1;stroke:none;stroke-width:0.07495651;stroke-linecap:butt;stroke-linejoin:round;stroke-miterlimit:4;stroke-dasharray:none;stroke-opacity:1" />
    <path
       inkscape:connector-curvature="0"
       id="path3599"
       d="m 126.60734,116.56762 c 0.0241,-0.5044 0.0298,-1.00049 0.0408,-1.49551 l -7.44503,-5.3e-4 c 0.003,0.35129 -0.0342,0.61231 -0.0201,0.98237 z"
       style="fill:#efecc3;fill-opacity:1;stroke:none;stroke-width:0.07495651;stroke-linecap:butt;stroke-linejoin:round;stroke-miterlimit:4;stroke-dasharray:none;stroke-opacity:1" />
    <path
       inkscape:connector-curvature="0"
       id="path3601"
       d="m 126.68796,113.59623 v 0 c -0.003,-0.42728 -0.007,-0.86582 -0.0212,-1.30018 l -7.36544,0.25063 c -0.0284,0.1962 -0.0169,0.0782 -0.0532,0.34055 -0.0233,0.20279 -0.009,0.5121 -0.0161,0.76119 z"
       style="fill:#efecc3;fill-opacity:1;stroke:none;stroke-width:0.07495651;stroke-linecap:butt;stroke-linejoin:round;stroke-miterlimit:4;stroke-dasharray:none;stroke-opacity:1" />
    <path
       inkscape:connector-curvature="0"
       id="path3603"
       d="m 126.5572,110.06001 c -0.037,-0.4862 -0.0896,-1.00256 -0.14364,-1.51723 l -6.44303,0.24858 -0.26408,1.22729 z"
       style="fill:#efecc3;fill-opacity:1;stroke:none;stroke-width:0.07495651;stroke-linecap:butt;stroke-linejoin:round;stroke-miterlimit:4;stroke-dasharray:none;stroke-opacity:1" />
    <ellipse
       transform="scale(-1,1)"
       ry="1.571138"
       rx="1.1546919"
       cy="101.33938"
       cx="-128.81207"
       id="ellipse3607"
       style="opacity:1;fill:#ffffff;fill-opacity:1;stroke:none;stroke-width:1.16194797;stroke-linecap:round;stroke-linejoin:round;stroke-miterlimit:4;stroke-dasharray:none;stroke-dashoffset:0;stroke-opacity:1" />
    <ellipse
       transform="scale(-1,1)"
       style="opacity:1;fill:#000000;fill-opacity:1;stroke:none;stroke-width:0.58277237;stroke-linecap:round;stroke-linejoin:round;stroke-miterlimit:4;stroke-dasharray:none;stroke-dashoffset:0;stroke-opacity:1"
       id="ellipse3609"
       cx="-128.49126"
       cy="101.55795"
       rx="0.57913309"
       ry="0.7880007" />
    <ellipse
       transform="scale(-1,1)"
       style="opacity:1;fill:#ffffff;fill-opacity:1;stroke:none;stroke-width:1.16194797;stroke-linecap:round;stroke-linejoin:round;stroke-miterlimit:4;stroke-dasharray:none;stroke-dashoffset:0;stroke-opacity:1"
       id="ellipse3611"
       cx="-124.47539"
       cy="100.57642"
       rx="1.1546919"
       ry="1.571138" />
    <ellipse
       transform="scale(-1,1)"
       ry="0.7880007"
       rx="0.57913309"
       cy="100.88483"
       cx="-124.22136"
       id="ellipse3613"
       style="opacity:1;fill:#000000;fill-opacity:1;stroke:none;stroke-width:0.58277237;stroke-linecap:round;stroke-linejoin:round;stroke-miterlimit:4;stroke-dasharray:none;stroke-dashoffset:0;stroke-opacity:1" />
    <path
       sodipodi:nodetypes="cccsccsccssccsscccccccccccccccc"
       inkscape:connector-curvature="0"
       id="path3615"
       d="m 127.98944,104.73182 c 0.7344,1.6694 -0.3833,0.86819 -0.5476,0.45077 l -0.081,0.0223 c 0.4084,2.05652 -0.706,1.47504 -0.8885,0.92132 -0.038,-0.11358 -0.1527,-0.54426 -0.1672,-0.63189 l -0.4382,0.0387 c 0.1434,1.53301 -0.6438,1.17437 -0.8028,0.41811 -0.02,-0.0925 -0.023,-0.25065 -0.02,-0.35032 l -1.0222,0.0645 c 0.011,0.20208 0.038,0.50902 0.01,0.64919 -0.1261,0.62793 -0.6761,0.47328 -0.7205,-0.0337 -0.012,-0.12984 -0.058,-0.51429 -0.043,-0.66845 l -1.0246,-0.12776 c -0.028,0.20452 -0.085,0.47081 -0.124,0.60936 -0.1317,0.46392 -0.606,0.42299 -0.6545,-0.06 -0.017,-0.17268 0.035,-0.47399 0.079,-0.68979 l -1.0211,-0.24914 -0.04,0.45366 c -0.068,0.75019 -0.8677,0.61295 -0.7879,-0.0433 l 0.062,-0.63229 -0.9009,-0.18898 -0.091,0.63694 c -0.098,0.37795 -0.8193,0.60333 -0.7568,-0.32118 l 0.074,-0.55544 -0.3441,-0.0713 -0.074,0.66711 c -0.095,0.73549 -1.067,0.77852 -0.9112,-0.30999 l 0.096,-0.61453 0.1915,-0.55469 10.2172,-0.21914 z"
       style="fill:#ffffff;stroke:none;stroke-width:0.03768452;stroke-linecap:butt;stroke-linejoin:miter;stroke-miterlimit:4;stroke-dasharray:none;stroke-opacity:1" />
    <path
       sodipodi:nodetypes="ccccc"
       inkscape:connector-curvature="0"
       id="path3617"
       d="m 116.42794,104.11904 c 5.191,1.29394 10.2073,2.91801 11.7098,0.28396 l -0.451,-1.68713 -10.4904,0.56794 z"
       style="fill:#93bd31;fill-opacity:1;stroke:none;stroke-width:0.26458332px;stroke-linecap:butt;stroke-linejoin:miter;stroke-opacity:1" />
    <path
       sodipodi:nodetypes="ccccc"
       inkscape:connector-curvature="0"
       id="path3619"
       d="m 126.32154,105.67041 c 0.1804,-0.32935 0.2523,-0.56983 0.2861,-0.85169 0.082,-1.3673 -1.0384,-0.81028 -1.2661,-0.0708 -0.2048,0.73961 -0.4043,1.15408 -0.3814,1.08474 0.5055,-0.0737 0.9504,0.11329 1.3614,-0.16225 z"
       style="fill:#ed1b24;fill-opacity:1;stroke:none;stroke-width:0.14024776px;stroke-linecap:butt;stroke-linejoin:miter;stroke-opacity:1" />
    <path
       sodipodi:nodetypes="cc"
       inkscape:connector-curvature="0"
       id="path3621"
       d="m 116.37564,104.16931 c 4.2256,0.49737 9.9955,3.5954 11.7855,-0.009"
       style="fill:none;stroke:#000000;stroke-width:0.15000001;stroke-linecap:round;stroke-linejoin:miter;stroke-miterlimit:4;stroke-dasharray:none;stroke-opacity:1" />
    <path
       style="fill:#93bd31;fill-opacity:1;stroke:none;stroke-width:0.08629426;stroke-linecap:butt;stroke-linejoin:miter;stroke-miterlimit:4;stroke-dasharray:none;stroke-opacity:1"
       d="m 131.32474,126.02853 v 3.59149 l -2.1042,1.35207 c -0.3543,0.17125 -0.4574,-0.12362 -0.3028,-0.33595 l 0.1189,-0.24072 -0.9215,0.11237 c -0.3327,0.0295 -0.7867,0.0571 -0.3915,-0.42401 l 0.6703,-0.54995 -0.721,0.002 c -0.328,0.002 -0.4043,-0.37554 -0.028,-0.4998 l 1.4922,-0.33465 0.045,-5.19446 1.8636,1.28682 z"
       id="path3623"
       inkscape:connector-curvature="0"
       sodipodi:nodetypes="cccccccccccccc" />
    <path
       id="path3625"
       d="m 126.26754,121.20407 0.025,-0.15814 c 0,0.0211 0,0.0375 -0.01,0.0589 -0.01,0.0362 -0.015,0.0637 -0.022,0.0992 z"
       style="fill:#d2d75f;fill-opacity:1;stroke:none;stroke-width:0.15666464px;stroke-linecap:butt;stroke-linejoin:miter;stroke-opacity:1"
       inkscape:connector-curvature="0" />
    <g
       transform="rotate(3.8185088,-47.133025,724.93371)"
       id="g3635">
      <g
         id="g3633"
         transform="rotate(10.525938,89.641565,90.872621)">
        <ellipse
           transform="rotate(10.173267)"
           ry="2.7211788"
           rx="2.1207876"
           cy="74.864799"
           cx="101.83138"
           id="ellipse3627"
           style="opacity:1;fill:#b3f3ff;fill-opacity:0.58673473;stroke:#000000;stroke-width:0.5291667;stroke-linecap:round;stroke-linejoin:round;stroke-miterlimit:4;stroke-dasharray:none;stroke-dashoffset:0;stroke-opacity:1" />
        <ellipse
           transform="rotate(10.173267)"
           style="opacity:1;fill:#ffffff;fill-opacity:1;stroke:none;stroke-width:0.46321058;stroke-linecap:round;stroke-linejoin:round;stroke-miterlimit:4;stroke-dasharray:none;stroke-dashoffset:0;stroke-opacity:1"
           id="ellipse3629"
           cx="101.28764"
           cy="73.553703"
           rx="0.60196918"
           ry="0.7590667" />
        <path
           sodipodi:nodetypes="cccc"
           inkscape:connector-curvature="0"
           id="path3631"
           d="m 86.085899,94.49083 -2.825144,8.1039 c -0.260294,0.95531 1.536807,1.33723 1.672067,0.31204 0.105488,-0.9891 1.723645,-8.385555 1.723645,-8.385555"
           style="fill:#000000;fill-opacity:1;stroke:#000000;stroke-width:0.26458332px;stroke-linecap:butt;stroke-linejoin:miter;stroke-opacity:1" />
      </g>
    </g>
    <path
       style="fill:#93bd31;fill-opacity:1;stroke:none;stroke-width:0.12103026;stroke-linecap:butt;stroke-linejoin:miter;stroke-miterlimit:4;stroke-dasharray:none;stroke-opacity:1"
       d="m 129.71502,111.79776 c 0,0 -3.99341,-1.92932 -4.06253,-2.0783 -0.0892,-0.0501 -0.40733,-1.32192 -0.542,-1.60321 -0.0413,-0.42255 -0.79431,-0.59345 -0.76195,0.0699 l -0.0141,1.12828 -0.7202,-0.78001 c -0.58595,-0.71583 -1.02679,0.0914 -0.55572,0.5725 l 0.47387,0.65915 -0.90313,-0.19535 c -0.30805,-0.13887 -0.82337,0.18062 -0.32283,0.56684 l 0.94656,0.7506 -0.94884,-0.24805 c -0.55611,-0.10395 -0.37534,0.66514 0.11349,0.83982 l 3.00979,1.35902 3.50545,2.07577 z"
       id="path3637"
       inkscape:connector-curvature="0"
       sodipodi:nodetypes="cccccccccccccccc" />
    <path
       sodipodi:nodetypes="ccccccc"
       inkscape:connector-curvature="0"
       id="path3639"
       d="m 123.56847,99.174689 -0.60339,1.586591 c -0.0324,-0.23748 2.43601,-0.780854 2.7839,0.28499 0.17539,-0.41761 -0.14258,-1.512437 -0.14258,-1.512437 l -0.52619,-0.434315 -0.59301,-0.359143 z"
       style="fill:#93bd31;fill-opacity:1;stroke:none;stroke-width:0.26458332px;stroke-linecap:butt;stroke-linejoin:miter;stroke-opacity:1" />
    <path
       sodipodi:nodetypes="ccccccc"
       style="fill:#93bd31;fill-opacity:1;stroke:none;stroke-width:0.26458332px;stroke-linecap:butt;stroke-linejoin:miter;stroke-opacity:1"
       d="m 123.25232,102.26124 -0.26216,-1.30398 c -0.007,-0.11691 2.55545,-0.86432 2.67478,0.3871 0.0699,0.44753 -0.34811,1.05818 -0.34811,1.05818 l -0.61517,0.29509 -0.66195,0.20605 z"
       id="path3641"
       inkscape:connector-curvature="0" />
    <ellipse
       style="opacity:1;fill:#000000;fill-opacity:1;stroke:none;stroke-width:0.08000798;stroke-linecap:round;stroke-linejoin:round;stroke-miterlimit:4;stroke-dasharray:none;stroke-dashoffset:0;stroke-opacity:1"
       id="ellipse2191"
       cx="117.99187"
       cy="101.39645"
       rx="0.24716294"
       ry="0.35620546" />
    <ellipse
       ry="0.31407607"
       rx="0.21793036"
       cy="101.27916"
       cx="116.13358"
       id="ellipse2193"
       style="opacity:1;fill:#000000;fill-opacity:1;stroke:none;stroke-width:0.07054523;stroke-linecap:round;stroke-linejoin:round;stroke-miterlimit:4;stroke-dasharray:none;stroke-dashoffset:0;stroke-opacity:1" />
  </g>
</svg>
