<?xml version="1.0" encoding="UTF-8" standalone="no"?>
<!-- Created with Inkscape (http://www.inkscape.org/) -->

<svg
   xmlns:dc="http://purl.org/dc/elements/1.1/"
   xmlns:cc="http://creativecommons.org/ns#"
   xmlns:rdf="http://www.w3.org/1999/02/22-rdf-syntax-ns#"
   xmlns:svg="http://www.w3.org/2000/svg"
   xmlns="http://www.w3.org/2000/svg"
   xmlns:sodipodi="http://sodipodi.sourceforge.net/DTD/sodipodi-0.dtd"
   xmlns:inkscape="http://www.inkscape.org/namespaces/inkscape"
   width="37.191353mm"
   height="35.039246mm"
   viewBox="0 0 37.191353 35.039246"
   version="1.1"
   id="svg3705"
   inkscape:version="0.92.5 (2060ec1f9f, 2020-04-08)"
   sodipodi:docname="loading-illustration.svg">
  <defs
     id="defs3699" />
  <sodipodi:namedview
     id="base"
     pagecolor="#ffffff"
     bordercolor="#666666"
     borderopacity="1.0"
     inkscape:pageopacity="0.0"
     inkscape:pageshadow="2"
     inkscape:zoom="2.8"
     inkscape:cx="66.464186"
     inkscape:cy="44.52731"
     inkscape:document-units="mm"
     inkscape:current-layer="layer1"
     showgrid="false"
     fit-margin-top="0"
     fit-margin-left="0"
     fit-margin-right="0"
     fit-margin-bottom="0"
     inkscape:window-width="1848"
     inkscape:window-height="1016"
     inkscape:window-x="72"
     inkscape:window-y="1107"
     inkscape:window-maximized="1" />
  <metadata
     id="metadata3702">
    <rdf:RDF>
      <cc:Work
         rdf:about="">
        <dc:format>image/svg+xml</dc:format>
        <dc:type
           rdf:resource="http://purl.org/dc/dcmitype/StillImage" />
        <dc:title></dc:title>
      </cc:Work>
    </rdf:RDF>
  </metadata>
  <g
     inkscape:label="Layer 1"
     inkscape:groupmode="layer"
     id="layer1"
     transform="translate(-108.9594,-98.41595)">
    <path
       sodipodi:nodetypes="cacacscscscscscscscscscscccccccc"
       inkscape:connector-curvature="0"
       id="path3583"
       d="m 131.29194,105.57955 c 0,0 0.9747,0.58002 1.0127,1.06951 0.049,0.62645 -1.0695,1.55221 -1.0695,1.55221 0,0 0.9966,0.43695 1.0316,0.88968 0.047,0.60694 -1.183,1.39132 -1.183,1.39132 0,0 0.9231,0.89859 0.9075,1.24377 -0.016,0.34725 -1.2563,1.16255 -1.2563,1.16255 0,0 1.1725,0.79774 1.2015,1.13337 0.02,0.23555 -1.1456,1.05624 -1.1456,1.05624 0,0 1.1275,0.84735 1.1422,1.08071 0.032,0.51509 -1.1993,1.06999 -1.1993,1.06999 0,0 1.2846,0.68651 1.309,0.93184 0.035,0.35402 -0.7763,1.45897 -0.7763,1.45897 0,0 1.2511,-0.0212 1.4054,0.174 0.2508,0.31726 -0.2275,1.99439 -0.2275,1.99439 0,0 1.0784,-1.03813 1.4724,-0.96374 0.309,0.0583 0.761,1.52475 0.761,1.52475 0,0 0.467,-1.57577 0.7782,-1.71213 0.1917,-0.084 1.4189,0.91019 1.4189,0.91019 0,0 0.072,-1.52229 0.2944,-1.67314 0.2129,-0.14424 1.6197,0.16061 1.6197,0.16061 0,0 -0.065,-1.09124 0.107,-1.23141 0.2133,-0.17361 1.1913,0.0669 1.1913,0.0669 0,0 -0.057,-1.24821 0.1874,-1.41882 0.2118,-0.14812 1.1377,0.28109 1.1377,0.28109 l -2.4896,3.43996 -4.5777,2.04793 -3.2392,-0.81651 -1.3251,-2.03453 0.281,-12.70245 0.589,-1.17789 z"
       style="fill:#34a13c;fill-opacity:1;stroke:none;stroke-width:0.14991298;stroke-linecap:butt;stroke-linejoin:round;stroke-miterlimit:4;stroke-dasharray:none;stroke-opacity:1" />
    <path
       sodipodi:nodetypes="cccccccccccccccc"
       inkscape:connector-curvature="0"
       id="path3585"
       d="m 124.85328,111.04307 c 0,0 -6.12618,1.44772 -6.25678,1.40416 -0.082,0.0255 -1.19356,-0.35622 -1.44236,-0.43593 -0.32733,-0.15938 -0.78316,0.10735 -0.36026,0.46919 l 0.9003,0.58109 -1.20117,-0.11798 c -0.7732,-0.0546 -0.5348,0.67841 0.029,0.66799 l 0.93987,0.0599 -0.8133,0.45016 c -0.2305,0.12251 -0.2799,0.57652 0.1599,0.52278 l 1.0018,-0.14521 -0.5925,0.36047 c -0.3832,0.27914 0.085,0.6865 0.4728,0.48902 l 2.5594,-1.05279 3.2813,-0.94265 z"
       style="fill:#71b41f;fill-opacity:1;stroke:none;stroke-width:0.10142651;stroke-linecap:butt;stroke-linejoin:miter;stroke-miterlimit:4;stroke-dasharray:none;stroke-opacity:1" />
    <ellipse
       style="opacity:1;fill:#eaeaea;fill-opacity:1;stroke:none;stroke-width:0.09955752;stroke-linecap:round;stroke-linejoin:round;stroke-miterlimit:4;stroke-dasharray:none;stroke-dashoffset:0;stroke-opacity:1"
       id="ellipse3587"
       cx="127.55508"
       cy="129.91167"
       rx="18.595676"
       ry="3.5435269" />
    <path
       style="fill:#71b41f;fill-opacity:1;stroke:none;stroke-width:0.08629426;stroke-linecap:butt;stroke-linejoin:miter;stroke-miterlimit:4;stroke-dasharray:none;stroke-opacity:1"
       d="m 124.79014,125.246 -1.26091,3.12206 -2.12026,0.42372 c -0.17121,-0.0118 -0.25742,-0.10367 -0.11928,-0.32856 l 0.2209,-0.30253 -1.03687,-0.13103 c -0.4668,-0.11413 -0.42458,-0.54519 -0.0753,-0.59493 l 0.7723,-0.19866 -0.47672,-0.23434 c -0.51316,-0.24873 -0.12494,-0.52308 0.12065,-0.47062 l 1.31605,0.14428 1.21522,-2.7908 1.64861,0.78427 z"
       id="path3589"
       inkscape:connector-curvature="0"
       sodipodi:nodetypes="cccccccccccccc" />
    <path
       inkscape:connector-curvature="0"
       id="path3591"
       d="m 119.93436,106.98266 0.39944,0.12042 -0.3638,1.68828 v 0 l -0.26408,1.22729 -0.0289,0.13798 c -0.10991,0.75609 -0.17597,1.01292 -0.37518,2.39005 v 0 c -0.028,0.19621 -0.0167,0.0782 -0.0527,0.34055 -0.023,0.20279 -0.0101,0.51209 -0.0161,0.76119 -0.013,0.46571 -0.0319,0.91423 -0.0289,1.42317 v 0 c 0,0.3513 -0.0336,0.61231 -0.0196,0.98237 v 0 c 0.0111,0.28172 -2.1e-4,0.54206 0.0238,0.83147 0.0209,0.30577 0.0101,0.58663 0.045,0.89866 v 0 c 0.066,0.57718 0.15463,1.16098 0.28163,1.73838 v 0 c 0.071,0.3207 0.11437,0.64629 0.20827,0.96016 v 0 c 0.23468,0.78513 0.53545,1.54597 0.94566,2.23501 0.2138,0.35929 0.4386,0.71163 0.70901,1.02886 0.16651,0.1954 0.33832,0.3862 0.52814,0.56224 0.34019,0.13457 0.69673,0.22905 1.05573,0.25632 0.37261,0.0283 0.74628,-0.009 1.10278,-0.12868 0.17832,-0.0597 0.35204,-0.13962 0.51937,-0.24235 0.16728,-0.10273 0.32836,-0.22842 0.48006,-0.37828 0.2749,-0.2715 0.51722,-0.62699 0.71882,-1.07383 0.16217,-0.35977 0.30458,-0.76152 0.40359,-1.24954 0.0201,-0.0978 0.045,-0.18512 0.062,-0.28835 l 0.0249,-0.15814 c 0.0191,-0.21729 0.0284,-0.40242 0.0424,-0.60461 v 0 c 0.033,-0.47705 0.0661,-0.95142 0.10025,-1.42626 0.023,-0.32764 0.0493,-0.66639 0.0693,-0.98444 0.029,-0.47272 0.081,-1.00407 0.10282,-1.46296 v 0 c 0.0241,-0.5044 0.0298,-1.00049 0.0408,-1.49551 0.0108,-0.48849 0.0398,-0.98713 0.0398,-1.47588 0,-0.42728 -0.0101,-0.86582 -0.0212,-1.30018 v 0 c -0.023,-0.72992 -0.0511,-1.46234 -0.11006,-2.23604 -0.037,-0.4862 -0.09,-1.00256 -0.14365,-1.51723 -0.033,-0.31398 -0.0468,-0.72586 -0.0997,-1.19941 -0.53549,0.0678 -1.05114,0.12002 -1.56115,0.14986 -0.50991,0.0299 -1.01492,0.0371 -1.52961,0.0156 -0.51472,-0.0217 -1.03883,-0.0723 -1.58853,-0.15917 -0.53721,-0.0849 -1.10096,-0.20691 -1.70016,-0.3669 z"
       style="fill:#d3d95d;fill-opacity:1;stroke:none;stroke-width:0.07495651;stroke-linecap:butt;stroke-linejoin:round;stroke-miterlimit:4;stroke-dasharray:none;stroke-opacity:1" />
    <path
       inkscape:connector-curvature="0"
       id="path3593"
       d="m 125.08339,123.81575 c 0.2749,-0.2715 0.51724,-0.62699 0.71882,-1.07383 l -5.11389,-0.0243 c 0.21386,0.3593 0.43863,0.71164 0.709,1.02887 z"
       style="fill:#efecc3;fill-opacity:1;stroke:none;stroke-width:0.07495651;stroke-linecap:butt;stroke-linejoin:round;stroke-miterlimit:4;stroke-dasharray:none;stroke-opacity:1" />
    <path
       inkscape:connector-curvature="0"
       id="path3595"
       d="m 126.20581,121.49238 v 0 c 0.0198,-0.0978 0.045,-0.18512 0.062,-0.28835 l 0.0254,-0.15814 c 0.0191,-0.21729 0.0279,-0.40242 0.0419,-0.60461 l -6.80112,-0.91881 c 0.0706,0.3207 0.11441,0.64629 0.20826,0.96016 z"
       style="fill:#efecc3;fill-opacity:1;stroke:none;stroke-width:0.07495651;stroke-linecap:butt;stroke-linejoin:round;stroke-miterlimit:4;stroke-dasharray:none;stroke-opacity:1" />
    <path
       inkscape:connector-curvature="0"
       id="path3597"
       d="m 126.43576,119.01502 v 0 c 0.023,-0.32764 0.0487,-0.66639 0.0687,-0.98444 l -7.29777,-1.14515 c 0.0212,0.30577 0.01,0.58663 0.0455,0.89866 z"
       style="fill:#efecc3;fill-opacity:1;stroke:none;stroke-width:0.07495651;stroke-linecap:butt;stroke-linejoin:round;stroke-miterlimit:4;stroke-dasharray:none;stroke-opacity:1" />
    <path
       inkscape:connector-curvature="0"
       id="path3599"
       d="m 126.60734,116.56762 c 0.0241,-0.5044 0.0298,-1.00049 0.0408,-1.49551 l -7.44503,-5.3e-4 c 0.003,0.35129 -0.0342,0.61231 -0.0201,0.98237 z"
       style="fill:#efecc3;fill-opacity:1;stroke:none;stroke-width:0.07495651;stroke-linecap:butt;stroke-linejoin:round;stroke-miterlimit:4;stroke-dasharray:none;stroke-opacity:1" />
    <path
       inkscape:connector-curvature="0"
       id="path3601"
       d="m 126.68796,113.59623 v 0 c -0.003,-0.42728 -0.007,-0.86582 -0.0212,-1.30018 l -7.36544,0.25063 c -0.0284,0.1962 -0.0169,0.0782 -0.0532,0.34055 -0.0233,0.20279 -0.009,0.5121 -0.0161,0.76119 z"
       style="fill:#efecc3;fill-opacity:1;stroke:none;stroke-width:0.07495651;stroke-linecap:butt;stroke-linejoin:round;stroke-miterlimit:4;stroke-dasharray:none;stroke-opacity:1" />
    <path
       inkscape:connector-curvature="0"
       id="path3603"
       d="m 126.5572,110.06001 c -0.037,-0.4862 -0.0896,-1.00256 -0.14364,-1.51723 l -6.44303,0.24858 -0.26408,1.22729 z"
       style="fill:#efecc3;fill-opacity:1;stroke:none;stroke-width:0.07495651;stroke-linecap:butt;stroke-linejoin:round;stroke-miterlimit:4;stroke-dasharray:none;stroke-opacity:1" />
    <path
       sodipodi:nodetypes="cccccccccccccccccccccccccccccccccscccccccccccccc"
       inkscape:connector-curvature="0"
       id="path3605"
       d="m 124.82397,98.431784 c -0.82301,-0.13282 -1.76178,0.59537 -1.90632,1.23248 -0.29271,1.189376 -0.20543,1.349556 -0.28372,2.366246 -0.78679,-0.003 -1.46822,0.0528 -2.47012,0.0377 -0.80621,-0.55499 -1.93998,-2.623126 -3.04789,-0.84233 -0.84109,-1.636946 -1.64008,-0.38285 -1.70376,0.16071 -0.1732,1.17504 -0.38958,2.37199 0.96583,2.78278 -0.0241,0.98986 0.27125,1.65923 0.88935,2.0066 l 2.66753,0.80666 c 0.59914,0.16 1.16302,0.282 1.70015,0.3669 0.54973,0.0869 1.07387,0.13745 1.58854,0.15918 0.51466,0.0217 1.0197,0.0143 1.52963,-0.0156 0.50991,-0.0299 1.02518,-0.0821 1.56062,-0.14986 0.053,0.47355 0.0667,0.88542 0.0998,1.1994 0.054,0.51467 0.10665,1.03103 0.14364,1.51723 0.059,0.77371 0.0872,1.50613 0.11007,2.23604 0.014,0.43436 0.0193,0.8729 0.0212,1.30018 v 0 c 0,0.48875 -0.0288,0.98739 -0.0398,1.47588 -0.0111,0.49502 -0.0169,0.99113 -0.0408,1.49552 v 0 c -0.022,0.45888 -0.074,0.99024 -0.10282,1.46295 -0.0201,0.31804 -0.0457,0.6568 -0.0687,0.98443 v 0 c -0.034,0.47485 -0.0671,0.94922 -0.10025,1.42628 -0.014,0.20218 -0.0228,0.38732 -0.0419,0.60462 l -0.0254,0.15813 c -0.0169,0.10323 -0.042,0.19059 -0.062,0.28834 v 0 c -0.099,0.48802 -0.24138,0.88977 -0.4036,1.24954 v 5.3e-4 c -0.20153,0.44649 -0.44357,0.80197 -0.71831,1.07332 -0.15174,0.14985 -0.31277,0.27554 -0.48006,0.37827 -0.16732,0.10273 -0.3411,0.18268 -0.51935,0.24236 -0.35653,0.11937 -0.73017,0.15699 -1.10279,0.12868 -0.3589,-0.0273 -0.71551,-0.12176 -1.05574,-0.25632 0.68938,0.63931 1.53191,1.14757 2.57038,1.45469 1.6152,0.50219 3.22355,0.98073 4.88394,0.9772 5.75281,-0.0122 7.71708,-1.28284 9.55548,-2.56418 3.04873,-2.24755 4.84635,-7.29557 4.13155,-7.58972 v 0 c -1.56728,-0.64265 -10.22453,12.44779 -12.26643,1.13585 -0.77779,-5.45181 2.3687,-15.10241 -1.07848,-18.267697 -0.57321,-0.44736 -1.66562,-0.690591 -2.21331,0.625867 -0.2849,1.06937 -0.57713,0.80143 -1.35082,0.77669 -0.0637,-0.4043 -0.0438,-0.45532 -0.17312,-1.051608 -0.21442,-0.90493 -0.6663,-1.2944 -1.16015,-1.37406 z"
       style="fill:#a2cb41;fill-opacity:1;stroke:none;stroke-width:0.07495651;stroke-linecap:butt;stroke-linejoin:round;stroke-miterlimit:4;stroke-dasharray:none;stroke-opacity:1" />
    <ellipse
       transform="scale(-1,1)"
       ry="1.571138"
       rx="1.1546919"
       cy="101.33938"
       cx="-128.81207"
       id="ellipse3607"
       style="opacity:1;fill:#ffffff;fill-opacity:1;stroke:none;stroke-width:1.16194797;stroke-linecap:round;stroke-linejoin:round;stroke-miterlimit:4;stroke-dasharray:none;stroke-dashoffset:0;stroke-opacity:1" />
    <ellipse
       transform="scale(-1,1)"
       style="opacity:1;fill:#000000;fill-opacity:1;stroke:none;stroke-width:0.58277237;stroke-linecap:round;stroke-linejoin:round;stroke-miterlimit:4;stroke-dasharray:none;stroke-dashoffset:0;stroke-opacity:1"
       id="ellipse3609"
       cx="-128.49126"
       cy="101.55795"
       rx="0.57913309"
       ry="0.7880007" />
    <ellipse
       transform="scale(-1,1)"
       style="opacity:1;fill:#ffffff;fill-opacity:1;stroke:none;stroke-width:1.16194797;stroke-linecap:round;stroke-linejoin:round;stroke-miterlimit:4;stroke-dasharray:none;stroke-dashoffset:0;stroke-opacity:1"
       id="ellipse3611"
       cx="-124.47539"
       cy="100.57642"
       rx="1.1546919"
       ry="1.571138" />
    <ellipse
       transform="scale(-1,1)"
       ry="0.7880007"
       rx="0.57913309"
       cy="100.88483"
       cx="-124.22136"
       id="ellipse3613"
       style="opacity:1;fill:#000000;fill-opacity:1;stroke:none;stroke-width:0.58277237;stroke-linecap:round;stroke-linejoin:round;stroke-miterlimit:4;stroke-dasharray:none;stroke-dashoffset:0;stroke-opacity:1" />
    <path
       sodipodi:nodetypes="cccsccsccssccsscccccccccccccccc"
       inkscape:connector-curvature="0"
       id="path3615"
       d="m 127.98944,104.73182 c 0.7344,1.6694 -0.3833,0.86819 -0.5476,0.45077 l -0.081,0.0223 c 0.4084,2.05652 -0.706,1.47504 -0.8885,0.92132 -0.038,-0.11358 -0.1527,-0.54426 -0.1672,-0.63189 l -0.4382,0.0387 c 0.1434,1.53301 -0.6438,1.17437 -0.8028,0.41811 -0.02,-0.0925 -0.023,-0.25065 -0.02,-0.35032 l -1.0222,0.0645 c 0.011,0.20208 0.038,0.50902 0.01,0.64919 -0.1261,0.62793 -0.6761,0.47328 -0.7205,-0.0337 -0.012,-0.12984 -0.058,-0.51429 -0.043,-0.66845 l -1.0246,-0.12776 c -0.028,0.20452 -0.085,0.47081 -0.124,0.60936 -0.1317,0.46392 -0.606,0.42299 -0.6545,-0.06 -0.017,-0.17268 0.035,-0.47399 0.079,-0.68979 l -1.0211,-0.24914 -0.04,0.45366 c -0.068,0.75019 -0.8677,0.61295 -0.7879,-0.0433 l 0.062,-0.63229 -0.9009,-0.18898 -0.091,0.63694 c -0.098,0.37795 -0.8193,0.60333 -0.7568,-0.32118 l 0.074,-0.55544 -0.3441,-0.0713 -0.074,0.66711 c -0.095,0.73549 -1.067,0.77852 -0.9112,-0.30999 l 0.096,-0.61453 0.1915,-0.55469 10.2172,-0.21914 z"
       style="fill:#ffffff;stroke:none;stroke-width:0.03768452;stroke-linecap:butt;stroke-linejoin:miter;stroke-miterlimit:4;stroke-dasharray:none;stroke-opacity:1" />
    <path
       sodipodi:nodetypes="ccccc"
       inkscape:connector-curvature="0"
       id="path3617"
       d="m 116.42794,104.11904 c 5.191,1.29394 10.2073,2.91801 11.7098,0.28396 l -0.451,-1.68713 -10.4904,0.56794 z"
       style="fill:#a2cb41;fill-opacity:1;stroke:none;stroke-width:0.26458332px;stroke-linecap:butt;stroke-linejoin:miter;stroke-opacity:1" />
    <path
       sodipodi:nodetypes="ccccc"
       inkscape:connector-curvature="0"
       id="path3619"
       d="m 126.32154,105.67041 c 0.1804,-0.32935 0.2523,-0.56983 0.2861,-0.85169 0.082,-1.3673 -1.0384,-0.81028 -1.2661,-0.0708 -0.2048,0.73961 -0.4043,1.15408 -0.3814,1.08474 0.5055,-0.0737 0.9504,0.11329 1.3614,-0.16225 z"
       style="fill:#ed1b24;fill-opacity:1;stroke:none;stroke-width:0.14024776px;stroke-linecap:butt;stroke-linejoin:miter;stroke-opacity:1" />
    <path
       sodipodi:nodetypes="cc"
       inkscape:connector-curvature="0"
       id="path3621"
       d="m 116.37564,104.16931 c 4.2256,0.49737 9.9955,3.5954 11.7855,-0.009"
       style="fill:none;stroke:#000000;stroke-width:0.15000001;stroke-linecap:round;stroke-linejoin:miter;stroke-miterlimit:4;stroke-dasharray:none;stroke-opacity:1" />
    <path
       style="fill:#a2cb41;fill-opacity:1;stroke:none;stroke-width:0.08629426;stroke-linecap:butt;stroke-linejoin:miter;stroke-miterlimit:4;stroke-dasharray:none;stroke-opacity:1"
       d="m 131.32474,126.02853 v 3.59149 l -2.1042,1.35207 c -0.3543,0.17125 -0.4574,-0.12362 -0.3028,-0.33595 l 0.1189,-0.24072 -0.9215,0.11237 c -0.3327,0.0295 -0.7867,0.0571 -0.3915,-0.42401 l 0.6703,-0.54995 -0.721,0.002 c -0.328,0.002 -0.4043,-0.37554 -0.028,-0.4998 l 1.4922,-0.33465 0.045,-5.19446 1.8636,1.28682 z"
       id="path3623"
       inkscape:connector-curvature="0"
       sodipodi:nodetypes="cccccccccccccc" />
    <path
       id="path3625"
       d="m 126.26754,121.20407 0.025,-0.15814 c 0,0.0211 0,0.0375 -0.01,0.0589 -0.01,0.0362 -0.015,0.0637 -0.022,0.0992 z"
       style="fill:#d2d75f;fill-opacity:1;stroke:none;stroke-width:0.15666464px;stroke-linecap:butt;stroke-linejoin:miter;stroke-opacity:1"
       inkscape:connector-curvature="0" />
    <g
       transform="rotate(3.8185088,-47.133025,724.93371)"
       id="g3635">
      <g
         id="g3633"
         transform="rotate(10.525938,89.641565,90.872621)">
        <ellipse
           transform="rotate(10.173267)"
           ry="2.7211788"
           rx="2.1207876"
           cy="74.864799"
           cx="101.83138"
           id="ellipse3627"
           style="opacity:1;fill:#b3f3ff;fill-opacity:0.58673473;stroke:#000000;stroke-width:0.5291667;stroke-linecap:round;stroke-linejoin:round;stroke-miterlimit:4;stroke-dasharray:none;stroke-dashoffset:0;stroke-opacity:1" />
        <ellipse
           transform="rotate(10.173267)"
           style="opacity:1;fill:#ffffff;fill-opacity:1;stroke:none;stroke-width:0.46321058;stroke-linecap:round;stroke-linejoin:round;stroke-miterlimit:4;stroke-dasharray:none;stroke-dashoffset:0;stroke-opacity:1"
           id="ellipse3629"
           cx="101.28764"
           cy="73.553703"
           rx="0.60196918"
           ry="0.7590667" />
        <path
           sodipodi:nodetypes="cccc"
           inkscape:connector-curvature="0"
           id="path3631"
           d="m 86.085899,94.49083 -2.825144,8.1039 c -0.260294,0.95531 1.536807,1.33723 1.672067,0.31204 0.105488,-0.9891 1.723645,-8.385555 1.723645,-8.385555"
           style="fill:#000000;fill-opacity:1;stroke:#000000;stroke-width:0.26458332px;stroke-linecap:butt;stroke-linejoin:miter;stroke-opacity:1" />
      </g>
    </g>
    <path
       style="fill:#a2cb41;fill-opacity:1;stroke:none;stroke-width:0.12103026;stroke-linecap:butt;stroke-linejoin:miter;stroke-miterlimit:4;stroke-dasharray:none;stroke-opacity:1"
       d="m 129.71502,111.79776 c 0,0 -3.99341,-1.92932 -4.06253,-2.0783 -0.0892,-0.0501 -0.40733,-1.32192 -0.542,-1.60321 -0.0413,-0.42255 -0.79431,-0.59345 -0.76195,0.0699 l -0.0141,1.12828 -0.7202,-0.78001 c -0.58595,-0.71583 -1.02679,0.0914 -0.55572,0.5725 l 0.47387,0.65915 -0.90313,-0.19535 c -0.30805,-0.13887 -0.82337,0.18062 -0.32283,0.56684 l 0.94656,0.7506 -0.94884,-0.24805 c -0.55611,-0.10395 -0.37534,0.66514 0.11349,0.83982 l 3.00979,1.35902 3.50545,2.07577 z"
       id="path3637"
       inkscape:connector-curvature="0"
       sodipodi:nodetypes="cccccccccccccccc" />
    <path
       sodipodi:nodetypes="ccccccc"
       inkscape:connector-curvature="0"
       id="path3639"
       d="m 123.56847,99.174689 -0.60339,1.586591 c -0.0324,-0.23748 2.43601,-0.780854 2.7839,0.28499 0.17539,-0.41761 -0.14258,-1.512437 -0.14258,-1.512437 l -0.52619,-0.434315 -0.59301,-0.359143 z"
       style="fill:#a2cb41;fill-opacity:1;stroke:none;stroke-width:0.26458332px;stroke-linecap:butt;stroke-linejoin:miter;stroke-opacity:1" />
    <path
       sodipodi:nodetypes="ccccccc"
       style="fill:#a2cb41;fill-opacity:1;stroke:none;stroke-width:0.26458332px;stroke-linecap:butt;stroke-linejoin:miter;stroke-opacity:1"
       d="m 123.25232,102.26124 -0.26216,-1.30398 c -0.007,-0.11691 2.55545,-0.86432 2.67478,0.3871 0.0699,0.44753 -0.34811,1.05818 -0.34811,1.05818 l -0.61517,0.29509 -0.66195,0.20605 z"
       id="path3641"
       inkscape:connector-curvature="0" />
  </g>
</svg>
