<?xml version="1.0" encoding="UTF-8" standalone="no"?>
<svg
   xmlns:dc="http://purl.org/dc/elements/1.1/"
   xmlns:cc="http://creativecommons.org/ns#"
   xmlns:rdf="http://www.w3.org/1999/02/22-rdf-syntax-ns#"
   xmlns:svg="http://www.w3.org/2000/svg"
   xmlns="http://www.w3.org/2000/svg"
   id="svg8"
   version="1.1"
   viewBox="0 0 67.415733 7.7258329"
   height="7.7258329mm"
   width="67.415733mm">
  <defs
     id="defs2" />
  <metadata
     id="metadata5">
    <rdf:RDF>
      <cc:Work
         rdf:about="">
        <dc:format>image/svg+xml</dc:format>
        <dc:type
           rdf:resource="http://purl.org/dc/dcmitype/StillImage" />
        <dc:title></dc:title>
      </cc:Work>
    </rdf:RDF>
  </metadata>
  <g
     transform="translate(205.19572,-123.07048)"
     id="layer1">
    <g
       id="text817"
       style="font-style:normal;font-weight:normal;font-size:10.58333302px;line-height:1.25;font-family:sans-serif;letter-spacing:0px;word-spacing:0px;fill:#000000;fill-opacity:1;stroke:none;stroke-width:0.26458332"
       aria-label="Ohno.finance">
      <path
         id="path821"
         style="font-style:normal;font-variant:normal;font-weight:bold;font-stretch:normal;font-family:'TT Hoves';-inkscape-font-specification:'TT Hoves Bold';stroke-width:0.26458332"
         d="m -199.03622,129.71681 q -1.03716,1.0795 -2.56116,1.0795 -1.524,0 -2.56117,-1.0795 -1.03717,-1.0795 -1.03717,-2.7305 0,-1.651 1.03717,-2.7305 1.03717,-1.0795 2.56117,-1.0795 1.524,0 2.56116,1.0795 1.03717,1.0795 1.03717,2.7305 0,1.651 -1.03717,2.7305 z m -3.92641,-1.15358 q 0.55033,0.59266 1.36525,0.59266 0.81491,0 1.35466,-0.59266 0.55034,-0.60325 0.55034,-1.57692 0,-0.97367 -0.55034,-1.56633 -0.53975,-0.60325 -1.35466,-0.60325 -0.81492,0 -1.36525,0.60325 -0.53975,0.59266 -0.53975,1.56633 0,0.97367 0.53975,1.57692 z" />
      <path
         id="path823"
         style="font-style:normal;font-variant:normal;font-weight:bold;font-stretch:normal;font-family:'TT Hoves';-inkscape-font-specification:'TT Hoves Bold';stroke-width:0.26458332"
         d="m -196.88782,130.69048 v -7.40834 h 1.5875 v 2.43417 h 0.0529 q 0.17992,-0.17992 0.32808,-0.26458 0.46567,-0.26459 1.04775,-0.26459 0.9525,0 1.55575,0.62442 0.61384,0.61383 0.61384,1.59808 v 3.28084 h -1.5875 v -2.96334 q 0,-0.4445 -0.28575,-0.71966 -0.27517,-0.28575 -0.71967,-0.28575 -0.4445,0 -0.73025,0.28575 -0.27517,0.27516 -0.27517,0.71966 v 2.96334 z" />
      <path
         id="path825"
         style="font-style:normal;font-variant:normal;font-weight:bold;font-stretch:normal;font-family:'TT Hoves';-inkscape-font-specification:'TT Hoves Bold';stroke-width:0.26458332"
         d="m -190.48492,130.69048 v -5.3975 h 1.37584 l 0.10583,0.47625 h 0.0529 q 0.127,-0.14817 0.35983,-0.28575 0.45508,-0.29634 1.12183,-0.29634 0.9525,0 1.55575,0.62442 0.61384,0.61383 0.61384,1.59808 v 3.28084 h -1.5875 v -2.96334 q 0,-0.4445 -0.28575,-0.71966 -0.27517,-0.28575 -0.71967,-0.28575 -0.4445,0 -0.73025,0.28575 -0.27517,0.27516 -0.27517,0.71966 v 2.96334 z" />
      <path
         id="path827"
         style="font-style:normal;font-variant:normal;font-weight:bold;font-stretch:normal;font-family:'TT Hoves';-inkscape-font-specification:'TT Hoves Bold';stroke-width:0.26458332"
         d="m -179.53117,130.01314 q -0.78317,0.78317 -2.01083,0.78317 -1.22767,0 -2.02142,-0.78317 -0.78317,-0.79375 -0.78317,-2.02141 0,-1.22767 0.78317,-2.01084 0.79375,-0.79375 2.02142,-0.79375 1.22766,0 2.01083,0.79375 0.79375,0.78317 0.79375,2.01084 0,1.22766 -0.79375,2.02141 z m -2.88925,-1.05833 q 0.34925,0.35983 0.87842,0.35983 0.52916,0 0.86783,-0.35983 0.34925,-0.37042 0.34925,-0.96308 0,-0.59267 -0.34925,-0.9525 -0.33867,-0.37042 -0.86783,-0.37042 -0.52917,0 -0.87842,0.37042 -0.33867,0.35983 -0.33867,0.9525 0,0.59266 0.33867,0.96308 z" />
      <path
         id="path829"
         style="font-style:normal;font-variant:normal;font-weight:bold;font-stretch:normal;font-family:'TT Hoves';-inkscape-font-specification:'TT Hoves Bold';stroke-width:0.26458332"
         d="m -177.73202,130.69048 v -1.74625 h 1.74625 v 1.74625 z" />
      <path
         id="path831"
         style="font-style:normal;font-variant:normal;font-weight:bold;font-stretch:normal;font-family:'TT Hoves';-inkscape-font-specification:'TT Hoves Bold';stroke-width:0.26458332"
         d="m -174.1866,130.69048 v -3.91584 h -0.84667 v -1.48166 h 0.84667 v -0.74084 q 0,-1.48166 1.53458,-1.48166 h 1.00542 v 1.32291 h -0.58209 q -0.37041,0 -0.37041,0.37042 v 0.52917 h 3.28083 v 5.3975 h -1.5875 v -3.91584 h -1.69333 v 3.91584 z m 3.28083,-6.24417 v -1.37583 h 1.5875 v 1.37583 z" />
      <path
         id="path833"
         style="font-style:normal;font-variant:normal;font-weight:bold;font-stretch:normal;font-family:'TT Hoves';-inkscape-font-specification:'TT Hoves Bold';stroke-width:0.26458332"
         d="m -168.04828,130.69048 v -5.3975 h 1.37583 l 0.10584,0.47625 h 0.0529 q 0.127,-0.14817 0.35984,-0.28575 0.45508,-0.29634 1.12183,-0.29634 0.9525,0 1.55575,0.62442 0.61383,0.61383 0.61383,1.59808 v 3.28084 h -1.5875 v -2.96334 q 0,-0.4445 -0.28575,-0.71966 -0.27516,-0.28575 -0.71966,-0.28575 -0.4445,0 -0.73025,0.28575 -0.27517,0.27516 -0.27517,0.71966 v 2.96334 z" />
      <path
         id="path835"
         style="font-style:normal;font-variant:normal;font-weight:bold;font-stretch:normal;font-family:'TT Hoves';-inkscape-font-specification:'TT Hoves Bold';stroke-width:0.26458332"
         d="m -158.2587,130.69048 -0.10584,-0.47625 h -0.0529 q -0.127,0.14816 -0.35984,0.29633 -0.43391,0.28575 -1.12183,0.28575 -0.93133,0 -1.47108,-0.47625 -0.53975,-0.47625 -0.53975,-1.21708 0,-0.78317 0.5715,-1.25942 0.5715,-0.48683 1.651,-0.48683 h 1.21708 v -0.10584 q 0,-0.35983 -0.22225,-0.5715 -0.22225,-0.22225 -0.62442,-0.22225 -0.41275,0 -0.67733,0.24342 -0.127,0.127 -0.16933,0.23283 h -1.53459 q 0.0952,-0.762 0.70909,-1.24883 0.61383,-0.49742 1.67216,-0.49742 1.15359,0 1.78859,0.56092 0.64558,0.56092 0.64558,1.49225 v 3.45017 z m -0.21167,-2.16959 v -0.10583 h -1.00542 q -0.42333,0 -0.635,0.15875 -0.21166,0.15875 -0.21166,0.42333 0,0.254 0.1905,0.42334 0.20108,0.15875 0.55033,0.15875 0.508,0 0.80433,-0.28575 0.30692,-0.29634 0.30692,-0.77259 z" />
      <path
         id="path837"
         style="font-style:normal;font-variant:normal;font-weight:bold;font-stretch:normal;font-family:'TT Hoves';-inkscape-font-specification:'TT Hoves Bold';stroke-width:0.26458332"
         d="m -155.6658,130.69048 v -5.3975 h 1.37583 l 0.10584,0.47625 h 0.0529 q 0.127,-0.14817 0.35984,-0.28575 0.45508,-0.29634 1.12183,-0.29634 0.9525,0 1.55575,0.62442 0.61383,0.61383 0.61383,1.59808 v 3.28084 h -1.5875 v -2.96334 q 0,-0.4445 -0.28575,-0.71966 -0.27516,-0.28575 -0.71966,-0.28575 -0.4445,0 -0.73025,0.28575 -0.27517,0.27516 -0.27517,0.71966 v 2.96334 z" />
      <path
         id="path839"
         style="font-style:normal;font-variant:normal;font-weight:bold;font-stretch:normal;font-family:'TT Hoves';-inkscape-font-specification:'TT Hoves Bold';stroke-width:0.26458332"
         d="m -145.66455,128.57381 h 1.64041 q -0.10583,0.59267 -0.45508,1.11125 -0.77258,1.11125 -2.24367,1.11125 -1.22766,0 -2.02141,-0.78317 -0.78317,-0.79375 -0.78317,-2.02141 0,-1.22767 0.78317,-2.01084 0.79375,-0.79375 2.02141,-0.79375 1.41817,0 2.24367,1.11125 0.34925,0.51859 0.45508,1.11125 h -1.64041 q -0.0847,-0.21166 -0.21167,-0.37041 -0.32808,-0.37042 -0.84667,-0.37042 -0.52916,0 -0.87841,0.37042 -0.33867,0.35983 -0.33867,0.9525 0,0.59266 0.33867,0.96308 0.34925,0.35983 0.87841,0.35983 0.55034,0 0.84667,-0.37041 0.11642,-0.13759 0.21167,-0.37042 z" />
      <path
         id="path841"
         style="font-style:normal;font-variant:normal;font-weight:bold;font-stretch:normal;font-family:'TT Hoves';-inkscape-font-specification:'TT Hoves Bold';stroke-width:0.26458332"
         d="m -139.52623,129.05006 h 1.5875 q -0.1905,0.49742 -0.53975,0.87842 -0.8255,0.86783 -2.05317,0.86783 -1.22767,0 -2.02142,-0.78317 -0.78316,-0.79375 -0.78316,-2.02141 0,-1.22767 0.78316,-2.01084 0.79375,-0.79375 2.02142,-0.79375 1.18533,0 1.9685,0.77259 0.78317,0.77258 0.78317,1.92616 0,0.14817 -0.0318,0.40217 l -0.0212,0.127 h -3.91583 q 0.0423,0.48683 0.37041,0.80433 0.33867,0.30692 0.84667,0.30692 0.42333,0 0.762,-0.23283 0.16933,-0.127 0.24342,-0.24342 z m -2.2225,-1.5875 h 2.43416 q -0.23283,-1.05833 -1.21708,-1.05833 -0.98425,0 -1.21708,1.05833 z" />
    </g>
  </g>
</svg>
