<?xml version="1.0" encoding="UTF-8" standalone="no"?>
<!-- Created with Inkscape (http://www.inkscape.org/) -->

<svg
   xmlns:dc="http://purl.org/dc/elements/1.1/"
   xmlns:cc="http://creativecommons.org/ns#"
   xmlns:rdf="http://www.w3.org/1999/02/22-rdf-syntax-ns#"
   xmlns:svg="http://www.w3.org/2000/svg"
   xmlns="http://www.w3.org/2000/svg"
   xmlns:sodipodi="http://sodipodi.sourceforge.net/DTD/sodipodi-0.dtd"
   xmlns:inkscape="http://www.inkscape.org/namespaces/inkscape"
   width="28.83882mm"
   height="29.372313mm"
   viewBox="0 0 28.83882 29.372313"
   version="1.1"
   id="svg3705"
   inkscape:version="0.92.5 (2060ec1f9f, 2020-04-08)"
   sodipodi:docname="sad_croco_dark.svg">
  <defs
     id="defs3699" />
  <sodipodi:namedview
     id="base"
     pagecolor="#ffffff"
     bordercolor="#666666"
     borderopacity="1.0"
     inkscape:pageopacity="0.0"
     inkscape:pageshadow="2"
     inkscape:zoom="2.8284271"
     inkscape:cx="-62.544899"
     inkscape:cy="61.846796"
     inkscape:document-units="mm"
     inkscape:current-layer="layer1"
     showgrid="false"
     fit-margin-top="0"
     fit-margin-left="0"
     fit-margin-right="0"
     fit-margin-bottom="0"
     inkscape:window-width="1848"
     inkscape:window-height="1016"
     inkscape:window-x="72"
     inkscape:window-y="27"
     inkscape:window-maximized="1"
     showguides="false"
     inkscape:snap-global="false" />
  <metadata
     id="metadata3702">
    <rdf:RDF>
      <cc:Work
         rdf:about="">
        <dc:format>image/svg+xml</dc:format>
        <dc:type
           rdf:resource="http://purl.org/dc/dcmitype/StillImage" />
        <dc:title></dc:title>
      </cc:Work>
    </rdf:RDF>
  </metadata>
  <g
     inkscape:label="Layer 1"
     inkscape:groupmode="layer"
     id="layer1"
     transform="translate(-113.76995,-101.23616)">
    <path
       sodipodi:nodetypes="cscscscscscscscscscscscscccccccc"
       inkscape:connector-curvature="0"
       id="path1789"
       d="m 130.70066,107.20653 c 0,0 1.06271,0.86772 1.05013,1.17027 -0.0224,0.54066 -0.91389,1.15873 -0.91389,1.15873 0,0 0.88082,0.86653 0.8599,1.12222 -0.031,0.38435 -0.99028,0.84216 -0.99028,0.84216 0,0 0.79496,0.77386 0.78152,1.07114 -0.0138,0.29901 -1.08191,1.00114 -1.08191,1.00114 0,0 1.00975,0.68697 1.03472,0.97607 0.0172,0.20281 -0.98658,0.90959 -0.98658,0.90959 0,0 0.97099,0.72977 0.98365,0.93068 0.0276,0.4436 -1.03282,0.92148 -1.03282,0.92148 0,0 1.10628,0.59119 1.1273,0.80253 0.0301,0.30486 -0.66855,1.2564 -0.66855,1.2564 0,0 1.07744,-0.0181 1.21032,0.14984 0.21599,0.27325 -0.19592,1.71755 -0.19592,1.71755 0,0 0.92871,-0.894 1.26802,-0.82993 0.2661,0.0499 0.65536,1.31307 0.65536,1.31307 0,0 0.40218,-1.35698 0.67018,-1.47444 0.16509,-0.0723 1.22194,0.78385 1.22194,0.78385 0,0 0.062,-1.31099 0.25353,-1.44094 0.18335,-0.12418 1.39487,0.13838 1.39487,0.13838 0,0 -0.056,-0.93981 0.0922,-1.06055 0.18369,-0.1495 1.02594,0.0577 1.02594,0.0577 0,0 -0.0491,-1.07494 0.16138,-1.22185 0.1824,-0.12755 0.97978,0.24207 0.97978,0.24207 l -2.14402,2.96249 -3.94227,1.76365 -2.78956,-0.70317 -1.14117,-1.7521 0.242,-10.93926 0.50724,-1.01439 z"
       style="fill:#34a13c;fill-opacity:1;stroke:none;stroke-width:0.12910351;stroke-linecap:butt;stroke-linejoin:round;stroke-miterlimit:4;stroke-dasharray:none;stroke-opacity:1" />
    <ellipse
       ry="2.9755685"
       rx="14.41941"
       cy="127.6329"
       cx="128.18936"
       id="ellipse1791"
       style="opacity:1;fill:#2b373b;fill-opacity:1;stroke:none;stroke-width:0.08033577;stroke-linecap:round;stroke-linejoin:round;stroke-miterlimit:4;stroke-dasharray:none;stroke-dashoffset:0;stroke-opacity:1" />
    <path
       style="fill:#77b52a;fill-opacity:1;stroke:none;stroke-width:0.07431573;stroke-linecap:butt;stroke-linejoin:miter;stroke-miterlimit:4;stroke-dasharray:none;stroke-opacity:1"
       d="m 126.7186,124.51342 c 0.0517,0.96513 0.21022,2.75513 0.15493,2.89558 -0.0853,0.15062 -0.99975,0.73589 -1.49959,1.10378 -0.12651,0.0749 -0.24871,0.0172 -0.21288,-0.21279 l 0.062,-0.31658 -0.85671,0.27593 c -0.35955,0.0758 -0.44101,-0.299 -0.27575,-0.4367 l 0.53006,-0.43664 -0.45738,-0.009 c -0.45014,-0.009 -0.28643,-0.33044 -0.0775,-0.41114 l 1.07932,-0.36746 -0.0697,-2.62043 1.57219,0.0103 z"
       id="path1793"
       inkscape:connector-curvature="0"
       sodipodi:nodetypes="cccccccccccccc" />
    <path
       style="fill:#699f27;fill-opacity:1;stroke:none;stroke-width:0.10705012;stroke-linecap:butt;stroke-linejoin:miter;stroke-miterlimit:4;stroke-dasharray:none;stroke-opacity:1"
       d="m 122.44194,111.27387 c 0,0 -2.48473,3.39594 -2.62263,3.44145 -0.0532,0.073 -1.04064,0.32354 -1.36525,0.43301 -0.39592,0.11656 -0.4392,0.65276 0.12789,0.63033 l 0.82911,-0.0409 -0.6988,0.43068 c -0.59934,0.40529 -0.25492,0.97534 0.2882,0.65378 l 0.64905,-0.43394 -0.36261,0.77858 c -0.12964,0.28723 0.12056,0.75545 0.511,0.3552 l 0.66862,-0.65321 -0.20641,0.64003 c -0.14821,0.478 0.43748,0.56595 0.64084,0.15438 l 1.10221,-2.27882 2.08911,-2.05683 z"
       id="path884"
       inkscape:connector-curvature="0"
       sodipodi:nodetypes="cccccccccccccccc" />
    <path
       id="path1797"
       d="m 121.14356,108.47938 0.34404,0.10368 -0.3133,1.45395 h 4.6e-4 l -0.22744,1.05694 -0.025,0.11876 c -0.0946,0.65113 -0.15157,0.87229 -0.32311,2.05832 v 0 c -0.0241,0.16896 0,0.0672 -0.0319,0.29323 -0.0138,0.17732 -0.0224,0.44102 -0.0276,0.65554 -0.0112,0.40105 -0.0275,0.78738 -0.025,1.22564 h -4.6e-4 c 0,0.30254 -0.0293,0.52731 -0.0172,0.84604 h -4.6e-4 c 0.009,0.2426 -1.7e-4,0.46677 0.0207,0.71599 0.0181,0.26335 0.009,0.50526 0.0387,0.77396 h 8.7e-4 c 0.0568,0.49708 0.13314,0.99984 0.24251,1.49708 h -4.6e-4 c 0.0611,0.2762 0.0985,0.55659 0.17939,0.82683 h 4.5e-4 c 0.20212,0.67621 0.46117,1.3314 0.81443,1.92476 0.18412,0.30942 0.37772,0.61291 0.61058,0.88608 0.14339,0.16827 0.29134,0.33259 0.4548,0.48424 0.29297,0.11583 0.59999,0.19722 0.90924,0.22073 0.32088,0.0241 0.64262,-0.009 0.94964,-0.11084 0.15355,-0.0517 0.30322,-0.12022 0.4473,-0.20875 0.14407,-0.0884 0.28281,-0.1967 0.41337,-0.3257 0.23674,-0.23382 0.44549,-0.53997 0.61911,-0.92483 0.13968,-0.30977 0.26232,-0.6558 0.34757,-1.07606 0.0172,-0.0844 0.0388,-0.15941 0.0534,-0.24837 l 0.0215,-0.13615 c 0.0164,-0.18714 0.0241,-0.34654 0.0362,-0.52068 h 4.5e-4 c 0.0284,-0.41087 0.0568,-0.81933 0.0863,-1.22831 0.0198,-0.28213 0.0422,-0.5739 0.0594,-0.84776 0.025,-0.40708 0.0697,-0.86472 0.0885,-1.25992 h -4.6e-4 c 0.0207,-0.43438 0.0258,-0.86162 0.0353,-1.2879 0.009,-0.42069 0.0345,-0.85009 0.0345,-1.27103 0,-0.3679 -0.009,-0.74561 -0.0181,-1.11963 h 4.6e-4 c -0.0198,-0.62867 -0.0439,-1.2594 -0.0947,-1.92571 -0.0319,-0.41871 -0.0775,-0.86334 -0.12376,-1.30659 -0.0284,-0.27042 -0.0405,-0.62514 -0.0861,-1.03291 -0.46117,0.0586 -0.90529,0.10334 -1.34449,0.129 -0.43912,0.0258 -0.87402,0.0319 -1.31728,0.0129 -0.44325,-0.0189 -0.8946,-0.062 -1.368,-0.13701 -0.46263,-0.0732 -0.94817,-0.17818 -1.46419,-0.31597 z"
       style="fill:#d3d95d;fill-opacity:1;stroke:none;stroke-width:0.06455177;stroke-linecap:butt;stroke-linejoin:round;stroke-miterlimit:4;stroke-dasharray:none;stroke-opacity:1"
       inkscape:connector-curvature="0"
       sodipodi:nodetypes="ccccccccccccccccccccccccccsccccccccccccscccccccccc" />
    <path
       id="path1799"
       d="m 125.57782,122.97586 c 0.23674,-0.23382 0.4455,-0.53997 0.61911,-0.92483 l -4.40403,-0.0207 c 0.18412,0.30942 0.37771,0.61291 0.61058,0.88608 z"
       style="fill:#efecc3;fill-opacity:1;stroke:none;stroke-width:0.06455177;stroke-linecap:butt;stroke-linejoin:round;stroke-miterlimit:4;stroke-dasharray:none;stroke-opacity:1"
       inkscape:connector-curvature="0" />
    <path
       id="path1801"
       d="m 126.54451,120.97497 h 4.6e-4 c 0.0172,-0.0844 0.0387,-0.15941 0.0534,-0.24837 l 0.0215,-0.13614 c 0.0164,-0.18714 0.0241,-0.34654 0.0362,-0.52068 l -5.85712,-0.79126 c 0.0611,0.27619 0.0986,0.55659 0.17939,0.82683 z"
       style="fill:#efecc3;fill-opacity:1;stroke:none;stroke-width:0.06455177;stroke-linecap:butt;stroke-linejoin:round;stroke-miterlimit:4;stroke-dasharray:none;stroke-opacity:1"
       inkscape:connector-curvature="0" />
    <path
       id="path1803"
       d="m 126.7425,118.84146 h 4.5e-4 c 0.0198,-0.28213 0.0422,-0.5739 0.0594,-0.84776 l -6.28479,-0.98623 c 0.0181,0.26335 0.009,0.50526 0.0387,0.77396 z"
       style="fill:#efecc3;fill-opacity:1;stroke:none;stroke-width:0.06455177;stroke-linecap:butt;stroke-linejoin:round;stroke-miterlimit:4;stroke-dasharray:none;stroke-opacity:1"
       inkscape:connector-curvature="0" />
    <path
       id="path1805"
       d="m 126.89028,116.73378 c 0.0207,-0.43438 0.0258,-0.86162 0.0353,-1.2879 l -6.41156,-4.3e-4 c 0,0.30254 -0.0293,0.52731 -0.0172,0.84604 z"
       style="fill:#efecc3;fill-opacity:1;stroke:none;stroke-width:0.06455177;stroke-linecap:butt;stroke-linejoin:round;stroke-miterlimit:4;stroke-dasharray:none;stroke-opacity:1"
       inkscape:connector-curvature="0" />
    <path
       id="path1807"
       d="m 126.95969,114.17484 h 4.6e-4 c 0,-0.3679 -0.009,-0.74561 -0.0181,-1.11963 l -6.34301,0.21582 c -0.0241,0.16896 0,0.0723 -0.0327,0.29866 -0.0112,0.1836 -0.0215,0.43559 -0.0267,0.65011 z"
       style="fill:#efecc3;fill-opacity:1;stroke:none;stroke-width:0.06455177;stroke-linecap:butt;stroke-linejoin:round;stroke-miterlimit:4;stroke-dasharray:none;stroke-opacity:1"
       inkscape:connector-curvature="0"
       sodipodi:nodetypes="ccccccc" />
    <path
       id="path1809"
       d="m 126.84713,111.1295 c -0.0319,-0.41871 -0.0775,-0.86333 -0.12375,-1.30659 l -5.54865,0.21409 -0.22744,1.05694 z"
       style="fill:#efecc3;fill-opacity:1;stroke:none;stroke-width:0.06455177;stroke-linecap:butt;stroke-linejoin:round;stroke-miterlimit:4;stroke-dasharray:none;stroke-opacity:1"
       inkscape:connector-curvature="0" />
    <path
       sodipodi:nodetypes="cccccccccccccccccccccccccccccccccsccccccccccccccc"
       style="fill:#93bd31;fill-opacity:1;stroke:none;stroke-width:0.06455177;stroke-linecap:butt;stroke-linejoin:round;stroke-miterlimit:4;stroke-dasharray:none;stroke-opacity:1"
       d="m 125.26492,101.24925 c -0.70876,-0.11437 -1.49193,0.54349 -1.61637,1.09216 -0.25207,1.0243 -0.15148,1.00423 -0.21892,1.87981 -0.67758,0 -1.26439,0.0456 -2.12722,0.0327 -0.69429,-0.47796 -1.67071,-2.25899 -2.62482,-0.72538 -0.72435,-1.40977 -1.41244,-0.28876 -1.46729,0.1793 -0.1489,1.01043 -0.33354,1.99822 0.82777,2.35337 0,-1.4e-4 0.009,-1.4e-4 0.009,0 0,1.5e-4 0.009,4.3e-4 0.009,8.7e-4 0.20399,0.37591 0.35772,0.11976 0.035,0.17077 0.10028,1.78214 1.57493,1.80238 3.05249,2.24917 0.51602,0.13779 1.00156,0.24285 1.46419,0.31597 0.4734,0.0749 0.92475,0.11841 1.368,0.1371 0.44326,0.0189 0.87816,0.0121 1.31728,-0.0138 0.43921,-0.0258 0.88289,-0.0706 1.34406,-0.12909 0.0456,0.40786 0.0577,0.76258 0.0863,1.033 0.0465,0.44316 0.0919,0.88788 0.12375,1.30659 0.0508,0.6663 0.0749,1.29704 0.0948,1.92562 0.0121,0.3741 0.0164,0.75173 0.0181,1.11972 h -4.5e-4 c 0,0.42086 -0.025,0.85034 -0.0344,1.27103 -0.009,0.42629 -0.0146,0.85353 -0.0353,1.28791 h 4.6e-4 c -0.019,0.3952 -0.0629,0.85274 -0.0881,1.25983 -0.0172,0.27395 -0.0396,0.56563 -0.0594,0.84785 h -4.6e-4 c -0.0293,0.40889 -0.0577,0.81744 -0.0863,1.2283 -0.0121,0.17405 -0.0198,0.33354 -0.0362,0.52068 l -0.0215,0.13615 c -0.0146,0.0889 -0.0362,0.16414 -0.0534,0.24828 -0.0853,0.42035 -0.20789,0.76629 -0.34757,1.07614 l -4.6e-4,4.6e-4 c -0.17361,0.38452 -0.38245,0.69067 -0.61911,0.92431 -0.13064,0.1291 -0.26929,0.23735 -0.41337,0.32579 -0.14408,0.0884 -0.29375,0.15734 -0.4473,0.20877 -0.30701,0.10274 -0.62832,0.13512 -0.9492,0.11073 -0.30926,-0.0232 -0.6167,-0.1048 -0.90968,-0.22072 0.59371,0.55056 1.31926,0.98831 2.2136,1.25277 1.391,0.43249 2.77605,0.84457 4.20597,0.84156 4.95425,-0.0103 6.64588,-1.10474 8.2291,-2.20826 2.6255,-1.93553 4.1741,-6.2829 3.55852,-6.53618 v 0 c -1.34974,-0.5534 -8.80524,10.71992 -10.5637,0.97823 -0.66983,-4.69512 1.86189,-12.94035 -0.96582,-15.70655 -0.49364,-0.3853 -1.39737,-0.62014 -1.86904,0.51353 -0.24536,0.92095 -0.35464,0.69024 -1.02094,0.66888 -0.13116,-0.0121 -0.14942,-0.30529 -0.26077,-0.81881 -0.17336,-0.52197 -0.60482,-1.05419 -1.08011,-1.14289 z"
       id="path1811"
       inkscape:connector-curvature="0" />
    <ellipse
       transform="scale(-1,1)"
       ry="1.3530478"
       rx="0.99440873"
       cy="103.51214"
       cx="-128.72174"
       id="ellipse1813"
       style="opacity:1;fill:#ffffff;fill-opacity:1;stroke:none;stroke-width:1.00065756;stroke-linecap:round;stroke-linejoin:round;stroke-miterlimit:4;stroke-dasharray:none;stroke-dashoffset:0;stroke-opacity:1" />
    <ellipse
       transform="matrix(-0.99457806,0.10399266,0.10399266,0.99457806,0,0)"
       style="opacity:1;fill:#000000;fill-opacity:1;stroke:none;stroke-width:0.50187755;stroke-linecap:round;stroke-linejoin:round;stroke-miterlimit:4;stroke-dasharray:none;stroke-dashoffset:0;stroke-opacity:1"
       id="ellipse1815"
       cx="-117.15553"
       cy="116.29987"
       rx="0.49874344"
       ry="0.67861807" />
    <ellipse
       transform="scale(-1,1)"
       style="opacity:1;fill:#ffffff;fill-opacity:1;stroke:none;stroke-width:1.00065756;stroke-linecap:round;stroke-linejoin:round;stroke-miterlimit:4;stroke-dasharray:none;stroke-dashoffset:0;stroke-opacity:1"
       id="ellipse1817"
       cx="-125.01553"
       cy="103.1115"
       rx="0.99440873"
       ry="1.3530478" />
    <ellipse
       transform="matrix(-0.99790194,0.06474351,0.06474351,0.99790194,0,0)"
       ry="0.67861807"
       rx="0.49874344"
       cy="111.05191"
       cx="-118.1316"
       id="ellipse1819"
       style="opacity:1;fill:#000000;fill-opacity:1;stroke:none;stroke-width:0.50187755;stroke-linecap:round;stroke-linejoin:round;stroke-miterlimit:4;stroke-dasharray:none;stroke-dashoffset:0;stroke-opacity:1" />
    <ellipse
       ry="0.30676043"
       rx="0.21285416"
       cy="103.62368"
       cx="119.46826"
       id="ellipse1823"
       style="opacity:1;fill:#000000;fill-opacity:1;stroke:none;stroke-width:0.06890205;stroke-linecap:round;stroke-linejoin:round;stroke-miterlimit:4;stroke-dasharray:none;stroke-dashoffset:0;stroke-opacity:1" />
    <path
       style="fill:#93bd31;fill-opacity:1;stroke:none;stroke-width:0.07431573;stroke-linecap:butt;stroke-linejoin:miter;stroke-miterlimit:4;stroke-dasharray:none;stroke-opacity:1"
       d="m 130.91406,124.88812 c 0.0327,1.03103 0.13831,2.88774 0,3.09296 -0.21883,0.26783 -1.10232,0.71592 -1.70636,1.10396 -0.40838,0.23296 -0.44808,-0.0586 -0.36652,-0.22881 l 0.10239,-0.20738 -0.79358,0.0968 c -0.26137,0.0534 -0.61704,-0.11445 -0.28178,-0.41802 l 0.52188,-0.42078 h -0.62092 c -0.28247,0 -0.34818,-0.32338 -0.0241,-0.43042 l 1.28506,-0.28816 0.0388,-4.47345 1.60491,1.10827 z"
       id="path1831"
       inkscape:connector-curvature="0"
       sodipodi:nodetypes="cccccccccccccc" />
    <ellipse
       style="opacity:1;fill:#000000;fill-opacity:1;stroke:none;stroke-width:0.06075282;stroke-linecap:round;stroke-linejoin:round;stroke-miterlimit:4;stroke-dasharray:none;stroke-dashoffset:0;stroke-opacity:1"
       id="ellipse1835"
       cx="117.86792"
       cy="103.52266"
       rx="0.18767937"
       ry="0.27047905" />
    <path
       sodipodi:nodetypes="cccccccccccccccc"
       inkscape:connector-curvature="0"
       id="path1847"
       d="m 127.97052,111.52725 c 0,0 -2.65923,3.2611 -2.79932,3.29932 -0.057,0.0701 -1.05617,0.26858 -1.38606,0.3609 -0.40149,0.0957 -0.4728,0.62885 0.0947,0.63616 l 0.83012,0.003 -0.7204,0.39348 c -0.61975,0.37333 -0.30566,0.96065 0.25355,0.66798 l 0.6709,-0.39934 -0.40291,0.75851 c -0.14451,0.28005 0.0808,0.76074 0.4917,0.38149 l 0.70191,-0.61729 -0.23965,0.62834 c -0.17305,0.46958 0.40723,0.58809 0.63188,0.18774 l 1.22007,-2.21795 2.194,-1.94456 z"
       style="fill:#93bd31;fill-opacity:1;stroke:none;stroke-width:0.10705012;stroke-linecap:butt;stroke-linejoin:miter;stroke-miterlimit:4;stroke-dasharray:none;stroke-opacity:1" />
    <path
       sodipodi:nodetypes="cccccccccccccccccccccccccccccccccscccc"
       inkscape:connector-curvature="0"
       id="path982"
       d="m 118.2702,106.19769 0.0383,0.40225 c 0.0643,0.46735 0.45455,0.41534 0.54255,0.0102 l 0.0831,-0.37272 0.68839,0.068 -0.006,0.35322 c -0.0166,0.47857 0.37832,0.45217 0.48285,0.088 l 0.11838,-0.36962 0.53641,0.0557 0.0322,0.35317 c 0.0382,0.39975 0.41808,0.42526 0.51782,0.0797 l 0.0886,-0.34502 0.71597,0.0821 -0.003,0.38237 c 0.0106,0.4829 0.4916,0.28451 0.55171,0.0336 l 0.0935,-0.38462 1.17156,0.17049 0.049,0.47564 c 0.0352,0.36257 0.39179,0.33976 0.47002,0.0291 l 0.10499,-0.40129 0.72939,0.14877 -0.0413,0.4676 c -0.0177,0.38365 0.36352,0.30397 0.49904,0.0526 l 0.17159,-0.34539 0.23342,0.0845 -0.006,0.3364 c 0.0116,0.31231 0.30381,0.32928 0.50638,0.0402 l 0.0971,-0.16016 0.0662,0.0325 -0.004,0.30245 c 0.003,0.34425 0.2156,0.35644 0.34547,0.14136 l 0.16234,-0.22079 c -0.22402,-0.17015 -0.57573,-0.32498 -0.79975,-0.44184 -0.0262,-0.0104 -0.0522,-0.0205 -0.0781,-0.0303 -0.66422,-0.25202 -1.24341,-0.32957 -1.87631,-0.46892 l -1.1578,-0.20182 c -1.72254,-0.12932 -3.64149,-0.58931 -5.09208,-0.47752 z"
       style="fill:#ffffff;fill-opacity:1;stroke:none;stroke-width:0.26458332px;stroke-linecap:butt;stroke-linejoin:miter;stroke-opacity:1" />
    <path
       style="color:#000000;font-style:normal;font-variant:normal;font-weight:normal;font-stretch:normal;font-size:medium;line-height:normal;font-family:sans-serif;font-variant-ligatures:normal;font-variant-position:normal;font-variant-caps:normal;font-variant-numeric:normal;font-variant-alternates:normal;font-feature-settings:normal;text-indent:0;text-align:start;text-decoration:none;text-decoration-line:none;text-decoration-style:solid;text-decoration-color:#000000;letter-spacing:normal;word-spacing:normal;text-transform:none;writing-mode:lr-tb;direction:ltr;text-orientation:mixed;dominant-baseline:auto;baseline-shift:baseline;text-anchor:start;white-space:normal;shape-padding:0;clip-rule:nonzero;display:inline;overflow:visible;visibility:visible;opacity:1;isolation:auto;mix-blend-mode:normal;color-interpolation:sRGB;color-interpolation-filters:linearRGB;solid-color:#000000;solid-opacity:1;vector-effect:none;fill:#000000;fill-opacity:1;fill-rule:nonzero;stroke:none;stroke-width:0.18000001;stroke-linecap:round;stroke-linejoin:miter;stroke-miterlimit:4;stroke-dasharray:none;stroke-dashoffset:0;stroke-opacity:1;color-rendering:auto;image-rendering:auto;shape-rendering:auto;text-rendering:auto;enable-background:accumulate"
       d="m 118.09168,106.23713 c 0,0 2.12327,0.11708 4.348,0.39373 1.11237,0.13832 2.24756,0.31617 3.14453,0.54102 0.44849,0.11242 0.83791,0.23721 1.13282,0.37109 0.2949,0.13388 0.49197,0.28073 0.56445,0.41211 0.0366,0.0958 0.21754,-0.004 0.15625,-0.0859 -0.10778,-0.19535 -0.33556,-0.34908 -0.64648,-0.49023 -0.31093,-0.14116 -0.70918,-0.26684 -1.16407,-0.38086 -0.90977,-0.22806 -2.04769,-0.40806 -3.16406,-0.54688 -2.23273,-0.27764 -4.40497,-0.38959 -4.40497,-0.38959 0,0 0.0361,0.11563 0.0335,0.17551 z"
       id="path855"
       inkscape:connector-curvature="0"
       sodipodi:nodetypes="ccccccccscc" />
    <path
       style="fill:#a2cb41;fill-opacity:1;stroke:none;stroke-width:0.26458332px;stroke-linecap:butt;stroke-linejoin:miter;stroke-opacity:1"
       d="m 123.82076,102.62172 c 0,0 1.08907,-0.80366 1.78758,-0.58584 0.69851,0.21781 0.0225,-0.32297 0.0225,-0.32297 l -1.02148,-0.0375 z"
       id="path886"
       inkscape:connector-curvature="0"
       sodipodi:nodetypes="ccccc" />
    <path
       sodipodi:nodetypes="ccccc"
       inkscape:connector-curvature="0"
       id="path888"
       d="m 129.98232,102.951 c 0,0 -1.08907,-0.80366 -1.78758,-0.58584 -0.69851,0.21781 -0.0225,-0.32297 -0.0225,-0.32297 l 1.02148,-0.0375 z"
       style="fill:#a2cb41;fill-opacity:1;stroke:none;stroke-width:0.26458332px;stroke-linecap:butt;stroke-linejoin:miter;stroke-opacity:1" />
  </g>
</svg>
