<?xml version="1.0" encoding="UTF-8" standalone="no"?>
<svg
   xmlns:dc="http://purl.org/dc/elements/1.1/"
   xmlns:cc="http://creativecommons.org/ns#"
   xmlns:rdf="http://www.w3.org/1999/02/22-rdf-syntax-ns#"
   xmlns:svg="http://www.w3.org/2000/svg"
   xmlns="http://www.w3.org/2000/svg"
   xmlns:sodipodi="http://sodipodi.sourceforge.net/DTD/sodipodi-0.dtd"
   xmlns:inkscape="http://www.inkscape.org/namespaces/inkscape"
   width="14.016"
   height="14.016"
   version="1.1"
   id="svg4"
   sodipodi:docname="discord.svg"
   style="clip-rule:evenodd;fill-rule:evenodd"
   inkscape:version="0.92.5 (2060ec1f9f, 2020-04-08)">
  <metadata
     id="metadata10">
    <rdf:RDF>
      <cc:Work
         rdf:about="">
        <dc:format>image/svg+xml</dc:format>
        <dc:type
           rdf:resource="http://purl.org/dc/dcmitype/StillImage" />
        <dc:title></dc:title>
      </cc:Work>
    </rdf:RDF>
  </metadata>
  <defs
     id="defs8" />
  <sodipodi:namedview
     pagecolor="#ffffff"
     bordercolor="#666666"
     borderopacity="1"
     objecttolerance="10"
     gridtolerance="10"
     guidetolerance="10"
     inkscape:pageopacity="0"
     inkscape:pageshadow="2"
     inkscape:window-width="1920"
     inkscape:window-height="1043"
     id="namedview6"
     showgrid="false"
     fit-margin-top="0"
     fit-margin-left="0"
     fit-margin-right="0"
     fit-margin-bottom="0"
     inkscape:zoom="27.812867"
     inkscape:cx="4.9446604"
     inkscape:cy="6.5157683"
     inkscape:window-x="0"
     inkscape:window-y="0"
     inkscape:window-maximized="1"
     inkscape:current-layer="svg4" />
  <path
     style="fill:#1a1a1a;fill-opacity:1;stroke:none;stroke-width:5.19999981;stroke-miterlimit:4;stroke-dasharray:none;stroke-opacity:1"
     d="m 5.0997968,1.6772034 c 0,0 -0.4101094,-0.00847 -1.0371094,0.1445312 -0.627,0.153 -1.4699844,0.4672344 -2.3339843,1.1152344 0,0 -0.4332344,0.7828281 -0.86523442,2.0488281 -0.432,1.266 -0.8632812999,3.015265 -0.8632812999,4.947265 0,0 0.2524374999,0.4353599 0.8359374999,0.8808599 0.29175002,0.22275 0.66537502,0.448109 1.13281252,0.623046 0.4674375,0.174938 1.0284063,0.299313 1.6914063,0.320313 0,0 0.4427344,-0.540094 0.8027344,-0.996094 -0.7620001,-0.228 -1.2865938,-0.581906 -1.6210938,-0.8789059 -0.3345,-0.297 -0.4785156,-0.537109 -0.4785156,-0.537109 l 0.3359375,0.205078 0.048828,0.03516 0.046875,0.02734 0.013672,0.0059 0.046875,0.02734 c 0.3,0.168 0.6009531,0.300203 0.8769531,0.4082029 0.492,0.192 1.0796719,0.383625 1.763672,0.515625 0.8999997,0.168 1.9554217,0.227719 3.1074217,0.01172 0.564,-0.096 1.140234,-0.263625 1.740234,-0.515625 0.42,-0.1559999 0.886906,-0.3849849 1.378906,-0.7089849 0,0 -0.149593,0.247329 -0.496093,0.548828 -0.3465,0.3014999 -0.889782,0.6569069 -1.675782,0.8789069 0.36,0.456 0.792969,0.972656 0.792969,0.972656 0.663,-0.021 1.222844,-0.145375 1.691406,-0.320313 0.468563,-0.174937 0.845422,-0.400296 1.138672,-0.623046 0.5865,-0.4455 0.841797,-0.8808599 0.841797,-0.8808599 0,-1.932 -0.431281,-3.681265 -0.863281,-4.947265 -0.432,-1.266 -0.865235,-2.0488281 -0.865235,-2.0488281 -0.864,-0.648 -1.706984,-0.9622344 -2.333984,-1.1152344 -0.627,-0.153 -1.037109,-0.1445312 -1.037109,-0.1445312 L 8.748234,1.8686476 c 1.02,0.312 1.765812,0.6930938 2.257812,0.9960938 0.492001,0.303 0.730469,0.5292969 0.730469,0.5292969 -1.248,-0.6840001 -2.473281,-1.0203438 -3.613281,-1.1523438 -0.864,-0.096 -1.691828,-0.072563 -2.4238276,0.023437 l -0.2031251,0.0234 c -0.4200001,0.036 -1.4406095,0.1938125 -2.7246095,0.7578125 -0.444,0.204 -0.7070313,0.3476563 -0.7070313,0.3476563 0,0 0.2485782,-0.2377344 0.7675782,-0.5527344 0.519,-0.315 1.3067187,-0.7075313 2.3867187,-1.0195313 z M 4.7638593,6.1537651 c 0.342,0 0.6510469,0.149125 0.8730471,0.390625 0.2219996,0.2415 0.3575616,0.575407 0.3515616,0.941407 0,0.366 -0.134968,0.697953 -0.3554676,0.939453 -0.2205005,0.2415 -0.5271411,0.392578 -0.8691411,0.392578 -0.336,0 -0.6412813,-0.151078 -0.8632812,-0.392578 -0.222,-0.2415 -0.3613282,-0.573453 -0.3613282,-0.939453 0,-0.366 0.1349688,-0.699907 0.3554688,-0.941407 0.2205,-0.2415 0.5271406,-0.390625 0.8691406,-0.390625 z m 4.3789057,0 c 0.342,0 0.648641,0.149125 0.869141,0.390625 0.2205,0.2415 0.355469,0.575407 0.355469,0.941407 0,0.366 -0.134969,0.697953 -0.355469,0.939453 -0.2205,0.2415 -0.527141,0.392578 -0.869141,0.392578 -0.336,0 -0.641281,-0.151078 -0.863281,-0.392578 -0.222,-0.2415 -0.359375,-0.573453 -0.359375,-0.939453 0,-0.366 0.134969,-0.699907 0.355469,-0.941407 0.2205,-0.2415 0.525187,-0.390625 0.867187,-0.390625 z"
     id="path822"
     inkscape:connector-curvature="0" />
</svg>
