<?xml version="1.0" encoding="UTF-8" standalone="no"?>
<!-- Created with Inkscape (http://www.inkscape.org/) -->

<svg
   xmlns:dc="http://purl.org/dc/elements/1.1/"
   xmlns:cc="http://creativecommons.org/ns#"
   xmlns:rdf="http://www.w3.org/1999/02/22-rdf-syntax-ns#"
   xmlns:svg="http://www.w3.org/2000/svg"
   xmlns="http://www.w3.org/2000/svg"
   xmlns:sodipodi="http://sodipodi.sourceforge.net/DTD/sodipodi-0.dtd"
   xmlns:inkscape="http://www.inkscape.org/namespaces/inkscape"
   width="133.52406mm"
   height="78.173065mm"
   viewBox="0 0 133.52406 78.173065"
   version="1.1"
   id="svg13063"
   inkscape:version="0.92.5 (2060ec1f9f, 2020-04-08)"
   sodipodi:docname="pools.svg">
  <defs
     id="defs13057">
    <clipPath
       id="_clip1-8">
      <path
         inkscape:connector-curvature="0"
         d="m 18640.6,15952.1 c 6,-8.4 17.6,-12.1 32.6,-10.9 20.7,1.7 48.1,12.8 74.5,31.6 26.3,18.9 45.6,41.4 53.8,60.4 6,13.8 6.2,26 0.2,34.4 0,0 -41.2,57.6 -41.2,57.6 -6,8.4 -17.7,12.1 -32.6,10.9 -20.7,-1.8 -48.2,-12.8 -74.5,-31.7 -26.4,-18.8 -45.6,-41.3 -53.9,-60.3 -6,-13.8 -6.2,-26 -0.2,-34.4 z m 155.4,111.4 v -0.1 c 4.8,-6.6 3.8,-16.4 -0.9,-27.4 -7.9,-18.1 -26.4,-39.4 -51.6,-57.4 -25.1,-18 -51.2,-28.7 -70.9,-30.3 -12,-1 -21.5,1.2 -26.3,7.9 l -0.2,0.4 c -4.5,6.7 -3.5,16.2 1.2,27 7.9,18.2 26.4,39.5 51.5,57.5 25.1,18 51.2,28.7 70.9,30.3 11.8,0.9 21.1,-1.2 26,-7.5 l 0.3,-0.5 z m -64.2,-68.6 c 12.6,9 21.9,19.7 25.8,28.8 2.3,5.1 2.9,9.6 0.6,12.7 -2.2,3.1 -6.7,4 -12.2,3.5 -9.9,-0.8 -22.9,-6.2 -35.5,-15.2 -12.6,-9 -21.9,-19.6 -25.8,-28.7 -2.2,-5.1 -2.8,-9.6 -0.6,-12.7 2.2,-3.1 6.7,-4 12.3,-3.6 9.8,0.9 22.9,6.2 35.4,15.2 z"
         id="path882-3-5" />
    </clipPath>
  </defs>
  <sodipodi:namedview
     id="base"
     pagecolor="#ffffff"
     bordercolor="#666666"
     borderopacity="1.0"
     inkscape:pageopacity="0.0"
     inkscape:pageshadow="2"
     inkscape:zoom="0.56191406"
     inkscape:cx="123.82942"
     inkscape:cy="-46.003999"
     inkscape:document-units="mm"
     inkscape:current-layer="layer1"
     showgrid="false"
     fit-margin-top="0"
     fit-margin-left="0"
     fit-margin-right="0"
     fit-margin-bottom="0"
     inkscape:window-width="1848"
     inkscape:window-height="1016"
     inkscape:window-x="72"
     inkscape:window-y="1107"
     inkscape:window-maximized="1" />
  <metadata
     id="metadata13060">
    <rdf:RDF>
      <cc:Work
         rdf:about="">
        <dc:format>image/svg+xml</dc:format>
        <dc:type
           rdf:resource="http://purl.org/dc/dcmitype/StillImage" />
        <dc:title></dc:title>
      </cc:Work>
    </rdf:RDF>
  </metadata>
  <g
     inkscape:label="Layer 1"
     inkscape:groupmode="layer"
     id="layer1"
     transform="translate(-33.295879,-92.641311)">
    <g
       id="g12964"
       transform="translate(-7206.9652,-33.289623)">
      <g
         id="g12850"
         transform="translate(-48.921721,-44.191916)">
        <rect
           ry="1.921271"
           rx="1.921271"
           y="173.92805"
           x="7324.2188"
           height="30.175941"
           width="59.584709"
           id="rect12804"
           style="fill:#fafafc;fill-opacity:1;stroke:none;stroke-width:0.17943294;stroke-miterlimit:4;stroke-dasharray:none;stroke-dashoffset:0;stroke-opacity:1" />
        <circle
           r="4.2865691"
           cy="174.52876"
           cx="7325.0908"
           id="circle12806"
           style="fill:#ffffff;fill-opacity:0.99523806;stroke:#f6f6f9;stroke-width:0.23868762;stroke-miterlimit:4;stroke-dasharray:none;stroke-opacity:1" />
        <path
           style="fill:#ff007a;fill-rule:nonzero;stroke:none;stroke-width:0.07891388"
           inkscape:connector-curvature="0"
           d="m 7324.897,176.93796 c -0.041,-0.0349 -0.077,-0.074 -0.1101,-0.11721 -0.013,-0.0146 -0.026,-0.0286 -0.04,-0.042 -0.068,-0.0721 -0.1487,-0.13121 -0.2377,-0.17453 -0.061,-0.027 -0.1255,-0.0471 -0.1914,-0.0597 -0.032,-0.006 -0.067,-0.0114 -0.1,-0.0163 -0.014,-9.5e-4 -0.09,-0.0184 -0.1009,-0.01 0.1031,-0.0958 0.2163,-0.18092 0.3368,-0.254 0.1237,-0.0739 0.2566,-0.13106 0.3951,-0.16991 0.1436,-0.0407 0.2938,-0.0523 0.442,-0.0339 0.075,0.01 0.1507,0.0286 0.222,0.0578 0.075,0.03 0.1433,0.0726 0.2032,0.12616 0.059,0.0561 0.1074,0.12339 0.1414,0.19801 0.031,0.0696 0.054,0.14277 0.068,0.21763 0.043,0.22378 0.028,0.57074 0.319,0.62193 0.014,0.003 0.031,0.004 0.046,0.006 l 0.048,9.6e-4 c 0.032,-0.003 0.066,-0.008 0.098,-0.0146 0.065,-0.0163 0.1312,-0.0379 0.1935,-0.0665 -0.027,0.0215 -0.054,0.0445 -0.084,0.0645 -0.03,0.0198 -0.061,0.0373 -0.093,0.0524 -0.067,0.0331 -0.142,0.0499 -0.2171,0.0493 -0.2037,-0.003 -0.3476,-0.15628 -0.4318,-0.32848 -0.057,-0.11737 -0.097,-0.24419 -0.1651,-0.35597 -0.098,-0.15988 -0.2642,-0.28864 -0.4594,-0.26478 -0.079,0.0114 -0.1544,0.0461 -0.1985,0.11542 -0.1165,0.18148 0.051,0.43565 0.2637,0.39969 0.018,-0.003 0.035,-0.008 0.053,-0.0146 0.017,-0.008 0.032,-0.017 0.047,-0.0287 0.03,-0.0249 0.052,-0.0577 0.065,-0.0942 0.014,-0.0382 0.017,-0.0799 0.011,-0.11997 -0.011,-0.0419 -0.033,-0.0786 -0.069,-0.1027 0.041,0.0192 0.073,0.0539 0.089,0.0963 0.016,0.0436 0.022,0.0914 0.013,0.13706 -0.011,0.0479 -0.03,0.0928 -0.061,0.12976 -0.016,0.0189 -0.037,0.0354 -0.057,0.049 -0.022,0.0146 -0.044,0.0243 -0.068,0.0321 -0.048,0.0165 -0.099,0.0218 -0.1496,0.0163 -0.071,-0.0114 -0.1375,-0.0393 -0.1934,-0.0844 -0.011,-0.006 -0.016,-0.0146 -0.024,-0.0206 z m -0.066,-0.0684 c -0.013,-0.0146 -0.026,-0.0281 -0.039,-0.0427 0.013,0.0146 0.025,0.0285 0.039,0.0427 z m 0.2669,-2.59045 c 0.1236,0.21916 -0.1533,0.28708 -0.2831,0.2996 -0.197,0.0192 -0.2377,-0.0949 -0.1994,-0.23823 0.013,-0.0512 0.041,-0.0973 0.081,-0.13219 0.04,-0.0349 0.089,-0.0565 0.1412,-0.0621 0.052,-0.004 0.1031,0.004 0.1494,0.0287 0.046,0.0236 0.085,0.0596 0.1114,0.10421 z m 0.773,-0.40526 c 0.3135,0.33657 0.9677,0.16588 1.4698,0.47779 0.5635,0.34983 0.4812,1.02948 0.2898,1.27963 0.038,-0.88091 -1.9035,-0.65058 -1.7596,-1.75742 z m 1.118,-0.41735 c -0.013,-0.0114 -0.026,-0.0233 -0.039,-0.035 0.013,0.0114 0.026,0.0242 0.039,0.035 z m 0.4506,0.80625 v -9.6e-4 c -0.017,-0.0328 -0.038,-0.064 -0.059,-0.0936 -0.066,-0.0891 -0.1592,-0.15301 -0.2659,-0.18086 -0.071,-0.0184 -0.1434,-0.0298 -0.2167,-0.0344 -0.074,-0.004 -0.1497,-0.01 -0.226,-0.013 -0.1532,-0.01 -0.3098,-0.0243 -0.463,-0.0682 -0.039,-0.0114 -0.076,-0.023 -0.1135,-0.0373 -0.019,-0.006 -0.038,-0.0146 -0.056,-0.0225 -0.019,-0.008 -0.039,-0.0173 -0.057,-0.0272 -0.072,-0.0397 -0.1386,-0.0884 -0.1985,-0.14488 -0.1178,-0.11038 -0.2105,-0.23534 -0.3034,-0.35656 -0.087,-0.12177 -0.1814,-0.2386 -0.2813,-0.35021 -0.099,-0.10923 -0.2152,-0.20088 -0.3445,-0.27056 -0.1342,-0.0679 -0.2795,-0.10973 -0.429,-0.12308 0.155,-0.017 0.3119,0.003 0.4583,0.0562 0.1477,0.0577 0.2828,0.14392 0.3975,0.25382 0.075,0.0707 0.1454,0.14602 0.2105,0.22572 0.4861,-0.0962 0.8805,-0.0114 1.1836,0.15515 l 0.011,0.003 c 0.097,0.0526 0.1867,0.11574 0.2695,0.18817 0.014,0.0114 0.026,0.0231 0.039,0.0349 0.065,0.0595 0.1247,0.12388 0.1797,0.19243 v 0.004 c 0.179,0.22783 0.2674,0.4647 0.2676,0.60826 z m -2.9913,-1.58039 c 0.1238,0.0181 0.2505,0.0677 0.3321,0.16246 0.082,0.0946 0.1114,0.21784 0.1351,0.33502 0.019,0.0909 0.034,0.1834 0.07,0.2694 0.017,0.042 0.042,0.0789 0.063,0.11835 0.017,0.0328 0.049,0.0625 0.061,0.0977 0,0.004 0,0.0114 0,0.0163 -5e-4,0.004 0,0.0114 -0.011,0.0146 -0.043,0.0482 -0.16,-0.004 -0.204,-0.0268 -0.075,-0.0379 -0.1442,-0.0902 -0.2007,-0.15401 -0.1767,-0.19725 -0.268,-0.48107 -0.2625,-0.73952 0,-0.0314 0,-0.0626 0.011,-0.0938 z m 2.0746,2.22386 c 0.3162,0.21879 0.8177,0.36752 0.9872,0.77567 0.1939,0.4649 -0.028,1.05084 -0.4951,1.2448 0.4554,-0.76431 -0.76,-1.26867 -0.4921,-2.02047 z m -1.6075,0.98329 c 0.073,-0.0553 0.1528,-0.10098 0.2375,-0.1356 0.086,-0.0345 0.1744,-0.0605 0.2652,-0.077 0.1801,-0.0345 0.3584,-0.043 0.508,-0.10334 0.074,-0.0291 0.1422,-0.0714 0.2008,-0.12518 0.057,-0.0533 0.1,-0.11901 0.1272,-0.19246 0.027,-0.0774 0.039,-0.15954 0.032,-0.24148 -0.011,-0.0879 -0.027,-0.17442 -0.058,-0.2565 0.067,0.0696 0.1153,0.15498 0.1415,0.24811 0.026,0.0931 0.029,0.19131 0.011,0.28588 -0.023,0.10012 -0.074,0.19163 -0.1459,0.26458 -0.071,0.0707 -0.1574,0.12455 -0.252,0.15776 -0.09,0.0319 -0.1843,0.0511 -0.2796,0.0577 -0.092,0.008 -0.1807,0.0114 -0.2679,0.0146 -0.1765,0.009 -0.3508,0.042 -0.5168,0.10269 z m -0.241,-2.08088 c -0.012,0.041 -0.03,0.0795 -0.055,0.11331 -0.047,0.0617 -0.1097,0.10971 -0.1814,0.13951 -0.065,0.0278 -0.1326,0.0459 -0.2024,0.0534 -0.014,0.003 -0.031,0.003 -0.046,0.003 -0.044,9.5e-4 -0.086,0.0176 -0.1212,0.0453 -0.034,0.0277 -0.059,0.0659 -0.071,0.10858 -0.011,0.0214 -0.011,0.043 -0.012,0.0648 -0.011,0.0567 -0.011,0.11543 -0.014,0.18667 -0.014,0.12112 -0.049,0.23897 -0.1031,0.34867 -0.069,0.14668 -0.1471,0.26477 -0.1289,0.43372 0.012,0.10973 0.068,0.1832 0.1421,0.25902 0.134,0.13772 0.4339,0.19935 0.3669,0.53878 -0.04,0.20263 -0.3745,0.41526 -0.8442,0.48953 0.047,-0.008 -0.06,-0.1878 -0.067,-0.19935 -0.049,-0.0793 -0.1053,-0.15399 -0.1453,-0.23995 -0.078,-0.16684 -0.1148,-0.35985 -0.083,-0.54264 0.033,-0.19244 0.1757,-0.33984 0.2933,-0.48684 0.1401,-0.1749 0.2871,-0.40411 0.3196,-0.63116 0.011,-0.0551 0.014,-0.12389 0.025,-0.19242 0.012,-0.0759 0.035,-0.14944 0.07,-0.21782 0.024,-0.0449 0.055,-0.0853 0.092,-0.11966 0.019,-0.0182 0.032,-0.0423 0.037,-0.0689 0,-0.0265 -7e-4,-0.0533 -0.014,-0.0767 l -0.7488,-1.35391 1.0756,1.33428 c 0.014,0.0146 0.028,0.0279 0.045,0.0367 0.017,0.01 0.038,0.0146 0.057,0.0146 0.021,4.3e-4 0.04,-0.003 0.057,-0.0114 0.018,-0.008 0.033,-0.0199 0.047,-0.0349 0.014,-0.0163 0.021,-0.0361 0.023,-0.0573 4e-4,-0.0209 -0.011,-0.0416 -0.019,-0.0581 -0.07,-0.0902 -0.1446,-0.18224 -0.2165,-0.27267 l -0.2706,-0.33674 -0.5433,-0.67236 -0.7508,-0.94526 0.8205,0.88505 0.5782,0.6427 0.2885,0.32212 c 0.096,0.10826 0.1914,0.21321 0.2871,0.32711 l 0.016,0.0192 v 0.0298 c 0.011,0.0405 0,0.0814 -0.011,0.12112 z"
           id="path12808"
           sodipodi:nodetypes="cccccccccccccccccccccccccccccccccccccccccccccccsccccccccccccccccccccccccccccccccccccccccccccccccccccccccccccccccccccccccccccccccccccccccccccccccccsccccccccccccccc" />
        <g
           transform="translate(0,-0.10240946)"
           id="g12848">
          <circle
             style="fill:#496ee3;fill-opacity:1;stroke:none;stroke-width:0.00035106;stroke-miterlimit:4;stroke-dasharray:none;stroke-opacity:1"
             id="circle12810"
             cx="7337.1812"
             cy="194.10417"
             r="2.6580536" />
          <polygon
             style="fill:#c0ccf9;fill-opacity:1"
             points="78.556455,176.77997 157.11346,130.34513 78.556455,0 76.840579,5.8321343 76.840579,175.06716 "
             id="polygon12812"
             transform="matrix(0.01547709,0,0,0.01547709,7335.965,192.12354)" />
          <polygon
             style="fill:#ffffff;fill-opacity:1"
             points="78.557007,0 0,130.34513 78.557007,176.78059 78.557007,94.638964 "
             id="polygon12814"
             transform="matrix(0.01547709,0,0,0.01547709,7335.965,192.12354)" />
          <polygon
             style="fill:#c0ccf9;fill-opacity:1"
             points="78.556455,255.94266 157.16012,145.24261 78.556455,191.65412 77.589548,192.83283 77.589548,253.11807 "
             id="polygon12816"
             transform="matrix(0.01547709,0,0,0.01547709,7335.965,192.12354)" />
          <polygon
             style="fill:#ffffff;fill-opacity:1"
             points="0,145.24175 78.557007,255.9418 78.557007,191.65326 "
             id="polygon12818"
             transform="matrix(0.01547709,0,0,0.01547709,7335.965,192.12354)" />
          <polygon
             style="fill:#8196f1;fill-opacity:1"
             points="78.556455,94.639394 78.556455,176.77979 157.11223,130.34556 "
             id="polygon12820"
             transform="matrix(0.01547709,0,0,0.01547709,7335.965,192.12354)" />
          <polygon
             style="fill:#c0ccf9;fill-opacity:1"
             points="78.556332,94.639455 0.00055251799,130.34562 78.556332,176.77985 "
             id="polygon12822"
             transform="matrix(0.01547709,0,0,0.01547709,7335.965,192.12354)" />
          <path
             style="fill:#000000;stroke-width:0.28867617"
             id="path12824"
             d="m 7337.1813,186.58595 c 1.468,0 2.658,-1.19003 2.658,-2.65804 0,-1.46799 -1.19,-2.65804 -2.658,-2.65804 -1.468,0 -2.6581,1.19005 -2.6581,2.65804 0,1.46801 1.1901,2.65804 2.6581,2.65804 z"
             inkscape:connector-curvature="0" />
          <path
             id="path12826"
             d="m 7336.0587,184.8192 c -0.079,-0.0487 -0.1281,-0.13522 -0.1281,-0.22821 v -0.51926 c 0,-0.0199 0.011,-0.0391 0.015,-0.0561 0.031,-0.0533 0.1,-0.0713 0.1526,-0.0402 l 1.1721,0.68325 c 0.069,0.0401 0.1108,0.11321 0.1108,0.19272 v 0.53808 c 0,0.0245 -0.011,0.049 -0.019,0.0699 -0.039,0.0632 -0.121,0.083 -0.1841,0.0444 z m 1.7469,-0.98599 c 0.069,0.0401 0.1109,0.11323 0.1109,0.19273 v 1.09177 c 0,0.0322 -0.017,0.0621 -0.045,0.0777 l -0.2566,0.14446 c 0,0.002 -0.011,0.003 -0.011,0.004 v -0.60622 c 0,-0.0784 -0.041,-0.15121 -0.1086,-0.19168 l -1.0293,-0.6158 v -0.6843 c 0,-0.02 0.011,-0.0391 0.015,-0.0562 0.031,-0.0533 0.1,-0.0713 0.1526,-0.0402 z m 0.513,-0.80641 c 0.069,0.0397 0.111,0.11359 0.111,0.19309 v 1.59472 c 0,0.0327 -0.018,0.0628 -0.047,0.0784 l -0.243,0.13131 v -1.11021 c 0,-0.0784 -0.041,-0.15086 -0.1084,-0.19131 l -1.0519,-0.63108 v -0.64916 c 0,-0.0199 0.011,-0.0391 0.015,-0.0561 0.031,-0.0533 0.1,-0.0713 0.1528,-0.0404 z"
             inkscape:connector-curvature="0"
             style="clip-rule:evenodd;fill:#00d395;fill-rule:evenodd;stroke-width:0.28867617" />
          <text
             xml:space="preserve"
             style="font-style:normal;font-variant:normal;font-weight:500;font-stretch:normal;font-size:4.30622578px;line-height:1.25;font-family:'TT Hoves';-inkscape-font-specification:'TT Hoves Medium';letter-spacing:0px;word-spacing:0px;fill:#657795;fill-opacity:1;stroke:none;stroke-width:0.10765565"
             x="7343.4512"
             y="185.33919"
             id="text12830"><tspan
               id="tspan12828"
               sodipodi:role="line"
               x="7343.4512"
               y="185.33919"
               style="font-style:normal;font-variant:normal;font-weight:500;font-stretch:normal;font-family:'TT Hoves';-inkscape-font-specification:'TT Hoves Medium';fill:#657795;fill-opacity:1;stroke-width:0.10765565">COMP </tspan></text>
          <path
             style="fill:none;stroke:#dedfe4;stroke-width:0.36720851px;stroke-linecap:butt;stroke-linejoin:miter;stroke-opacity:1"
             d="m 7360.1339,180.91641 v 5.83127"
             id="path12832"
             inkscape:connector-curvature="0" />
          <text
             id="text12836"
             y="185.33919"
             x="7363.8452"
             style="font-style:normal;font-variant:normal;font-weight:normal;font-stretch:normal;font-size:4.30622578px;line-height:1.25;font-family:'TT Hoves';-inkscape-font-specification:'TT Hoves';letter-spacing:0px;word-spacing:0px;fill:#94a2bb;fill-opacity:1;stroke:none;stroke-width:0.10765565"
             xml:space="preserve"><tspan
               style="font-style:normal;font-variant:normal;font-weight:normal;font-stretch:normal;font-family:'TT Hoves';-inkscape-font-specification:'TT Hoves';fill:#94a2bb;fill-opacity:1;stroke-width:0.10765565"
               y="185.33919"
               x="7363.8452"
               sodipodi:role="line"
               id="tspan12834">50%</tspan></text>
          <text
             id="text12840"
             y="195.5321"
             x="7343.4512"
             style="font-style:normal;font-variant:normal;font-weight:500;font-stretch:normal;font-size:4.30622578px;line-height:1.25;font-family:'TT Hoves';-inkscape-font-specification:'TT Hoves Medium';letter-spacing:0px;word-spacing:0px;fill:#657795;fill-opacity:1;stroke:none;stroke-width:0.10765565"
             xml:space="preserve"><tspan
               style="font-style:normal;font-variant:normal;font-weight:500;font-stretch:normal;font-family:'TT Hoves';-inkscape-font-specification:'TT Hoves Medium';fill:#657795;fill-opacity:1;stroke-width:0.10765565"
               y="195.5321"
               x="7343.4512"
               sodipodi:role="line"
               id="tspan12838">WETH </tspan></text>
          <path
             inkscape:connector-curvature="0"
             id="path12842"
             d="m 7360.1339,191.48918 v 5.83128"
             style="fill:none;stroke:#dedfe4;stroke-width:0.36720851px;stroke-linecap:butt;stroke-linejoin:miter;stroke-opacity:1" />
          <text
             xml:space="preserve"
             style="font-style:normal;font-variant:normal;font-weight:normal;font-stretch:normal;font-size:4.30622578px;line-height:1.25;font-family:'TT Hoves';-inkscape-font-specification:'TT Hoves';letter-spacing:0px;word-spacing:0px;fill:#94a2bb;fill-opacity:1;stroke:none;stroke-width:0.10765565"
             x="7363.8452"
             y="195.5321"
             id="text12846"><tspan
               id="tspan12844"
               sodipodi:role="line"
               x="7363.8452"
               y="195.5321"
               style="font-style:normal;font-variant:normal;font-weight:normal;font-stretch:normal;font-family:'TT Hoves';-inkscape-font-specification:'TT Hoves';fill:#94a2bb;fill-opacity:1;stroke-width:0.10765565">50%</tspan></text>
        </g>
      </g>
      <rect
         ry="1.921271"
         rx="1.921271"
         y="173.92805"
         x="7242.2573"
         height="30.175941"
         width="59.584709"
         id="rect12852"
         style="fill:#fafafc;fill-opacity:1;stroke:none;stroke-width:0.17943294;stroke-miterlimit:4;stroke-dasharray:none;stroke-dashoffset:0;stroke-opacity:1" />
      <circle
         r="4.2865691"
         cy="175.71207"
         cx="7244.667"
         id="circle12854"
         style="fill:#ffffff;fill-opacity:0.99523806;stroke:#f6f6f9;stroke-width:0.23868762;stroke-miterlimit:4;stroke-dasharray:none;stroke-opacity:1" />
      <path
         inkscape:connector-curvature="0"
         style="fill:#000000;fill-opacity:0.99523806;stroke:none;stroke-width:0.19386242;stroke-miterlimit:4;stroke-dasharray:none;stroke-opacity:1"
         d="m 7243.2054,176.07847 a 2.6862139,0.9918145 0 0 0 -1.2239,0.83162 2.6862139,0.9918145 0 0 0 2.6862,0.99196 2.6862139,0.9918145 0 0 0 2.6862,-0.99196 2.6862139,0.9918145 0 0 0 -1.2258,-0.83133 c -0.1848,0.0633 -0.3892,0.11951 -0.622,0.15659 -0.2588,0.0411 -0.5421,0.0641 -0.8384,0.0641 -0.2962,0 -0.5796,-0.0229 -0.8383,-0.0641 -0.2335,-0.0372 -0.4387,-0.0933 -0.624,-0.15688 z"
         id="path12856" />
      <path
         inkscape:connector-curvature="0"
         style="fill:#000000;fill-opacity:0.99523806;stroke:none;stroke-width:0.19386242;stroke-miterlimit:4;stroke-dasharray:none;stroke-opacity:1"
         d="m 7243.5644,174.68896 a 2.1131552,0.78022748 0 0 0 -1.01,0.6646 2.1131552,0.78022748 0 0 0 2.1133,0.7803 2.1131552,0.78022748 0 0 0 2.1133,-0.7803 2.1131552,0.78022748 0 0 0 -1.0108,-0.66431 c -0.1413,0.049 -0.2984,0.09 -0.4759,0.11686 -0.1932,0.0292 -0.4045,0.0444 -0.6266,0.0444 -0.222,0 -0.4333,-0.0152 -0.6265,-0.0444 -0.1777,-0.0269 -0.3353,-0.068 -0.4768,-0.11715 z"
         id="path12858" />
      <ellipse
         ry="0.58186454"
         rx="1.5759124"
         cy="174.1039"
         cx="7244.6675"
         id="ellipse12860"
         style="fill:#000000;fill-opacity:0.99523806;stroke:none;stroke-width:0.19386242;stroke-miterlimit:4;stroke-dasharray:none;stroke-opacity:1" />
      <g
         id="g12892"
         transform="translate(-6.1277212,-1.4855745)">
        <circle
           id="circle12862"
           r="2.6580534"
           cy="195.52536"
           cx="7260.7461"
           style="fill:#fdc134;stroke-width:0.0300345" />
        <path
           id="path12864"
           d="m 7259.7385,194.27362 h 1.0125 c 0.6158,0 1.0827,0.33105 1.2564,0.81273 h 0.3154 v 0.29116 h -0.249 c 0.011,0.046 0.011,0.0929 0.011,0.1405 v 0.006 c 0,0.0536 0,0.10635 -0.011,0.15794 h 0.251 v 0.29117 h -0.3215 c -0.1782,0.47498 -0.6415,0.80288 -1.2504,0.80288 h -1.0125 v -0.80288 h -0.3519 v -0.29117 h 0.3519 v -0.3056 h -0.3519 v -0.29114 h 0.3519 z m 0.2829,1.70065 v 0.5417 h 0.7296 c 0.4501,0 0.7845,-0.21697 0.9403,-0.5417 z m 1.7566,-0.29116 h -1.7566 v -0.3056 h 1.757 c 0.011,0.0481 0.011,0.0974 0.011,0.14766 v 0.006 c 0,0.0515 0,0.10174 -0.011,0.15079 z m -1.027,-1.14873 c 0.4522,0 0.7876,0.22268 0.9424,0.55197 h -1.672 v -0.55197 z"
           inkscape:connector-curvature="0"
           style="clip-rule:evenodd;fill:#ffffff;fill-rule:evenodd;stroke-width:0.0300345" />
        <path
           style="fill:#0f0c20;fill-opacity:1;stroke-width:0.28867799"
           id="path12866"
           d="m 7260.7463,187.61066 c 1.4681,0 2.6582,-1.19003 2.6582,-2.65805 0,-1.468 -1.1901,-2.65806 -2.6582,-2.65806 -1.4678,0 -2.658,1.19006 -2.658,2.65806 0,1.46802 1.1902,2.65805 2.658,2.65805 z"
           inkscape:connector-curvature="0" />
        <path
           sodipodi:nodetypes="cc"
           inkscape:connector-curvature="0"
           id="path12868"
           d="m 7259.616,186.29967 2.113,-2.90584"
           style="fill:none;stroke:#86858f;stroke-width:0.42528862;stroke-linecap:round;stroke-linejoin:round;stroke-miterlimit:4;stroke-dasharray:none;stroke-opacity:1" />
        <path
           sodipodi:nodetypes="cccccc"
           inkscape:connector-curvature="0"
           id="path12870"
           d="m 7261.729,183.39383 h -1.3466 c -1.0705,0 -1.0275,1.44165 -0.054,1.44165 h 0.5671 c 1.1041,0 1.1416,1.46419 0.049,1.46419 h -1.329"
           style="fill:none;stroke:#ffffff;stroke-width:0.42528862;stroke-linecap:round;stroke-linejoin:round;stroke-miterlimit:4;stroke-dasharray:none;stroke-opacity:1" />
        <text
           xml:space="preserve"
           style="font-style:normal;font-variant:normal;font-weight:500;font-stretch:normal;font-size:4.30622625px;line-height:1.25;font-family:'TT Hoves';-inkscape-font-specification:'TT Hoves Medium';letter-spacing:0px;word-spacing:0px;fill:#657795;fill-opacity:1;stroke:none;stroke-width:0.10765565"
           x="7267.3735"
           y="186.72733"
           id="text12874"><tspan
             id="tspan12872"
             sodipodi:role="line"
             x="7267.3735"
             y="186.72733"
             style="font-style:normal;font-variant:normal;font-weight:500;font-stretch:normal;font-family:'TT Hoves';-inkscape-font-specification:'TT Hoves Medium';fill:#657795;fill-opacity:1;stroke-width:0.10765565">SNX </tspan></text>
        <path
           style="fill:none;stroke:#dedfe4;stroke-width:0.36720854px;stroke-linecap:butt;stroke-linejoin:miter;stroke-opacity:1"
           d="m 7280.8032,182.3046 v 5.83128"
           id="path12876"
           inkscape:connector-curvature="0" />
        <text
           id="text12880"
           y="186.72733"
           x="7285.7007"
           style="font-style:normal;font-variant:normal;font-weight:normal;font-stretch:normal;font-size:4.30622625px;line-height:1.25;font-family:'TT Hoves';-inkscape-font-specification:'TT Hoves';letter-spacing:0px;word-spacing:0px;fill:#94a2bb;fill-opacity:1;stroke:none;stroke-width:0.10765565"
           xml:space="preserve"><tspan
             style="font-style:normal;font-variant:normal;font-weight:normal;font-stretch:normal;font-family:'TT Hoves';-inkscape-font-specification:'TT Hoves';fill:#94a2bb;fill-opacity:1;stroke-width:0.10765565"
             y="186.72733"
             x="7285.7007"
             sodipodi:role="line"
             id="tspan12878">40%</tspan></text>
        <text
           id="text12884"
           y="196.9203"
           x="7267.3735"
           style="font-style:normal;font-variant:normal;font-weight:500;font-stretch:normal;font-size:4.30622625px;line-height:1.25;font-family:'TT Hoves';-inkscape-font-specification:'TT Hoves Medium';letter-spacing:0px;word-spacing:0px;fill:#657795;fill-opacity:1;stroke:none;stroke-width:0.10765565"
           xml:space="preserve"><tspan
             style="font-style:normal;font-variant:normal;font-weight:500;font-stretch:normal;font-family:'TT Hoves';-inkscape-font-specification:'TT Hoves Medium';fill:#657795;fill-opacity:1;stroke-width:0.10765565"
             y="196.9203"
             x="7267.3735"
             sodipodi:role="line"
             id="tspan12882">DAI </tspan></text>
        <path
           inkscape:connector-curvature="0"
           id="path12886"
           d="m 7280.8032,192.87739 v 5.83126"
           style="fill:none;stroke:#dedfe4;stroke-width:0.36720854px;stroke-linecap:butt;stroke-linejoin:miter;stroke-opacity:1" />
        <text
           xml:space="preserve"
           style="font-style:normal;font-variant:normal;font-weight:normal;font-stretch:normal;font-size:4.30622625px;line-height:1.25;font-family:'TT Hoves';-inkscape-font-specification:'TT Hoves';letter-spacing:0px;word-spacing:0px;fill:#94a2bb;fill-opacity:1;stroke:none;stroke-width:0.10765565"
           x="7285.7007"
           y="196.9203"
           id="text12890"><tspan
             id="tspan12888"
             sodipodi:role="line"
             x="7285.7007"
             y="196.9203"
             style="font-style:normal;font-variant:normal;font-weight:normal;font-stretch:normal;font-family:'TT Hoves';-inkscape-font-specification:'TT Hoves';fill:#94a2bb;fill-opacity:1;stroke-width:0.10765565">60%</tspan></text>
      </g>
      <g
         id="g12962"
         transform="translate(34.361563,43.037033)">
        <rect
           ry="1.921271"
           rx="1.921271"
           y="130.89102"
           x="7279.8389"
           height="30.175941"
           width="59.584709"
           id="rect12894"
           style="fill:#fafafc;fill-opacity:1;stroke:none;stroke-width:0.17943294;stroke-miterlimit:4;stroke-dasharray:none;stroke-dashoffset:0;stroke-opacity:1" />
        <circle
           style="fill:#ffffff;fill-opacity:0.99523806;stroke:#f6f6f9;stroke-width:0.23868763;stroke-miterlimit:4;stroke-dasharray:none;stroke-opacity:1"
           id="circle12896"
           cx="7280.9639"
           cy="131.23224"
           r="4.2865691" />
        <g
           transform="translate(0,-0.07140754)"
           id="g12938">
          <text
             xml:space="preserve"
             style="font-style:normal;font-variant:normal;font-weight:500;font-stretch:normal;font-size:4.30622625px;line-height:1.25;font-family:'TT Hoves';-inkscape-font-specification:'TT Hoves Medium';letter-spacing:0px;word-spacing:0px;fill:#657795;fill-opacity:1;stroke:none;stroke-width:0.10765565"
             x="7298.4321"
             y="142.27112"
             id="text12900"><tspan
               id="tspan12898"
               sodipodi:role="line"
               x="7298.4321"
               y="142.27112"
               style="font-style:normal;font-variant:normal;font-weight:500;font-stretch:normal;font-family:'TT Hoves';-inkscape-font-specification:'TT Hoves Medium';fill:#657795;fill-opacity:1;stroke-width:0.10765565">WETH </tspan></text>
          <path
             style="fill:#000000;stroke-width:0.02078133"
             id="path12902"
             d="m 7293.2059,151.54375 c -0.061,-0.0306 -0.1978,-0.072 -0.3603,-0.0828 -0.1624,-0.0108 -0.3709,0 -0.3709,0 v 0.70355 c 0,0 0.2177,0.004 0.3634,-0.005 0.1454,-0.0107 0.2957,-0.0475 0.3709,-0.0889 0.075,-0.0414 0.1655,-0.10581 0.1655,-0.26668 0,-0.16098 -0.1074,-0.22838 -0.1686,-0.25904 z"
             inkscape:connector-curvature="0" />
          <path
             style="fill:#000000;stroke-width:0.02078133"
             id="path12904"
             d="m 7292.7476,151.13444 c 0.1196,-0.004 0.2468,-0.0321 0.3387,-0.0827 0.092,-0.0506 0.1441,-0.13023 0.1411,-0.24983 0,-0.11958 -0.084,-0.22072 -0.2177,-0.26215 -0.1349,-0.0414 -0.2252,-0.0445 -0.3281,-0.046 -0.1031,-0.002 -0.2069,0.008 -0.2069,0.008 v 0.63305 c 0,0 0.1533,0.004 0.2729,0 z"
             inkscape:connector-curvature="0" />
          <path
             style="fill:#000000;stroke-width:0.02078133"
             id="path12906"
             d="m 7292.6832,148.67884 c -1.468,0 -2.658,1.18999 -2.658,2.65796 0,1.46793 1.19,2.65796 2.658,2.65796 1.4679,0 2.6579,-1.19003 2.6579,-2.65796 0,-1.46797 -1.19,-2.65796 -2.6579,-2.65796 z m 1.0823,3.67423 c -0.1979,0.13798 -0.4094,0.16253 -0.503,0.17474 -0.046,0.005 -0.1252,0.0125 -0.2099,0.0174 v 0.53289 h -0.328 v -0.52427 c -0.061,0 -0.1492,0 -0.2499,0 v 0.52427 h -0.328 v -0.52427 c -0.3247,0 -0.6453,0 -0.6453,0 l 0.067,-0.39401 c 0,0 0.1303,0 0.1962,0 0.067,0 0.093,-0.005 0.1211,-0.0322 0.028,-0.026 0.033,-0.0658 0.033,-0.0982 0,-0.0322 0,-1.27224 0,-1.35733 0,-0.0851 -0.011,-0.10803 -0.046,-0.15169 -0.04,-0.0437 -0.1312,-0.0495 -0.1828,-0.0495 -0.052,0 -0.1896,0 -0.1896,0 v -0.34059 c 0,0 0.3103,0 0.6453,0 v -0.52578 h 0.3279 v 0.52578 c 0.091,0 0.1766,0 0.2498,0 v -0.52578 h 0.3282 v 0.53207 c 0.2445,0.0152 0.4266,0.0618 0.5855,0.17918 0.2054,0.15175 0.1946,0.41539 0.19,0.47824 0,0.0628 -0.032,0.18397 -0.087,0.26209 -0.055,0.0781 -0.1901,0.15639 -0.1901,0.15639 0,0 0.1595,0.0337 0.2714,0.11802 0.1118,0.0843 0.1947,0.23297 0.19,0.45064 0,0.21768 -0.049,0.43383 -0.2466,0.57178 z"
             inkscape:connector-curvature="0" />
          <circle
             style="fill:#496ee3;fill-opacity:1;stroke:none;stroke-width:0.00035106;stroke-miterlimit:4;stroke-dasharray:none;stroke-opacity:1"
             id="circle12908"
             cx="7292.6836"
             cy="140.76402"
             r="2.6580536" />
          <polygon
             style="fill:#c0ccf9;fill-opacity:1"
             points="76.840579,5.8321343 76.840579,175.06716 78.556455,176.77997 157.11346,130.34513 78.556455,0 "
             id="polygon12910"
             transform="matrix(0.01547709,0,0,0.01547709,7291.4669,138.78339)" />
          <polygon
             style="fill:#ffffff;fill-opacity:1"
             points="78.557007,94.638964 78.557007,0 0,130.34513 78.557007,176.78059 "
             id="polygon12912"
             transform="matrix(0.01547709,0,0,0.01547709,7291.4669,138.78339)" />
          <polygon
             style="fill:#c0ccf9;fill-opacity:1"
             points="77.589548,192.83283 77.589548,253.11807 78.556455,255.94266 157.16012,145.24261 78.556455,191.65412 "
             id="polygon12914"
             transform="matrix(0.01547709,0,0,0.01547709,7291.4669,138.78339)" />
          <polygon
             style="fill:#ffffff;fill-opacity:1"
             points="0,145.24175 78.557007,255.9418 78.557007,191.65326 "
             id="polygon12916"
             transform="matrix(0.01547709,0,0,0.01547709,7291.4669,138.78339)" />
          <polygon
             style="fill:#8196f1;fill-opacity:1"
             points="78.556455,94.639394 78.556455,176.77979 157.11223,130.34556 "
             id="polygon12918"
             transform="matrix(0.01547709,0,0,0.01547709,7291.4669,138.78339)" />
          <polygon
             style="fill:#c0ccf9;fill-opacity:1"
             points="78.556332,94.639455 0.00055251799,130.34562 78.556332,176.77985 "
             id="polygon12920"
             transform="matrix(0.01547709,0,0,0.01547709,7291.4669,138.78339)" />
          <path
             style="fill:none;stroke:#dedfe4;stroke-width:0.36720854px;stroke-linecap:butt;stroke-linejoin:miter;stroke-opacity:1"
             d="m 7315.262,137.84837 v 5.83128"
             id="path12922"
             inkscape:connector-curvature="0" />
          <text
             id="text12926"
             y="142.27112"
             x="7319.0225"
             style="font-style:normal;font-variant:normal;font-weight:normal;font-stretch:normal;font-size:4.30622625px;line-height:1.25;font-family:'TT Hoves';-inkscape-font-specification:'TT Hoves';letter-spacing:0px;word-spacing:0px;fill:#94a2bb;fill-opacity:1;stroke:none;stroke-width:0.10765565"
             xml:space="preserve"><tspan
               style="font-style:normal;font-variant:normal;font-weight:normal;font-stretch:normal;font-family:'TT Hoves';-inkscape-font-specification:'TT Hoves';fill:#94a2bb;fill-opacity:1;stroke-width:0.10765565"
               y="142.27112"
               x="7319.0225"
               sodipodi:role="line"
               id="tspan12924">50%</tspan></text>
          <text
             id="text12930"
             y="152.46404"
             x="7298.4321"
             style="font-style:normal;font-variant:normal;font-weight:500;font-stretch:normal;font-size:4.30622625px;line-height:1.25;font-family:'TT Hoves';-inkscape-font-specification:'TT Hoves Medium';letter-spacing:0px;word-spacing:0px;fill:#657795;fill-opacity:1;stroke:none;stroke-width:0.10765565"
             xml:space="preserve"><tspan
               style="font-style:normal;font-variant:normal;font-weight:500;font-stretch:normal;font-family:'TT Hoves';-inkscape-font-specification:'TT Hoves Medium';fill:#657795;fill-opacity:1;stroke-width:0.10765565"
               y="152.46404"
               x="7298.4321"
               sodipodi:role="line"
               id="tspan12928">WBTC </tspan></text>
          <path
             inkscape:connector-curvature="0"
             id="path12932"
             d="m 7315.262,148.42115 v 5.83128"
             style="fill:none;stroke:#dedfe4;stroke-width:0.36720854px;stroke-linecap:butt;stroke-linejoin:miter;stroke-opacity:1" />
          <text
             xml:space="preserve"
             style="font-style:normal;font-variant:normal;font-weight:normal;font-stretch:normal;font-size:4.30622625px;line-height:1.25;font-family:'TT Hoves';-inkscape-font-specification:'TT Hoves';letter-spacing:0px;word-spacing:0px;fill:#94a2bb;fill-opacity:1;stroke:none;stroke-width:0.10765565"
             x="7319.0225"
             y="152.46404"
             id="text12936"><tspan
               id="tspan12934"
               sodipodi:role="line"
               x="7319.0225"
               y="152.46404"
               style="font-style:normal;font-variant:normal;font-weight:normal;font-stretch:normal;font-family:'TT Hoves';-inkscape-font-specification:'TT Hoves';fill:#94a2bb;fill-opacity:1;stroke-width:0.10765565">50%</tspan></text>
        </g>
        <g
           inkscape:export-ydpi="96"
           inkscape:export-xdpi="96"
           inkscape:export-filename="/home/robert/Documents/projects/croco-finance/frontend/src/data/images/landing-page/pools.png"
           id="g12960"
           style="fill:none"
           transform="matrix(0.07033014,0,0,0.07033014,7277.5291,127.61892)">
          <g
             style="clip-rule:evenodd;fill-rule:evenodd;stroke-linecap:round;stroke-linejoin:round"
             id="g12942"
             transform="matrix(0.31848302,0,0,0.31848268,-5559.7683,-2291.9632)">
            <path
               id="path12940"
               style="fill:#ffffff"
               d="m 17721.1,7385.28 c 0,0 -42.6,59.38 -42.6,59.38 -6.7,9.43 -19.7,13.97 -36.6,12.58 -21.8,-1.8 -50.7,-13.32 -78.4,-33.19 -27.7,-19.88 -47.9,-43.56 -56.7,-63.61 -6.7,-15.54 -6.6,-29.26 0.2,-38.7 0,0 42.5,-59.38 42.5,-59.38 6.8,-9.43 19.8,-13.97 36.6,-12.58 21.8,1.8 50.8,13.33 78.5,33.2 27.7,19.87 47.9,43.55 56.6,63.6 6.8,15.54 6.6,29.27 -0.1,38.7 z m -160.2,-114.76 c 4.4,-6.1 13.2,-7.68 24.1,-6.78 19.9,1.64 46.1,12.48 71.4,30.62 25.3,18.13 44,39.5 52,57.8 4.3,10.03 5.7,18.87 1.3,24.97 l 5.7,4.07 c 0,0 -5.7,-4.07 -5.7,-4.07 l -42.6,59.38 c -4.3,6.09 -13.1,7.68 -24,6.77 -19.9,-1.63 -46.2,-12.48 -71.5,-30.61 -25.3,-18.14 -44,-39.51 -51.9,-57.8 -4.4,-10.04 -5.7,-18.88 -1.3,-24.97 0,0 42.5,-59.38 42.5,-59.38 z"
               inkscape:connector-curvature="0" />
          </g>
          <g
             style="clip-rule:evenodd;fill-rule:evenodd;stroke-linecap:round;stroke-linejoin:round"
             id="g12946"
             transform="matrix(0.31848302,0,0,0.31848268,-5558.212,-2294.469)">
            <path
               id="path12944"
               style="fill:#ffffff"
               d="m 17550.4,7275.75 c 13.9,-19.4 61,-9.44 105.2,22.22 44.2,31.67 68.8,73.14 54.9,92.54 0,0 -42.5,59.38 -42.5,59.38 -13.9,19.4 -61.1,9.44 -105.3,-22.23 -44.2,-31.67 -68.8,-73.13 -54.9,-92.53 0,0 42.6,-59.38 42.6,-59.38 z"
               inkscape:connector-curvature="0" />
          </g>
          <path
             inkscape:connector-curvature="0"
             d="m 30.316318,21.587516 c 1.969326,-2.757055 5.776691,-3.971473 10.700006,-3.577608 6.794176,0.557976 15.787432,4.201228 24.452468,10.371782 8.632213,6.203376 14.966879,13.588347 17.658292,19.824546 1.969326,4.529449 2.03497,8.533744 0.06564,11.2908 0,0 -13.522707,18.905527 -13.522707,18.905527 -1.969326,2.757056 -5.809512,3.971473 -10.700006,3.577608 C 52.175839,81.389374 43.149761,77.778943 34.517548,71.575567 25.852512,65.405013 19.550668,58.020042 16.826433,51.783844 14.857107,47.254395 14.791463,43.250099 16.760789,40.493043 Z m 51.00555,36.563814 v -0.03282 c 1.575461,-2.16626 1.24724,-5.382825 -0.295399,-8.993256 C 78.433523,43.184455 72.361433,36.193349 64.090263,30.285372 55.851915,24.377395 47.285346,20.86543 40.819392,20.340277 c -3.938653,-0.328221 -7.056753,0.393865 -8.632214,2.592945 l -0.06564,0.131289 c -1.476995,2.19908 -1.148774,5.317179 0.393865,8.861965 2.592946,5.973622 8.665036,12.964728 16.903384,18.872705 8.238348,5.907977 16.804917,9.419941 23.270871,9.945095 3.873009,0.295399 6.925464,-0.393865 8.533748,-2.461657 l 0.09847,-0.164111 z M 60.250077,35.635373 c 4.135585,2.953989 7.188041,6.465953 8.468103,9.452764 0.754908,1.673926 0.951841,3.150921 0.196933,4.168406 -0.722087,1.017485 -2.199081,1.312883 -4.004297,1.148773 -3.249388,-0.262577 -7.516262,-2.03497 -11.651847,-4.988959 -4.135585,-2.953988 -7.188041,-6.43313 -8.468103,-9.419941 -0.722086,-1.673927 -0.919019,-3.150921 -0.196933,-4.168406 0.722087,-1.017485 2.199081,-1.312884 4.037119,-1.181595 3.216566,0.295399 7.516262,2.03497 11.619025,4.988958 z"
             style="clip-rule:evenodd;fill:#0e0f23;fill-rule:evenodd;stroke-width:0.32822099;stroke-linecap:round;stroke-linejoin:round"
             id="path12948" />
          <g
             style="clip-rule:evenodd;fill:#f355a2;fill-opacity:1;fill-rule:evenodd;stroke-linecap:round;stroke-linejoin:round"
             clip-path="url(#_clip1-8)"
             id="g12954"
             transform="matrix(0.32822104,0,0,0.32822095,-6087.9208,-5214.2259)">
            <g
               transform="matrix(1,0,0,-2.3719,1581.65,53337.7)"
               id="g12952"
               style="fill:#f355a2;fill-opacity:1">
              <path
                 inkscape:connector-curvature="0"
                 d="m 17004.5,15714.1 c 1.1,0 2.9,-1.1 3.9,-1.4 3.5,-1.1 7,-2.2 10.6,-3.1 10.5,-2.7 21.4,-4.2 32.2,-3.2 17,1.6 32.4,14.1 49.5,12.4 9.6,-0.9 16.4,-6.6 24.8,-10.5 8,-3.9 16.8,-5.6 25.7,-4.8 26.5,2.2 36.5,24.2 63.4,23 22.3,-1 13.6,-12.3 35,-16.3 0.2,-0.1 51.7,19 52.1,22.3 1.5,12.7 -27.1,162.3 -25.8,162.3 l -255.1,-39.5 z"
                 style="fill:#f355a2;fill-opacity:1"
                 id="path12950" />
            </g>
          </g>
          <g
             style="clip-rule:evenodd;fill-rule:evenodd;stroke-linecap:round;stroke-linejoin:round"
             id="g12958"
             transform="matrix(0.32822104,0,0,0.32822095,-6078.4795,-5228.3374)">
            <path
               id="path12956"
               style="fill:none;stroke:#ffffff;stroke-width:3px;stroke-dasharray:6, 6, 75, 75;stroke-dashoffset:3"
               d="m 18607.7,16015.7 c 1.1,26.3 27,51.4 46.9,68.4 27.7,23.6 72.3,41.3 97.2,37.3"
               inkscape:connector-curvature="0" />
          </g>
        </g>
      </g>
    </g>
  </g>
</svg>
