<?xml version="1.0" encoding="UTF-8" standalone="no"?>
<svg
   xmlns:dc="http://purl.org/dc/elements/1.1/"
   xmlns:cc="http://creativecommons.org/ns#"
   xmlns:rdf="http://www.w3.org/1999/02/22-rdf-syntax-ns#"
   xmlns:svg="http://www.w3.org/2000/svg"
   xmlns="http://www.w3.org/2000/svg"
   xmlns:sodipodi="http://sodipodi.sourceforge.net/DTD/sodipodi-0.dtd"
   xmlns:inkscape="http://www.inkscape.org/namespaces/inkscape"
   width="100"
   height="100.00017"
   viewBox="0 0 100 100.00016"
   version="1.1"
   id="svg8"
   sodipodi:docname="aave.svg"
   style="fill:none"
   inkscape:version="0.92.5 (2060ec1f9f, 2020-04-08)">
  <metadata
     id="metadata14">
    <rdf:RDF>
      <cc:Work
         rdf:about="">
        <dc:format>image/svg+xml</dc:format>
        <dc:type
           rdf:resource="http://purl.org/dc/dcmitype/StillImage" />
        <dc:title />
      </cc:Work>
    </rdf:RDF>
  </metadata>
  <defs
     id="defs12" />
  <sodipodi:namedview
     pagecolor="#ffffff"
     bordercolor="#666666"
     borderopacity="1"
     objecttolerance="10"
     gridtolerance="10"
     guidetolerance="10"
     inkscape:pageopacity="0"
     inkscape:pageshadow="2"
     inkscape:window-width="1920"
     inkscape:window-height="1043"
     id="namedview10"
     showgrid="false"
     fit-margin-top="0"
     fit-margin-left="0"
     fit-margin-right="0"
     fit-margin-bottom="0"
     inkscape:zoom="1.0429825"
     inkscape:cx="1.2001273"
     inkscape:cy="292.13816"
     inkscape:window-x="0"
     inkscape:window-y="0"
     inkscape:window-maximized="1"
     inkscape:current-layer="svg8" />
  <path
     style="fill:#36b3c6;fill-opacity:1;stroke-width:5.43025064"
     id="path856"
     d="M 50.00015,100.00017 C 77.61434,100.00017 100,77.614508 100,50.000054 100,22.385818 77.61434,4.9718407e-8 50.00015,4.9718407e-8 22.38581,4.9718407e-8 0,22.385818 0,50.000054 0,77.614508 22.38581,100.00017 50.00015,100.00017 Z"
     inkscape:connector-curvature="0" />
  <path
     style="fill:#4ca3bc;fill-opacity:1;stroke-width:4.76427317"
     id="path878"
     d="m 53.037982,88.804799 c 24.22753,0 43.867766,-19.640233 43.867766,-43.867989 0,-24.227565 -19.640236,-43.8679371 -43.867766,-43.8679371 -24.227638,0 -43.8680117,19.6403721 -43.8680117,43.8679371 0,24.227756 19.6403737,43.867989 43.8680117,43.867989 z"
     inkscape:connector-curvature="0" />
  <path
     inkscape:connector-curvature="0"
     d="m 59.400224,74.312853 c 19.515671,0 35.336202,-15.820533 35.336202,-35.336392 0,-19.515706 -15.820531,-35.3363492 -35.336202,-35.3363492 -19.515786,0 -35.336424,15.8206432 -35.336424,35.3363492 0,19.515859 15.820638,35.336392 35.336424,35.336392 z"
     id="path880"
     style="fill:#7682b2;fill-opacity:1;stroke-width:3.83770061" />
  <path
     style="fill:#956ba9;fill-opacity:1;stroke-width:2.85305119"
     id="path874"
     d="m 65.177239,58.592913 c 14.508477,0 26.269891,-11.761416 26.269891,-26.270036 0,-14.508507 -11.761414,-26.2700055 -26.269891,-26.2700055 -14.508566,0 -26.27006,11.7614985 -26.27006,26.2700055 0,14.50862 11.761494,26.270036 26.27006,26.270036 z"
     inkscape:connector-curvature="0" />
  <path
     inkscape:connector-curvature="0"
     d="m 73.679381,35.637218 c 7.199315,0 13.035502,-5.836188 13.035502,-13.035578 0,-7.199334 -5.836187,-13.0355616 -13.035502,-13.0355616 -7.19937,0 -13.0356,5.8362276 -13.0356,13.0355616 0,7.19939 5.83623,13.035578 13.0356,13.035578 z"
     id="path876"
     style="fill:#a65ca3;fill-opacity:1;stroke-width:1.41572595" />
  <g
     id="g870"
     transform="matrix(1.1819074,0,0,1.1819074,362.68086,-7.3049387)">
    <path
       inkscape:connector-curvature="0"
       id="path844"
       d="m -264.8457,24.873047 a 3.0003,3.0003 0 0 0 -2.57813,1.761719 l -18.27148,40.519531 a 3.0003,3.0003 0 1 0 5.46875,2.466797 l 15.53515,-34.449219 15.80664,35.109375 a 3.0003,3.0003 0 1 0 5.47071,-2.462891 l -18.53906,-41.18164 a 3.0003,3.0003 0 0 0 -2.89258,-1.763672 z"
       style="color:#000000;font-style:normal;font-variant:normal;font-weight:normal;font-stretch:normal;font-size:medium;line-height:normal;font-family:sans-serif;font-variant-ligatures:normal;font-variant-position:normal;font-variant-caps:normal;font-variant-numeric:normal;font-variant-alternates:normal;font-feature-settings:normal;text-indent:0;text-align:start;text-decoration:none;text-decoration-line:none;text-decoration-style:solid;text-decoration-color:#000000;letter-spacing:normal;word-spacing:normal;text-transform:none;writing-mode:lr-tb;direction:ltr;text-orientation:mixed;dominant-baseline:auto;baseline-shift:baseline;text-anchor:start;white-space:normal;shape-padding:0;clip-rule:nonzero;display:inline;overflow:visible;visibility:visible;opacity:1;isolation:auto;mix-blend-mode:normal;color-interpolation:sRGB;color-interpolation-filters:linearRGB;solid-color:#000000;solid-opacity:1;vector-effect:none;fill:#ffffff;fill-opacity:1;fill-rule:nonzero;stroke:none;stroke-width:6;stroke-linecap:round;stroke-linejoin:round;stroke-miterlimit:4;stroke-dasharray:none;stroke-dashoffset:0;stroke-opacity:1;color-rendering:auto;image-rendering:auto;shape-rendering:auto;text-rendering:auto;enable-background:accumulate" />
    <path
       inkscape:connector-curvature="0"
       id="path846"
       d="m -282.18359,45.658203 a 3.0003,3.0003 0 1 0 0,6 h 14.48242 a 3.0003,3.0003 0 1 0 0,-6 z"
       style="color:#000000;font-style:normal;font-variant:normal;font-weight:normal;font-stretch:normal;font-size:medium;line-height:normal;font-family:sans-serif;font-variant-ligatures:normal;font-variant-position:normal;font-variant-caps:normal;font-variant-numeric:normal;font-variant-alternates:normal;font-feature-settings:normal;text-indent:0;text-align:start;text-decoration:none;text-decoration-line:none;text-decoration-style:solid;text-decoration-color:#000000;letter-spacing:normal;word-spacing:normal;text-transform:none;writing-mode:lr-tb;direction:ltr;text-orientation:mixed;dominant-baseline:auto;baseline-shift:baseline;text-anchor:start;white-space:normal;shape-padding:0;clip-rule:nonzero;display:inline;overflow:visible;visibility:visible;opacity:1;isolation:auto;mix-blend-mode:normal;color-interpolation:sRGB;color-interpolation-filters:linearRGB;solid-color:#000000;solid-opacity:1;vector-effect:none;fill:#ffffff;fill-opacity:1;fill-rule:nonzero;stroke:none;stroke-width:6;stroke-linecap:round;stroke-linejoin:round;stroke-miterlimit:4;stroke-dasharray:none;stroke-dashoffset:0;stroke-opacity:1;color-rendering:auto;image-rendering:auto;shape-rendering:auto;text-rendering:auto;enable-background:accumulate" />
  </g>
</svg>
