<?xml version="1.0" encoding="UTF-8" standalone="no"?>
<svg
   xmlns:dc="http://purl.org/dc/elements/1.1/"
   xmlns:cc="http://creativecommons.org/ns#"
   xmlns:rdf="http://www.w3.org/1999/02/22-rdf-syntax-ns#"
   xmlns:svg="http://www.w3.org/2000/svg"
   xmlns="http://www.w3.org/2000/svg"
   xmlns:sodipodi="http://sodipodi.sourceforge.net/DTD/sodipodi-0.dtd"
   xmlns:inkscape="http://www.inkscape.org/namespaces/inkscape"
   class="dai-icon"
   width="100"
   height="100"
   viewBox="0 0 80 80"
   version="1.1"
   id="svg6"
   sodipodi:docname="cover.svg"
   style="fill:none"
   inkscape:version="0.92.5 (2060ec1f9f, 2020-04-08)">
  <metadata
     id="metadata12">
    <rdf:RDF>
      <cc:Work
         rdf:about="">
        <dc:format>image/svg+xml</dc:format>
        <dc:type
           rdf:resource="http://purl.org/dc/dcmitype/StillImage" />
        <dc:title></dc:title>
      </cc:Work>
    </rdf:RDF>
  </metadata>
  <defs
     id="defs10" />
  <sodipodi:namedview
     pagecolor="#ffffff"
     bordercolor="#666666"
     borderopacity="1"
     objecttolerance="10"
     gridtolerance="10"
     guidetolerance="10"
     inkscape:pageopacity="0"
     inkscape:pageshadow="2"
     inkscape:window-width="1848"
     inkscape:window-height="1016"
     id="namedview8"
     showgrid="false"
     scale-x="0.8"
     fit-margin-top="0"
     fit-margin-left="0"
     fit-margin-right="0"
     fit-margin-bottom="0"
     inkscape:zoom="2.0757576"
     inkscape:cx="65.024708"
     inkscape:cy="25.691456"
     inkscape:window-x="72"
     inkscape:window-y="27"
     inkscape:window-maximized="1"
     inkscape:current-layer="svg6"
     showguides="false" />
  <path
     style="fill:#ffffff;fill-opacity:1;stroke-width:0.56497175"
     d="M 50 0 A 50 50 0 0 0 6.8417969 24.875 A 50 50 0 0 0 0 50 A 50 50 0 0 0 0.9296875 59.400391 A 50 50 0 0 0 50 100 A 50 50 0 0 0 57.134766 99.439453 A 50 50 0 0 0 92.162109 76.71875 A 50 50 0 0 0 100 50 A 50 50 0 0 0 50 0 z "
     id="path1046"
     transform="scale(0.8)" />
  <g
     id="g1259"
     transform="matrix(0.63026136,0,0,0.63026136,61.116315,13.544322)">
    <g
       transform="translate(136.43211)"
       id="g1255">
      <path
         inkscape:connector-curvature="0"
         style="fill:#21222c;fill-opacity:1;stroke:none;stroke-width:1px;stroke-linecap:butt;stroke-linejoin:miter;stroke-opacity:1"
         d="m -211.86523,5.8105469 c -14.29965,7.0668481 -29.19518,12.0479271 -45.30665,12.7734371 0.0346,5.607921 0.28875,10.721132 0.64063,15.615235 h 25.99609 a 2.9504394,2.9504394 0 0 1 0.12305,0.002 2.9504394,2.9504394 0 0 1 0.29297,0.02734 2.9504394,2.9504394 0 0 1 0.29102,0.05664 2.9504394,2.9504394 0 0 1 0.28124,0.08398 2.9504394,2.9504394 0 0 1 0.27344,0.113281 2.9504394,2.9504394 0 0 1 0.25977,0.138672 2.9504394,2.9504394 0 0 1 0.24414,0.164062 2.9504394,2.9504394 0 0 1 0.22851,0.189453 2.9504394,2.9504394 0 0 1 0.20704,0.208985 2.9504394,2.9504394 0 0 1 0.18554,0.230468 2.9504394,2.9504394 0 0 1 0.16016,0.246094 2.9504394,2.9504394 0 0 1 0.13672,0.261719 2.9504394,2.9504394 0 0 1 0.10937,0.273437 2.9504394,2.9504394 0 0 1 0.0801,0.283204 2.9504394,2.9504394 0 0 1 0.0527,0.291015 2.9504394,2.9504394 0 0 1 0.0234,0.294922 2.9504394,2.9504394 0 0 1 -0.006,0.292969 2.9504394,2.9504394 0 0 1 -0.0351,0.292969 2.9504394,2.9504394 0 0 1 -0.0645,0.289062 2.9504394,2.9504394 0 0 1 -0.0937,0.279297 2.9504394,2.9504394 0 0 1 -0.11914,0.269531 2.9504394,2.9504394 0 0 1 -0.14843,0.25586 2.9504394,2.9504394 0 0 1 -0.16993,0.240234 2.9504394,2.9504394 0 0 1 -0.19531,0.220703 2.9504394,2.9504394 0 0 1 -0.2168,0.201172 2.9504394,2.9504394 0 0 1 -0.23437,0.177734 2.9504394,2.9504394 0 0 1 -0.25,0.154297 2.9504394,2.9504394 0 0 1 -0.26563,0.128907 2.9504394,2.9504394 0 0 1 -0.27734,0.101562 2.9504394,2.9504394 0 0 1 -0.28711,0.07227 2.9504394,2.9504394 0 0 1 -0.29101,0.04492 2.9504394,2.9504394 0 0 1 -0.29493,0.01367 h -25.54882 c 0.45306,4.427724 1.15039,8.306698 1.86132,12.154297 h 38.58985 a 2.95044,2.95044 0 0 1 0.12304,0.002 2.95044,2.95044 0 0 1 0.29297,0.02734 2.95044,2.95044 0 0 1 0.29102,0.05664 2.95044,2.95044 0 0 1 0.28125,0.08398 2.95044,2.95044 0 0 1 0.27344,0.113281 2.95044,2.95044 0 0 1 0.25976,0.138672 2.95044,2.95044 0 0 1 0.24414,0.164063 2.95044,2.95044 0 0 1 0.22852,0.1875 2.95044,2.95044 0 0 1 0.20703,0.210937 2.95044,2.95044 0 0 1 0.18555,0.228516 2.95044,2.95044 0 0 1 0.16015,0.248047 2.95044,2.95044 0 0 1 0.13672,0.261718 2.95044,2.95044 0 0 1 0.10938,0.273438 2.95044,2.95044 0 0 1 0.0801,0.283203 2.95044,2.95044 0 0 1 0.0527,0.291016 2.95044,2.95044 0 0 1 0.0234,0.292969 2.95044,2.95044 0 0 1 -0.006,0.294921 2.95044,2.95044 0 0 1 -0.0352,0.292969 2.95044,2.95044 0 0 1 -0.0644,0.28711 2.95044,2.95044 0 0 1 -0.0937,0.28125 2.95044,2.95044 0 0 1 -0.11914,0.269531 2.95044,2.95044 0 0 1 -0.14844,0.255859 2.95044,2.95044 0 0 1 -0.16992,0.238281 2.95044,2.95044 0 0 1 -0.19531,0.222657 2.95044,2.95044 0 0 1 -0.2168,0.201172 2.95044,2.95044 0 0 1 -0.23438,0.177734 2.95044,2.95044 0 0 1 -0.25,0.154297 2.95044,2.95044 0 0 1 -0.26562,0.128906 2.95044,2.95044 0 0 1 -0.27735,0.101563 2.95044,2.95044 0 0 1 -0.28711,0.07227 2.95044,2.95044 0 0 1 -0.29101,0.04297 2.95044,2.95044 0 0 1 -0.29492,0.01563 h -37.39258 c 0.99267,4.224385 2.17461,8.023643 3.47461,11.556641 h 19.10156 a 2.9504394,2.9504394 0 0 1 0.12305,0.0039 2.9504394,2.9504394 0 0 1 0.29297,0.02734 2.9504394,2.9504394 0 0 1 0.28906,0.05469 2.9504394,2.9504394 0 0 1 0.2832,0.08594 2.9504394,2.9504394 0 0 1 0.27344,0.111329 2.9504394,2.9504394 0 0 1 0.25977,0.140625 2.9504394,2.9504394 0 0 1 0.24414,0.164062 2.9504394,2.9504394 0 0 1 0.22656,0.1875 2.9504394,2.9504394 0 0 1 0.20898,0.210938 2.9504394,2.9504394 0 0 1 0.1836,0.228515 2.9504394,2.9504394 0 0 1 0.16211,0.246094 2.9504394,2.9504394 0 0 1 0.13672,0.261719 2.9504394,2.9504394 0 0 1 0.10937,0.27539 2.9504394,2.9504394 0 0 1 0.0801,0.283204 2.9504394,2.9504394 0 0 1 0.0527,0.289062 2.9504394,2.9504394 0 0 1 0.0234,0.294922 2.9504394,2.9504394 0 0 1 -0.006,0.294922 2.9504394,2.9504394 0 0 1 -0.0352,0.292968 2.9504394,2.9504394 0 0 1 -0.0644,0.28711 2.9504394,2.9504394 0 0 1 -0.0937,0.28125 2.9504394,2.9504394 0 0 1 -0.12109,0.267578 2.9504394,2.9504394 0 0 1 -0.14649,0.255859 2.9504394,2.9504394 0 0 1 -0.17187,0.240235 2.9504394,2.9504394 0 0 1 -0.19336,0.222656 2.9504394,2.9504394 0 0 1 -0.2168,0.201172 2.9504394,2.9504394 0 0 1 -0.23437,0.177734 2.9504394,2.9504394 0 0 1 -0.25196,0.154297 2.9504394,2.9504394 0 0 1 -0.26562,0.128906 2.9504394,2.9504394 0 0 1 -0.27734,0.09961 2.9504394,2.9504394 0 0 1 -0.28516,0.07422 2.9504394,2.9504394 0 0 1 -0.29102,0.04297 2.9504394,2.9504394 0 0 1 -0.29492,0.01563 h -16.57422 c 1.99112,4.291959 4.24477,7.996021 6.67383,11.302735 h 18.8418 a 2.9502946,2.9502946 0 0 1 0.28125,0.0059 2.9502946,2.9502946 0 0 1 0.29297,0.03516 2.9502946,2.9502946 0 0 1 0.28711,0.06445 2.9502946,2.9502946 0 0 1 0.28125,0.0918 2.9502946,2.9502946 0 0 1 0.26953,0.121094 2.9502946,2.9502946 0 0 1 0.25586,0.144531 2.9502946,2.9502946 0 0 1 0.24023,0.171875 2.9502946,2.9502946 0 0 1 0.2207,0.19336 2.9502946,2.9502946 0 0 1 0.20313,0.216797 2.9502946,2.9502946 0 0 1 0.17773,0.234374 2.9502946,2.9502946 0 0 1 0.1543,0.25 2.9502946,2.9502946 0 0 1 0.12891,0.265626 2.9502946,2.9502946 0 0 1 0.10156,0.277343 2.9502946,2.9502946 0 0 1 0.0742,0.285157 2.9502946,2.9502946 0 0 1 0.0449,0.291015 2.9502946,2.9502946 0 0 1 0.0156,0.294922 2.9502946,2.9502946 0 0 1 -0.0137,0.294922 2.9502946,2.9502946 0 0 1 -0.0449,0.291015 2.9502946,2.9502946 0 0 1 -0.0723,0.285157 2.9502946,2.9502946 0 0 1 -0.0996,0.277343 2.9502946,2.9502946 0 0 1 -0.12696,0.267579 2.9502946,2.9502946 0 0 1 -0.15429,0.25 2.9502946,2.9502946 0 0 1 -0.17774,0.236328 2.9502946,2.9502946 0 0 1 -0.20117,0.216797 2.9502946,2.9502946 0 0 1 -0.2207,0.193359 2.9502946,2.9502946 0 0 1 -0.24024,0.173828 2.9502946,2.9502946 0 0 1 -0.25586,0.146485 2.9502946,2.9502946 0 0 1 -0.26758,0.121093 2.9502946,2.9502946 0 0 1 -0.27929,0.09375 2.9502946,2.9502946 0 0 1 -0.28907,0.06445 2.9502946,2.9502946 0 0 1 -0.29101,0.03711 2.9502946,2.9502946 0 0 1 -0.29492,0.0059 h -13.91992 c 7.0283,7.334232 15.21023,12.071242 23.73242,16.042962 37.85636,-16.928657 45.63616,-50.947037 43.77343,-90.443353 -15.86793,-2.303594 -32.03403,-4.14208 -43.94335,-12.6035151 z"
         id="path1204"
         transform="scale(0.8)" />
    </g>
  </g>
</svg>
