<?xml version="1.0" encoding="UTF-8" standalone="no"?>
<svg
   xmlns:dc="http://purl.org/dc/elements/1.1/"
   xmlns:cc="http://creativecommons.org/ns#"
   xmlns:rdf="http://www.w3.org/1999/02/22-rdf-syntax-ns#"
   xmlns:svg="http://www.w3.org/2000/svg"
   xmlns="http://www.w3.org/2000/svg"
   xmlns:sodipodi="http://sodipodi.sourceforge.net/DTD/sodipodi-0.dtd"
   xmlns:inkscape="http://www.inkscape.org/namespaces/inkscape"
   class="dai-icon"
   width="100"
   height="100"
   viewBox="0 0 80 80"
   version="1.1"
   id="svg6"
   sodipodi:docname="crv.svg"
   style="fill:none"
   inkscape:version="0.92.5 (2060ec1f9f, 2020-04-08)">
  <metadata
     id="metadata12">
    <rdf:RDF>
      <cc:Work
         rdf:about="">
        <dc:format>image/svg+xml</dc:format>
        <dc:type
           rdf:resource="http://purl.org/dc/dcmitype/StillImage" />
        <dc:title></dc:title>
      </cc:Work>
    </rdf:RDF>
  </metadata>
  <defs
     id="defs10" />
  <sodipodi:namedview
     pagecolor="#ffffff"
     bordercolor="#666666"
     borderopacity="1"
     objecttolerance="10"
     gridtolerance="10"
     guidetolerance="10"
     inkscape:pageopacity="0"
     inkscape:pageshadow="2"
     inkscape:window-width="1848"
     inkscape:window-height="1016"
     id="namedview8"
     showgrid="false"
     scale-x="0.8"
     fit-margin-top="0"
     fit-margin-left="0"
     fit-margin-right="0"
     fit-margin-bottom="0"
     inkscape:zoom="2.0757576"
     inkscape:cx="2.5883645"
     inkscape:cy="2.0584054"
     inkscape:window-x="72"
     inkscape:window-y="27"
     inkscape:window-maximized="1"
     inkscape:current-layer="svg6"
     showguides="false" />
  <path
     style="fill:#ffffff;fill-opacity:1;stroke-width:0.56497175"
     d="M 50 0 A 50 50 0 0 0 6.8417969 24.875 A 50 50 0 0 0 0 50 A 50 50 0 0 0 0.9296875 59.400391 A 50 50 0 0 0 50 100 A 50 50 0 0 0 57.134766 99.439453 A 50 50 0 0 0 92.162109 76.71875 A 50 50 0 0 0 100 50 A 50 50 0 0 0 50 0 z "
     transform="scale(0.8)"
     id="path1046" />
  <g
     id="g1117"
     transform="matrix(1.2525597,0,0,1.2525597,140.79182,-53.033855)">
    <path
       transform="scale(0.8)"
       id="path1097"
       d="m -122.77734,88.914062 c 0.005,-7.05e-4 0.007,-0.0032 0.0117,-0.0039 9e-5,-0.02903 -0.0117,-0.117073 -0.0117,-0.144531 -0.003,0.04904 0.002,0.09936 0,0.148437 z"
       style="fill:#0072fd;fill-opacity:1;stroke:none;stroke-width:1px;stroke-linecap:butt;stroke-linejoin:miter;stroke-opacity:1"
       inkscape:connector-curvature="0" />
    <path
       transform="scale(0.8)"
       id="path1095"
       d="m -79.521484,102.43555 c -0.564625,0.0758 -1.125951,0.13101 -1.894532,0.39453 -2.107675,0.72263 -3.854284,1.02379 -6.865234,1.80664 -1.505475,0.39142 -2.965388,0.61732 -4.320312,0.77539 -1.354925,0.15807 -2.605516,0.2487 -3.689454,0.36914 -1.083943,0.12044 -2.152214,-0.0298 -3.02539,-0.30078 -0.873174,-0.27099 -1.550464,-0.66212 -1.851564,-1.02344 -0.60219,-0.72263 -1.02411,-2.22919 -1.50586,-3.07226 -0.12044,-0.21077 -0.26229,-0.32725 -0.40625,-0.35547 -0.14396,-0.0282 -0.28986,0.0328 -0.41406,0.17578 -0.24841,0.28604 -0.41455,0.90335 -0.32422,1.80664 0.0903,0.90328 0.0763,1.92668 -0.0742,3.0332 -0.15055,1.10653 -0.43703,2.29481 -0.88867,3.5293 -0.40072,1.03358 -0.98299,1.86254 -1.6875,2.44922 -0.70451,0.58667 -1.53184,0.93115 -2.41992,0.99609 -0.88808,0.0649 -1.83762,-0.15001 -2.78906,-0.68164 -0.95144,-0.53162 -1.90425,-1.37901 -2.79883,-2.58203 -0.40648,-0.49681 -0.74796,-1.14381 -1.0293,-1.92383 -0.28133,-0.78002 -0.50222,-1.69322 -0.66406,-2.7207 -0.32368,-2.05497 -0.41341,-4.5701 -0.29297,-7.400392 0.10046,-2.131064 0.40585,-3.670843 0.65234,-4.802735 0.0125,-0.05734 0.003,-0.06387 0.0156,-0.119141 -0.80817,0.66305 -1.63859,1.406154 -2.57422,2.445313 -0.59442,0.660188 -1.1105,1.035733 -1.55859,1.189453 -0.4481,0.153721 -0.82805,0.08513 -1.15039,-0.146484 -0.32236,-0.23162 -0.58752,-0.625261 -0.80469,-1.121094 -0.21718,-0.495833 -0.38695,-1.093502 -0.51953,-1.732422 -0.41476,-1.998697 -0.36613,-3.60699 -0.36328,-4.513672 -0.005,7.04e-4 -0.007,0.0032 -0.0117,0.0039 -0.6979,13.771034 4.76525,29.219154 13.53515,28.714844 8.00606,0.0545 7.4096,-8.00611 9.708987,-9.96485 1.959448,-1.66916 13.380642,-1.90044 20.011719,-5.22851 z"
       style="fill:#0ffbff;fill-opacity:1;stroke:none;stroke-width:1px;stroke-linecap:butt;stroke-linejoin:miter;stroke-opacity:1"
       inkscape:connector-curvature="0" />
    <path
       transform="scale(0.8)"
       id="path1109"
       d="m -103.67969,98.707031 c -0.46053,-0.509591 -0.93251,-1.162598 -1.5664,-2.099609 -0.75008,-1.108736 -1.6725,-2.427706 -2.89063,-3.746094 -0.74152,-0.802548 -1.47374,-1.363781 -2.22461,-1.677734 -0.75087,-0.313954 -1.52023,-0.381838 -2.33594,-0.19336 -0.8157,0.188479 -1.67725,0.633142 -2.61328,1.337891 -0.14834,0.111687 -0.33218,0.336072 -0.48437,0.460937 -0.0121,0.05527 -0.003,0.0618 -0.0156,0.119141 -0.24649,1.131892 -0.55188,2.671669 -0.65234,4.802735 -0.12044,2.830292 -0.0307,5.345422 0.29297,7.400392 0.16184,1.02748 0.38273,1.94068 0.66406,2.7207 0.28134,0.78002 0.62282,1.42702 1.0293,1.92383 0.89458,1.20302 1.84739,2.05041 2.79883,2.58203 0.95144,0.53163 1.90098,0.74658 2.78906,0.68164 0.88808,-0.0649 1.71541,-0.40942 2.41992,-0.99609 0.70451,-0.58668 1.28678,-1.41564 1.6875,-2.44922 0.45164,-1.23449 0.73812,-2.42277 0.88867,-3.5293 0.15055,-1.10652 0.16455,-2.12992 0.0742,-3.0332 -0.0773,-0.77339 0.088,-1.2212 0.27734,-1.54688 z"
       style="fill:#308dff;fill-opacity:1;stroke:none;stroke-width:1px;stroke-linecap:butt;stroke-linejoin:miter;stroke-opacity:1"
       inkscape:connector-curvature="0" />
    <path
       sodipodi:nodetypes="cccccccsscccsccssssssccssccsscccscccsc"
       inkscape:connector-curvature="0"
       transform="scale(0.8)"
       id="path1104"
       d="m -103.78614,98.174765 0.24512,3.290075 c 0.0318,-0.0547 0.0112,-0.21863 0.0469,-0.25976 0.1242,-0.14302 0.2701,-0.20401 0.41406,-0.17578 0.14396,0.0282 0.28581,0.1447 0.40625,0.35547 0.48175,0.84307 0.90367,2.34963 1.50586,3.07226 0.3011,0.36132 0.97839,0.75245 1.851564,1.02344 0.873176,0.27098 1.941447,0.42122 3.02539,0.30078 1.083938,-0.12044 2.334529,-0.21107 3.689454,-0.36914 1.354922,-0.15807 2.814837,-0.38397 4.320312,-0.77539 3.01095,-0.78285 4.757559,-1.08401 6.865234,-1.80664 0.768581,-0.26352 1.329907,-0.31869 1.894532,-0.39453 1.150405,-0.57738 2.19777,-1.22028 2.982422,-2.00977 1.946719,-1.95872 5.701734,-8.267219 2.21875,-15.076171 l -0.0059,0.34375 c 0,0 -0.830267,1.255071 -2.246094,2.78711 -0.707913,0.766019 -1.561196,1.600714 -2.53125,2.382812 -0.970054,0.782098 -2.055578,1.510897 -3.226562,2.064453 -1.170985,0.553557 -2.568008,0.985698 -4.013672,1.289063 -1.445664,0.303365 -2.94048,0.478998 -4.306641,0.515625 -1.366161,0.03663 -2.604635,-0.06584 -3.537109,-0.3125 -0.466237,-0.123329 -0.855079,-0.283216 -1.146484,-0.480469 -0.291406,-0.197253 -0.484339,-0.431833 -0.556641,-0.705078 -0.08026,-0.303332 0.274529,-0.577446 0.900391,-0.828125 0.625861,-0.250679 1.523057,-0.476918 2.527343,-0.685547 1.660871,-0.345027 3.456358,-0.620047 4.962891,-0.888672 -0.207633,-0.103003 -0.437947,-0.186576 -0.558594,-0.371093 -0.36194,-0.553557 -1.260548,-1.026582 -2.40625,-1.425782 -1.145702,-0.399199 -2.538133,-0.723028 -3.884765,-0.978515 -2.693264,-0.510976 -5.205079,-0.746094 -5.205079,-0.746094 l -0.878902,0.4375 c 0.19324,0.690533 0.548827,1.375635 0.673824,2.042969 0.200453,1.070167 0.305544,2.093607 0.294922,3.017578 -0.01062,0.923971 -0.138294,1.748586 -0.404297,2.419922 -0.810999,2.046784 -1.428099,3.252319 -1.974609,3.826172 -0.27325,0.286923 -0.52833,0.414462 -0.78125,0.412109 -0.25292,-0.0024 -0.50448,-0.136005 -0.76758,-0.375 -0.0815,-0.07403 -0.30916,-0.82364 -0.39356,-0.917032 z"
       style="fill:#49e54b;fill-opacity:1;stroke:none;stroke-width:1px;stroke-linecap:butt;stroke-linejoin:miter;stroke-opacity:1" />
    <path
       transform="scale(0.8)"
       id="path1075"
       d="m -100.43359,87.748047 0.878902,-0.4375 c 0,0 2.511815,0.235118 5.205079,0.746094 1.346632,0.255487 2.739063,0.579316 3.884765,0.978515 1.145702,0.3992 2.04431,0.872225 2.40625,1.425782 0.120647,0.184518 0.350961,0.26809 0.558594,0.371093 0.315391,-0.05624 0.76969,-0.131419 1.039062,-0.185547 1.217298,-0.287746 2.144156,-0.677997 2.806641,-1.146484 0.662485,-0.468487 1.060418,-1.014963 1.21875,-1.613281 0.158332,-0.598319 0.07641,-1.248539 -0.21875,-1.925781 -0.295163,-0.677245 -0.803954,-1.38068 -1.501953,-2.085938 -0.697999,-0.705258 -1.584589,-1.413338 -2.634766,-2.095703 -1.050177,-0.682365 -2.263538,-1.340655 -3.615234,-1.949219 -1.351696,-0.608564 -2.840802,-1.166538 -4.443359,-1.65039 -1.602557,-0.483857 -3.318335,-0.892935 -5.121094,-1.201172 -1.263637,-0.0286 -2.140237,0.08835 -2.712887,0.34375 -0.57265,0.255399 -0.84248,0.64903 -0.89258,1.177734 -0.0501,0.528704 0.11982,1.191104 0.42383,1.982422 0.30401,0.791318 0.74273,1.712619 1.23242,2.755859 0.67401,1.435939 1.05979,2.985556 1.48633,4.509766 z"
       style="fill:#e2ff4a;fill-opacity:1;stroke:none;stroke-width:1px;stroke-linecap:butt;stroke-linejoin:miter;stroke-opacity:1"
       inkscape:connector-curvature="0" />
    <path
       transform="scale(0.8)"
       id="path1065"
       d="m -122.77734,88.765625 c -1.8e-4,0.884935 -0.053,2.595503 0.375,4.658203 0.13258,0.63892 0.30235,1.236589 0.51953,1.732422 0.21717,0.495833 0.48234,0.889474 0.80469,1.121094 0.32234,0.231619 0.70229,0.300205 1.15039,0.146484 0.44809,-0.15372 0.96417,-0.529265 1.55859,-1.189453 1.11183,-1.234856 2.12257,-2.201501 3.05859,-2.90625 0.93603,-0.704749 1.79758,-1.149412 2.61328,-1.337891 0.81571,-0.188478 1.58507,-0.120594 2.33594,0.19336 0.75087,0.313953 1.48309,0.875186 2.22461,1.677734 1.21813,1.318388 2.14055,2.637358 2.89063,3.746094 0.75007,1.108736 1.32731,2.006385 1.85351,2.484375 0.2631,0.238995 0.51466,0.372646 0.76758,0.375 0.25292,0.0024 0.508,-0.125185 0.78125,-0.412109 0.54651,-0.57385 1.16361,-1.779388 1.974609,-3.826172 0.266003,-0.671336 0.393675,-1.495951 0.404297,-2.419922 0.01062,-0.923971 -0.09447,-1.947411 -0.294922,-3.017578 -0.400904,-2.140335 -1.180784,-4.466254 -2.160154,-6.552735 -0.48969,-1.04324 -0.92841,-1.964541 -1.23242,-2.755859 -0.30401,-0.791318 -0.47393,-1.453718 -0.42383,-1.982422 0.0501,-0.528704 0.31993,-0.922335 0.89258,-1.177734 0.57265,-0.2554 1.44925,-0.372347 2.712887,-0.34375 1.802759,0.308237 3.518537,0.717317 5.121094,1.201172 1.602557,0.483854 3.091663,1.041826 4.443359,1.65039 1.351696,0.608564 2.565057,1.266854 3.615234,1.949219 1.050177,0.682365 1.936767,1.390445 2.634766,2.095703 0.697999,0.705258 1.20679,1.408695 1.501953,2.085938 0.295163,0.677242 0.377082,1.327462 0.21875,1.925781 -0.158332,0.598318 -0.556265,1.144794 -1.21875,1.613281 -0.662485,0.468487 -1.589344,0.858738 -2.806641,1.146484 -1.556093,0.312682 -3.993381,0.656961 -6.001953,1.074219 -1.004286,0.208629 -1.901482,0.434868 -2.527343,0.685547 -0.625862,0.250679 -0.98065,0.524793 -0.900391,0.828125 0.0723,0.273245 0.265235,0.507825 0.556641,0.705078 0.291405,0.197253 0.680247,0.35714 1.146484,0.480469 0.932474,0.246658 2.170948,0.349127 3.537109,0.3125 1.366161,-0.03663 2.860977,-0.21226 4.306641,-0.515625 1.445664,-0.303365 2.842687,-0.735506 4.013672,-1.289063 1.170984,-0.553556 2.256508,-1.282355 3.226562,-2.064453 0.970054,-0.782098 1.823337,-1.616793 2.53125,-2.382812 1.415827,-1.532039 2.246094,-2.78711 2.246094,-2.78711 l 0.0059,-0.34375 c -1.246202,-2.43622 -3.368645,-4.932249 -6.902344,-7.322265 C -97.879369,66.761575 -108.74922,66.6631 -114.38867,69.84375 c -5.3718,3.263878 -7.95036,10.793181 -8.38867,18.921875 z"
       style="fill:#fe2100;fill-opacity:1;stroke:none;stroke-width:1px;stroke-linecap:butt;stroke-linejoin:miter;stroke-opacity:1"
       inkscape:connector-curvature="0" />
  </g>
</svg>
