<?xml version="1.0" encoding="UTF-8" standalone="no"?>
<svg
   xmlns:dc="http://purl.org/dc/elements/1.1/"
   xmlns:cc="http://creativecommons.org/ns#"
   xmlns:rdf="http://www.w3.org/1999/02/22-rdf-syntax-ns#"
   xmlns:svg="http://www.w3.org/2000/svg"
   xmlns="http://www.w3.org/2000/svg"
   xmlns:sodipodi="http://sodipodi.sourceforge.net/DTD/sodipodi-0.dtd"
   xmlns:inkscape="http://www.inkscape.org/namespaces/inkscape"
   class="dai-icon"
   width="100"
   height="100"
   viewBox="0 0 80 80"
   version="1.1"
   id="svg6"
   sodipodi:docname="gno.svg"
   style="fill:none"
   inkscape:version="0.92.5 (2060ec1f9f, 2020-04-08)">
  <metadata
     id="metadata12">
    <rdf:RDF>
      <cc:Work
         rdf:about="">
        <dc:format>image/svg+xml</dc:format>
        <dc:type
           rdf:resource="http://purl.org/dc/dcmitype/StillImage" />
        <dc:title></dc:title>
      </cc:Work>
    </rdf:RDF>
  </metadata>
  <defs
     id="defs10" />
  <sodipodi:namedview
     pagecolor="#ffffff"
     bordercolor="#666666"
     borderopacity="1"
     objecttolerance="10"
     gridtolerance="10"
     guidetolerance="10"
     inkscape:pageopacity="0"
     inkscape:pageshadow="2"
     inkscape:window-width="1848"
     inkscape:window-height="1016"
     id="namedview8"
     showgrid="false"
     scale-x="0.8"
     fit-margin-top="0"
     fit-margin-left="0"
     fit-margin-right="0"
     fit-margin-bottom="0"
     inkscape:zoom="2.9355645"
     inkscape:cx="-14.153224"
     inkscape:cy="6.0698982"
     inkscape:window-x="72"
     inkscape:window-y="27"
     inkscape:window-maximized="1"
     inkscape:current-layer="svg6"
     showguides="true"
     inkscape:guide-bbox="true" />
  <circle
     style="fill:#ffffff;stroke-width:0.4519774;fill-opacity:1"
     cx="40"
     cy="40"
     r="40"
     id="circle2" />
  <path
     style="fill:#000000;stroke-width:0.1871272"
     d="M 37.276455,79.951012 C 31.348247,79.338858 27.291465,78.269201 22.86766,76.15181 14.521833,72.157218 8.2087613,65.918889 4.0682483,57.574969 -1.3306832,46.695114 -1.3670735,33.471502 3.9717803,22.522151 c 0.552017,-1.132119 1.183791,-2.345377 1.403934,-2.696128 l 0.400263,-0.63773 3.248475,3.244498 3.2484767,3.244497 -0.528563,0.667958 c -0.912182,1.152744 -1.8416147,3.037307 -2.3597647,4.784757 -0.418807,1.412422 -0.499741,2.046443 -0.501648,3.929671 -0.003,2.759681 0.396239,4.408655 1.6652347,6.881353 0.726595,1.415788 1.207657,2.047841 2.673087,3.512061 1.510513,1.509266 2.062125,1.922426 3.564749,2.670045 2.381859,1.185066 4.208744,1.626027 6.736577,1.626027 3.136678,0 6.080325,-0.930537 8.512992,-2.691097 l 0.934335,-0.676197 3.509937,3.506294 3.509935,3.506286 3.540038,-3.536362 3.540041,-3.536362 0.587116,0.494027 c 0.926823,0.779871 2.773903,1.741386 4.402508,2.291766 1.188679,0.401705 1.96405,0.524892 3.764501,0.598085 2.916424,0.118557 4.534221,-0.216689 7.18244,-1.488373 1.780358,-0.854934 2.141408,-1.121595 3.845438,-2.840174 1.61727,-1.631076 2.002405,-2.145578 2.750503,-3.674363 0.478448,-0.977739 1.016509,-2.325056 1.19569,-2.994035 0.453177,-1.692007 0.460617,-5.457171 0.01404,-7.110834 -0.406531,-1.505388 -1.634655,-4.112638 -2.381281,-5.055328 -0.307503,-0.38825 -0.559094,-0.778928 -0.559094,-0.868173 0,-0.08924 1.433721,-1.592857 3.186046,-3.341361 2.582678,-2.577051 3.221973,-3.12594 3.375755,-2.898407 0.104343,0.15438 0.761019,1.423865 1.459288,2.821076 2.9849,5.972699 4.317727,12.21919 4.08886,19.16305 -0.119666,3.630583 -0.551244,6.412244 -1.510228,9.733936 -4.310362,14.929975 -17.155993,26.14773 -32.561678,28.435255 -1.991642,0.295723 -7.174858,0.51375 -8.633346,0.363143 z M 24.046668,31.457475 8.1979213,15.598445 8.9489243,14.662808 C 10.095693,13.234111 13.158757,10.184763 14.727629,8.9099867 21.526747,3.3854057 29.843133,0.29032213 38.60235,0.02460363 c 7.104472,-0.2155193 12.770742,0.9748461 18.883842,3.96710207 5.007091,2.450879 9.283333,5.690791 12.634726,9.5727453 l 1.720641,1.993038 -15.878686,15.879509 C 47.229596,40.170729 40.041714,47.316503 39.9898,47.316503 c -0.05192,0 -7.226324,-7.13656 -15.943132,-15.859028 z M 52.34073,27.56242 64.597027,15.29342 63.567826,14.353586 C 58.638119,9.8519167 52.690501,6.9174597 45.942514,5.6575457 43.503871,5.2022267 38.094353,5.1101837 35.456354,5.4791207 28.122937,6.5047317 21.449747,9.6410177 16.549438,14.365044 l -1.078658,1.039854 12.212193,12.213259 c 6.716706,6.717294 12.254778,12.21326 12.306827,12.21326 0.05205,0 5.609969,-5.521049 12.35093,-12.268997 z M 20.736718,45.160493 C 19.103932,44.703532 17.525623,43.76119 16.202241,42.453149 13.41975,39.702921 12.430487,35.69898 13.602812,31.932281 c 0.31999,-1.028111 1.450054,-3.141369 1.679853,-3.141369 0.05593,0 3.378105,3.277204 7.382585,7.282678 l 7.28088,7.282675 -0.910321,0.577308 c -1.676308,1.063085 -2.778692,1.372871 -5.138952,1.444117 -1.521414,0.04593 -2.447365,-0.01772 -3.160139,-0.217197 z m 33.00693,-0.0044 c -1.220629,-0.333601 -3.354358,-1.448198 -3.418488,-1.785714 -0.0276,-0.145309 3.1962,-3.50618 7.164009,-7.468599 l 7.214205,-7.204397 0.35898,0.467817 c 1.249872,1.628821 1.962606,4.208154 1.809777,6.549453 -0.285304,4.370753 -2.972909,7.869765 -7.112061,9.259231 -1.144615,0.384236 -1.744089,0.468292 -3.242508,0.454651 -1.011051,-0.0092 -2.259315,-0.131801 -2.773914,-0.272442 z"
     id="path855"
     inkscape:connector-curvature="0" />
</svg>
