<?xml version="1.0" encoding="UTF-8" standalone="no"?>
<svg
   xmlns:dc="http://purl.org/dc/elements/1.1/"
   xmlns:cc="http://creativecommons.org/ns#"
   xmlns:rdf="http://www.w3.org/1999/02/22-rdf-syntax-ns#"
   xmlns:svg="http://www.w3.org/2000/svg"
   xmlns="http://www.w3.org/2000/svg"
   xmlns:sodipodi="http://sodipodi.sourceforge.net/DTD/sodipodi-0.dtd"
   xmlns:inkscape="http://www.inkscape.org/namespaces/inkscape"
   width="100"
   height="100.00018"
   viewBox="0 0 100 100.00018"
   version="1.1"
   id="svg8"
   sodipodi:docname="musd.svg"
   style="fill:none"
   inkscape:version="0.92.5 (2060ec1f9f, 2020-04-08)">
  <metadata
     id="metadata14">
    <rdf:RDF>
      <cc:Work
         rdf:about="">
        <dc:format>image/svg+xml</dc:format>
        <dc:type
           rdf:resource="http://purl.org/dc/dcmitype/StillImage" />
        <dc:title></dc:title>
      </cc:Work>
    </rdf:RDF>
  </metadata>
  <defs
     id="defs12" />
  <sodipodi:namedview
     pagecolor="#ffffff"
     bordercolor="#666666"
     borderopacity="1"
     objecttolerance="10"
     gridtolerance="10"
     guidetolerance="10"
     inkscape:pageopacity="0"
     inkscape:pageshadow="2"
     inkscape:window-width="1920"
     inkscape:window-height="1043"
     id="namedview10"
     showgrid="false"
     fit-margin-top="0"
     fit-margin-left="0"
     fit-margin-right="0"
     fit-margin-bottom="0"
     inkscape:zoom="2.085965"
     inkscape:cx="26.443058"
     inkscape:cy="45.135449"
     inkscape:window-x="0"
     inkscape:window-y="0"
     inkscape:window-maximized="1"
     inkscape:current-layer="svg8"
     showguides="true"
     inkscape:guide-bbox="true" />
  <path
     inkscape:connector-curvature="0"
     d="M 50.000152,100.00017 C 77.614334,100.00017 100,77.614508 100,50.000054 100,22.385818 77.614334,4.9718407e-8 50.000152,4.9718407e-8 22.385807,4.9718407e-8 3.1390797e-8,22.385818 3.1390797e-8,50.000054 3.1390797e-8,77.614508 22.385807,100.00017 50.000152,100.00017 Z"
     id="path2"
     style="fill:#000000;stroke-width:5.43025064;fill-opacity:1" />
  <g
     aria-label="$"
     style="font-style:normal;font-weight:normal;font-size:52.24539948px;line-height:1.25;font-family:sans-serif;letter-spacing:0px;word-spacing:0px;fill:#aa4400;fill-opacity:1;stroke:none;stroke-width:1.30613506"
     id="text898" />
  <g
     id="g914"
     transform="translate(142.34375,11.679968)"
     style="fill:#ffffff">
    <path
       inkscape:connector-curvature="0"
       id="path890"
       d="m -120.56836,59.447266 v 8 h 56.449219 v -8 z"
       style="color:#000000;font-style:normal;font-variant:normal;font-weight:normal;font-stretch:normal;font-size:medium;line-height:normal;font-family:sans-serif;font-variant-ligatures:normal;font-variant-position:normal;font-variant-caps:normal;font-variant-numeric:normal;font-variant-alternates:normal;font-feature-settings:normal;text-indent:0;text-align:start;text-decoration:none;text-decoration-line:none;text-decoration-style:solid;text-decoration-color:#000000;letter-spacing:normal;word-spacing:normal;text-transform:none;writing-mode:lr-tb;direction:ltr;text-orientation:mixed;dominant-baseline:auto;baseline-shift:baseline;text-anchor:start;white-space:normal;shape-padding:0;clip-rule:nonzero;display:inline;overflow:visible;visibility:visible;opacity:1;isolation:auto;mix-blend-mode:normal;color-interpolation:sRGB;color-interpolation-filters:linearRGB;solid-color:#000000;solid-opacity:1;vector-effect:none;fill:#ffffff;fill-opacity:1;fill-rule:nonzero;stroke:none;stroke-width:8;stroke-linecap:butt;stroke-linejoin:miter;stroke-miterlimit:4;stroke-dasharray:none;stroke-dashoffset:0;stroke-opacity:1;color-rendering:auto;image-rendering:auto;shape-rendering:auto;text-rendering:auto;enable-background:accumulate" />
    <g
       id="text894"
       style="font-style:normal;font-weight:normal;font-size:52.24539948px;line-height:1.25;font-family:sans-serif;letter-spacing:0px;word-spacing:0px;fill:#ffffff;fill-opacity:1;stroke:none;stroke-width:1.30613506"
       aria-label="$">
      <path
         sodipodi:nodetypes="ccccssssccccscccccccscsccccsscc"
         inkscape:connector-curvature="0"
         id="path903"
         style="font-style:normal;font-variant:normal;font-weight:bold;font-stretch:normal;font-family:'TT Hoves';-inkscape-font-specification:'TT Hoves Bold';fill:#ffffff;stroke-width:1.30613506"
         d="m -95.857001,49.536793 c -3.169553,-0.487623 -5.799239,-1.863419 -7.889059,-4.127386 -2.05498,-2.263967 -3.08247,-4.980728 -3.08247,-8.150283 h 8.359259 c 0,1.532532 0.592115,2.786422 1.776344,3.761669 1.184229,0.975247 2.856081,1.462871 5.015558,1.462871 2.089816,0 3.657178,-0.365718 4.702086,-1.097153 1.044908,-0.731436 1.567362,-1.671853 1.567362,-2.821252 0,-0.975247 -0.400548,-1.776343 -1.201644,-2.403288 -0.766266,-0.626945 -2.107231,-1.131984 -4.022896,-1.515117 l -5.746994,-1.044908 c -3.274043,-0.592115 -5.712165,-1.706683 -7.314355,-3.343705 -1.56736,-1.671853 -2.35104,-3.953235 -2.35104,-6.844148 0,-2.856081 0.88817,-5.224539 2.66451,-7.105374 1.81117,-1.915665 4.318953,-3.204385 7.523339,-3.86616 2.50476,-0.268774 5.092866,-0.329184 7.83681,0 3.343705,0.661775 5.955975,2.037571 7.83681,4.127387 1.915665,2.089816 2.873497,4.806577 2.873497,8.150282 h -8.359264 c 0,-1.497701 -0.592115,-2.734176 -1.776344,-3.709423 -1.184229,-1.010078 -2.769006,-1.515117 -4.754331,-1.515117 -1.776343,0 -3.134724,0.383133 -4.075141,1.149399 -0.940417,0.731436 -1.410626,1.654438 -1.410626,2.769006 0,0.940417 0.313472,1.671853 0.940417,2.194307 0.661775,0.487624 1.828589,0.888172 3.500442,1.201644 l 5.746994,1.044908 c 3.657178,0.661775 6.304278,1.828589 7.941301,3.500442 1.671853,1.671853 2.507779,4.075141 2.507779,7.209865 0,2.890912 -0.975248,5.311616 -2.925743,7.262111 -1.950495,1.950495 -4.632425,3.186969 -8.045791,3.709423 -2.61227,0.167979 -5.22454,0.191253 -7.83681,0 z" />
    </g>
    <rect
       y="9.1929684"
       x="-93.354729"
       height="44.079842"
       width="3.0508475"
       id="rect906"
       style="opacity:1;fill:#ffffff;fill-opacity:1;stroke:none;stroke-width:8.11102486;stroke-linecap:round;stroke-linejoin:round;stroke-miterlimit:4;stroke-dasharray:none;stroke-dashoffset:0;stroke-opacity:1" />
  </g>
</svg>
