<?xml version="1.0" encoding="UTF-8" standalone="no"?>
<svg
   xmlns:dc="http://purl.org/dc/elements/1.1/"
   xmlns:cc="http://creativecommons.org/ns#"
   xmlns:rdf="http://www.w3.org/1999/02/22-rdf-syntax-ns#"
   xmlns:svg="http://www.w3.org/2000/svg"
   xmlns="http://www.w3.org/2000/svg"
   xmlns:sodipodi="http://sodipodi.sourceforge.net/DTD/sodipodi-0.dtd"
   xmlns:inkscape="http://www.inkscape.org/namespaces/inkscape"
   class="dai-icon"
   width="100"
   height="100"
   viewBox="0 0 80 80"
   version="1.1"
   id="svg6"
   sodipodi:docname="ren.svg"
   style="fill:none"
   inkscape:version="0.92.5 (2060ec1f9f, 2020-04-08)">
  <metadata
     id="metadata12">
    <rdf:RDF>
      <cc:Work
         rdf:about="">
        <dc:format>image/svg+xml</dc:format>
        <dc:type
           rdf:resource="http://purl.org/dc/dcmitype/StillImage" />
        <dc:title></dc:title>
      </cc:Work>
    </rdf:RDF>
  </metadata>
  <defs
     id="defs10" />
  <sodipodi:namedview
     pagecolor="#ffffff"
     bordercolor="#666666"
     borderopacity="1"
     objecttolerance="10"
     gridtolerance="10"
     guidetolerance="10"
     inkscape:pageopacity="0"
     inkscape:pageshadow="2"
     inkscape:window-width="1848"
     inkscape:window-height="1016"
     id="namedview8"
     showgrid="false"
     scale-x="0.8"
     fit-margin-top="0"
     fit-margin-left="0"
     fit-margin-right="0"
     fit-margin-bottom="0"
     inkscape:zoom="5.8711291"
     inkscape:cx="79.155549"
     inkscape:cy="43.157205"
     inkscape:window-x="72"
     inkscape:window-y="1107"
     inkscape:window-maximized="1"
     inkscape:current-layer="svg6" />
  <circle
     style="fill:#f9f9f9;stroke-width:0.4519774;fill-opacity:1"
     cx="40"
     cy="40"
     r="40"
     id="circle2" />
  <g
     id="g1231"
     transform="matrix(0.63855235,0,0,0.63855235,127.60932,181.87133)">
    <g
       id="g1215">
      <path
         style="fill:#171717;stroke-width:0.23855415"
         d="m -141.51194,-175.20754 c -0.0889,-0.14379 -0.0147,-0.39628 0.16484,-0.56108 0.88465,-0.81206 45.61328,-26.38721 45.80811,-26.19238 0.12044,0.12043 0.18819,1.33648 0.15057,2.70232 l -0.0684,2.48336 -10.01927,5.7821 c -5.5106,3.18016 -12.20744,7.03986 -14.88186,8.57711 l -4.86259,2.795 -0.51384,-0.64442 c -0.28262,-0.35443 -0.63046,-0.64442 -0.77299,-0.64442 -0.14253,0 -1.63875,0.80513 -3.32493,1.78916 -1.68618,0.98404 -3.14646,1.78916 -3.24507,1.78916 -0.0986,0 -0.35513,-0.26838 -0.57005,-0.59639 -0.21492,-0.32801 -0.52378,-0.59638 -0.68636,-0.59638 -0.16258,0 -1.67996,0.80346 -3.37196,1.78547 -3.15835,1.83306 -3.52785,1.98173 -3.80618,1.53139 z"
         id="path1200"
         inkscape:connector-curvature="0" />
      <path
         style="fill:#171717;stroke-width:0.23855415"
         d="m -148.19015,-179.0223 c -0.0882,-0.14264 -0.0677,-0.34826 0.0456,-0.45694 0.58693,-0.56344 52.3928,-30.28505 52.58304,-30.16748 0.12319,0.0761 0.22399,1.25679 0.22399,2.62367 0,2.31525 -0.0367,2.50903 -0.536746,2.8329 -1.40985,0.91318 -29.125414,16.83924 -29.304734,16.83924 -0.11294,0 -0.38639,-0.2763 -0.60766,-0.61401 -0.25892,-0.39517 -0.55447,-0.57423 -0.8292,-0.50238 -0.23478,0.0614 -3.22257,1.73324 -6.63951,3.71522 -3.41695,1.98197 -6.3081,3.60358 -6.42477,3.60358 -0.11667,0 -0.38798,-0.26837 -0.6029,-0.59638 -0.21492,-0.32802 -0.50988,-0.59639 -0.65546,-0.59639 -0.14558,0 -1.65264,0.80512 -3.34904,1.78916 -3.11356,1.8061 -3.61124,2.00119 -3.90257,1.52981 z"
         id="path1198"
         inkscape:connector-curvature="0" />
      <path
         style="fill:#171717;stroke-width:0.23855415"
         d="m -154.63241,-182.84127 c -0.0889,-0.1438 -0.0147,-0.39952 0.16483,-0.56827 0.66809,-0.62797 58.71263,-33.99044 58.91717,-33.86402 0.34233,0.21157 0.26495,5.01258 -0.0853,5.2951 -0.541917,0.43706 -29.31773,16.99382 -29.53543,16.99382 -0.11726,0 -0.38905,-0.26837 -0.60397,-0.59639 -0.21492,-0.32801 -0.50134,-0.59638 -0.63649,-0.59638 -0.13514,0 -4.6159,2.52271 -9.95723,5.60602 -5.34134,3.08331 -9.79216,5.60602 -9.89071,5.60602 -0.0986,0 -0.39028,-0.26837 -0.6483,-0.59638 -0.25801,-0.32801 -0.55977,-0.59639 -0.67057,-0.59639 -0.1108,0 -1.58698,0.80512 -3.28041,1.78916 -3.16852,1.8412 -3.4975,1.97438 -3.77356,1.52771 z"
         id="path1196"
         inkscape:connector-curvature="0" />
      <path
         style="fill:#171717;stroke-width:0.23855415"
         d="m -161.31063,-186.65603 c -0.0882,-0.14264 -0.0635,-0.35614 0.0548,-0.47446 0.52031,-0.52031 65.52592,-37.88772 65.71137,-37.77311 0.11377,0.0703 0.20686,1.24716 0.20686,2.6152 v 2.48736 l -0.894575,0.57938 c -1.811375,1.17317 -28.681115,16.60329 -28.912665,16.60329 -0.13177,0 -0.42062,-0.27631 -0.6419,-0.61401 -0.23518,-0.35895 -0.55954,-0.57086 -0.7808,-0.51012 -0.20816,0.0571 -6.16131,3.44658 -13.22922,7.53208 -7.0679,4.0855 -12.9428,7.42819 -13.05534,7.42819 -0.11253,0 -0.38045,-0.26838 -0.59537,-0.59639 -0.21492,-0.32801 -0.51261,-0.59473 -0.66152,-0.5927 -0.14892,0.002 -1.65512,0.80714 -3.34712,1.78915 -3.12303,1.81256 -3.56853,1.98894 -3.85456,1.52614 z"
         id="path1194"
         inkscape:connector-curvature="0" />
      <path
         style="fill:#171717;stroke-width:0.23855415"
         d="m -167.98711,-190.46798 c -0.0865,-0.13994 -0.0923,-0.31937 -0.0129,-0.39874 0.45138,-0.45138 72.30722,-41.76233 72.46806,-41.66292 0.10693,0.0661 0.19442,1.22435 0.19442,2.57392 0,2.04177 -0.0701,2.51376 -0.41747,2.81108 -0.62215,0.53248 -29.0648,16.89253 -29.3684,16.89253 -0.14353,0 -0.4368,-0.26837 -0.65172,-0.59638 -0.21493,-0.32801 -0.48428,-0.59639 -0.59858,-0.59639 -0.1143,0 -7.48222,4.20262 -16.37316,9.33914 -8.89095,5.13653 -16.33567,9.38476 -16.54384,9.44052 -0.21965,0.0588 -0.54732,-0.1563 -0.7808,-0.51264 -0.22127,-0.3377 -0.50896,-0.61401 -0.63931,-0.61401 -0.13035,0 -1.62204,0.80512 -3.31487,1.78916 -3.07146,1.78543 -3.66447,2.01517 -3.9614,1.53473 z"
         id="path1192"
         inkscape:connector-curvature="0" />
      <path
         style="fill:#171717;stroke-width:0.23855415"
         d="m -174.49539,-194.43052 c 0.0846,-0.43878 78.642696,-45.93107 78.96831,-45.72983 0.10423,0.0644 0.18952,1.22133 0.18952,2.5709 0,2.04092 -0.0702,2.51426 -0.41747,2.81329 -0.565884,0.48733 -28.68248,16.69548 -29.19405,16.82926 -0.25057,0.0655 -0.5609,-0.13062 -0.81131,-0.5128 -0.22304,-0.3404 -0.49386,-0.61891 -0.60183,-0.61891 -0.10797,0 -8.85421,4.99843 -19.43609,11.10762 -10.58189,6.10919 -19.51163,11.23147 -19.84388,11.38285 -0.54005,0.24607 -0.66228,0.20228 -1.15287,-0.41298 l -0.54878,-0.68823 -3.19479,1.82946 c -3.24144,1.85618 -4.09875,2.16588 -3.95676,1.42937 z"
         id="path1190"
         inkscape:connector-curvature="0" />
      <path
         style="fill:#171717;stroke-width:0.23855415"
         d="m -179.02702,-199.31244 c 0.0603,-0.40416 8.52236,-5.38955 40.49145,-23.85541 22.22837,-12.83947 40.614084,-23.34449 40.85714,-23.34449 0.243053,0 0.869181,0.26973 1.391393,0.59938 0.913297,0.57654 0.949477,0.64786 0.949477,1.87146 0,0.91254 -0.11799,1.3759 -0.41747,1.6394 -0.337495,0.29695 -26.60665,15.54124 -28.67099,16.6381 -0.52932,0.28125 -0.62952,0.24827 -1.12194,-0.36927 -0.53166,-0.66676 -0.55386,-0.67176 -1.3272,-0.29853 -0.43257,0.20877 -9.35896,5.33015 -19.83642,11.38084 -10.47746,6.0507 -19.16872,11.00126 -19.31392,11.00126 -0.1452,0 -0.4933,-0.28758 -0.77357,-0.63906 l -0.50957,-0.63907 -5.64355,3.26316 c -3.10395,1.79474 -5.75774,3.26316 -5.89731,3.26316 -0.13956,0 -0.21945,-0.22992 -0.17752,-0.51093 z"
         id="path1178"
         inkscape:connector-curvature="0" />
      <path
         style="fill:#171717;stroke-width:0.23855415"
         d="m -179.02702,-206.94095 c 0.0598,-0.39669 8.07323,-5.12604 37.1714,-21.93776 20.40234,-11.78762 37.30987,-21.43234 37.57228,-21.4327 0.62498,-9.6e-4 4.293974,2.18441 4.293974,2.55751 0,0.25678 -24.510804,14.6006 -24.949594,14.6006 -0.0979,0 -0.39001,-0.29095 -0.64905,-0.64654 -0.41767,-0.57338 -0.53848,-0.61578 -1.06753,-0.37473 -0.32811,0.1495 -9.25576,5.27116 -19.83923,11.38148 -10.58347,6.11031 -19.36689,11.10966 -19.5187,11.10966 -0.15182,0 -0.50425,-0.28622 -0.78319,-0.63604 l -0.50717,-0.63605 -5.63624,3.26014 c -3.09994,1.79308 -5.75481,3.26014 -5.89971,3.26014 -0.14491,0 -0.22917,-0.22757 -0.18724,-0.50571 z"
         id="path1176"
         inkscape:connector-curvature="0" />
      <path
         style="fill:#171717;stroke-width:0.23855415"
         d="m -179.02702,-214.56068 c 0.0585,-0.37713 7.96332,-5.04655 33.92324,-20.03855 18.61585,-10.75076 34.01495,-19.54684 34.22022,-19.54684 0.65114,0 4.34628,2.24353 4.27829,2.5976 -0.0503,0.26224 -22.24675,13.32344 -24.48181,14.40602 -0.49442,0.23947 -0.61999,0.19405 -1.03375,-0.37395 -0.25903,-0.3556 -0.57438,-0.64654 -0.70077,-0.64654 -0.1264,0 -7.57253,4.2403 -16.54698,9.42289 -8.97443,5.18259 -16.453,9.42289 -16.61904,9.42289 -0.16603,0 -0.52818,-0.28381 -0.80477,-0.63069 l -0.5029,-0.6307 -5.61941,3.25479 c -3.09067,1.79014 -5.74746,3.25479 -5.90398,3.25479 -0.15651,0 -0.25027,-0.22127 -0.20834,-0.49171 z"
         id="path1174"
         inkscape:connector-curvature="0" />
      <path
         style="fill:#171717;stroke-width:0.23855415"
         d="m -179.07002,-222.12531 c 0,-0.38433 6.01386,-3.95013 30.62404,-18.15794 16.84323,-9.72383 30.78856,-17.67969 30.98962,-17.67969 0.20106,0 1.29922,0.54952 2.44035,1.22115 2.00063,1.1775 2.05897,1.23614 1.63266,1.6408 -0.54127,0.51379 -24.08402,14.09542 -24.72302,14.26253 -0.30261,0.0791 -0.62966,-0.0964 -0.96977,-0.52044 l -0.51317,-0.63983 -12.88192,7.44184 c -7.08506,4.09302 -13.0804,7.49408 -13.32297,7.55791 -0.28623,0.0753 -0.62344,-0.11268 -0.96065,-0.53558 l -0.5196,-0.65165 -5.47167,3.15815 c -3.00942,1.73697 -5.66342,3.20828 -5.89778,3.26957 -0.30448,0.0796 -0.42612,-0.0251 -0.42612,-0.36682 z"
         id="path1172"
         inkscape:connector-curvature="0" />
      <path
         style="fill:#171717;stroke-width:0.23855415"
         d="m -179.07002,-229.77011 c 0,-0.3248 6.83582,-4.38244 27.22785,-16.16205 14.97531,-8.6506 27.45467,-15.75392 27.73192,-15.78516 0.61876,-0.0697 4.32094,2.10376 4.32094,2.53674 0,0.22526 -18.77496,11.30244 -24.73671,14.5946 -0.30885,0.17055 -0.56203,0.0565 -1.07349,-0.48371 l -0.66931,-0.7069 -9.9,5.72256 -9.9,5.72256 -0.59883,-0.73349 -0.59883,-0.7335 -4.41081,2.54039 c -6.68296,3.84903 -6.81465,3.92163 -7.11383,3.92163 -0.15339,0 -0.2789,-0.19515 -0.2789,-0.43367 z"
         id="path1170"
         inkscape:connector-curvature="0" />
      <path
         style="fill:#171717;stroke-width:0.23855415"
         d="m -179.07002,-237.40036 c 0,-0.31986 6.12812,-3.96848 23.89444,-14.22651 13.14194,-7.58798 24.085,-13.84615 24.3179,-13.90706 0.59121,-0.1546 4.53232,2.10676 4.44994,2.55333 -0.0355,0.19238 -1.99605,1.46621 -4.35678,2.83072 -2.36074,1.36451 -7.99581,4.62005 -12.52238,7.23453 l -8.23012,4.75361 -0.5253,-0.60662 c -0.28892,-0.33365 -0.66625,-0.60663 -0.83851,-0.60663 -0.17226,0 -2.83431,1.45781 -5.91566,3.23957 -3.08135,1.78177 -6.00208,3.44637 -6.49052,3.69912 l -0.88808,0.45956 -0.39177,-0.59792 c -0.21547,-0.32886 -0.55558,-0.59792 -0.75579,-0.59792 -0.20021,0 -2.79109,1.39564 -5.7575,3.10141 -2.96642,1.70578 -5.52767,3.10132 -5.69168,3.10121 -0.164,-1.2e-4 -0.29819,-0.19379 -0.29819,-0.4304 z"
         id="path1168"
         inkscape:connector-curvature="0" />
      <path
         style="fill:#171717;stroke-width:0.23855415"
         d="m -179.06989,-244.9021 c 1.2e-4,-0.46058 2.92997,-2.22915 20.64894,-12.46445 11.35685,-6.56024 20.83037,-11.95623 21.05228,-11.99109 0.51578,-0.081 4.45888,2.17528 4.45888,2.55145 0,0.15565 -5.68371,3.56415 -12.63046,7.57445 l -12.63046,7.29145 -0.49898,-0.62578 c -0.27444,-0.34418 -0.63334,-0.62578 -0.79756,-0.62578 -0.16423,0 -1.71466,0.8137 -3.4454,1.80822 l -3.14681,1.80823 -0.49075,-0.61546 c -0.26991,-0.3385 -0.63441,-0.61545 -0.81,-0.61545 -0.17559,0 -2.82471,1.44922 -5.88693,3.22048 -3.06223,1.77126 -5.62511,3.22048 -5.69528,3.22048 -0.0702,0 -0.12754,-0.24153 -0.12747,-0.53675 z"
         id="path1160"
         inkscape:connector-curvature="0" />
    </g>
  </g>
</svg>
