<?xml version="1.0" encoding="UTF-8" standalone="no"?>
<svg
   xmlns:dc="http://purl.org/dc/elements/1.1/"
   xmlns:cc="http://creativecommons.org/ns#"
   xmlns:rdf="http://www.w3.org/1999/02/22-rdf-syntax-ns#"
   xmlns:svg="http://www.w3.org/2000/svg"
   xmlns="http://www.w3.org/2000/svg"
   xmlns:sodipodi="http://sodipodi.sourceforge.net/DTD/sodipodi-0.dtd"
   xmlns:inkscape="http://www.inkscape.org/namespaces/inkscape"
   viewBox="0 0 100 100"
   version="1.1"
   id="svg8"
   sodipodi:docname="renbtc.svg"
   width="100"
   height="100"
   style="fill:#f5a623"
   inkscape:version="0.92.5 (2060ec1f9f, 2020-04-08)">
  <metadata
     id="metadata14">
    <rdf:RDF>
      <cc:Work
         rdf:about="">
        <dc:format>image/svg+xml</dc:format>
        <dc:type
           rdf:resource="http://purl.org/dc/dcmitype/StillImage" />
        <dc:title />
      </cc:Work>
    </rdf:RDF>
  </metadata>
  <defs
     id="defs12" />
  <sodipodi:namedview
     pagecolor="#ffffff"
     bordercolor="#666666"
     borderopacity="1"
     objecttolerance="10"
     gridtolerance="10"
     guidetolerance="10"
     inkscape:pageopacity="0"
     inkscape:pageshadow="2"
     inkscape:window-width="1848"
     inkscape:window-height="1016"
     id="namedview10"
     showgrid="false"
     inkscape:zoom="1.3037281"
     inkscape:cx="68.916157"
     inkscape:cy="1.6134889"
     inkscape:window-x="72"
     inkscape:window-y="1107"
     inkscape:window-maximized="1"
     inkscape:current-layer="svg8"
     fit-margin-top="0"
     fit-margin-left="0"
     fit-margin-right="0"
     fit-margin-bottom="0" />
  <path
     style="fill:#ffffff;stroke-width:0.39092636"
     id="path821"
     d="M 50.000439,0 C 22.386078,0 -5e-7,22.38544 -5e-7,50 c 0,27.61412 22.3860785,50 50.0004395,50 27.61437,0 49.99956,-22.38588 49.99956,-50 0,-27.61456 -22.38519,-50 -49.99956,-50 z"
     inkscape:connector-curvature="0"
     sodipodi:nodetypes="sssss" />
  <path
     inkscape:connector-curvature="0"
     d="m 59.832734,53.89329 c -1.152436,-0.57753 -3.719626,-1.35522 -6.775296,-1.55758 -3.056999,-0.20192 -6.978098,0 -6.978098,0 v 13.23482 c 0,0 4.094362,0.0873 6.834815,-0.11463 2.737802,-0.20192 5.564224,-0.89364 6.977214,-1.67309 1.412107,-0.77857 3.113868,-1.98963 3.113868,-5.01662 0,-3.02831 -2.018745,-4.29624 -3.172503,-4.8729 z"
     id="path2"
     style="fill:#0f3158;stroke-width:0.39092636;fill-opacity:1" />
  <path
     inkscape:connector-curvature="0"
     d="m 51.211511,46.19356 c 2.250205,-0.0868 4.643248,-0.60531 6.371901,-1.55714 1.730416,-0.95139 2.710473,-2.4499 2.654042,-4.69964 -0.05908,-2.2493 -1.557156,-4.15208 -4.094366,-4.93153 -2.538089,-0.77857 -4.238086,-0.83633 -6.171304,-0.86498 -1.931892,-0.0282 -3.892886,0.1446 -3.892886,0.1446 v 11.90869 c 3.91e-4,0 2.883732,0.0868 5.132613,0 z"
     id="path4"
     style="fill:#0f3158;stroke-width:0.39092636;fill-opacity:1" />
  <path
     style="fill:#000000;stroke-width:0.39092636"
     d="M 46.080078 72.931641 L 46.132812 72.894531 L 46.080078 72.894531 L 46.080078 72.931641 z "
     id="path930" />
  <path
     style="fill:#000000;stroke-width:0.39092636"
     d="M 35.197266 64.324219 L 33.685547 65.402344 C 34.235515 65.330921 34.663288 65.20227 35.005859 64.878906 C 35.161713 64.73153 35.106393 64.507349 35.197266 64.324219 z "
     id="path928" />
  <path
     style="fill:#000000;stroke-width:0.39092636"
     d="M 35.640625 60.5 L 29.349609 65.482422 L 32.728516 65.482422 C 33.150098 65.482422 33.402459 65.439108 33.685547 65.402344 L 35.197266 64.324219 C 35.408947 63.897629 35.640625 63.455685 35.640625 63.03125 L 35.640625 60.5 z "
     id="path926" />
  <path
     style="fill:#0f3158;stroke-width:0.39092636;fill-opacity:1"
     d="M 10.539062 80.378906 L 28.988281 65.769531 L 29.037109 65.482422 L 29.349609 65.482422 L 35.640625 60.5 L 35.640625 44.195312 L 2.8496094 65.986328 C 4.6341824 71.244042 7.216568 76.071147 10.539062 80.378906 z "
     id="path922" />
  <path
     style="fill:#0f3158;stroke-width:0.39092636;fill-opacity:1"
     d="M 20.332031 90.048828 L 39.908203 74.453125 L 39.908203 72.894531 L 27.769531 72.894531 L 28.40625 69.171875 L 11.34375 81.355469 C 13.987028 84.609412 16.962338 87.547492 20.332031 90.048828 z "
     id="path918" />
  <path
     style="fill:#0f3158;stroke-width:0.39092636;fill-opacity:1"
     d="M 99.814453 53.671875 L 44.234375 99.642578 C 46.129315 99.860525 48.046667 100 50 100 C 76.374507 100 97.927595 79.564709 99.814453 53.671875 z "
     id="path914" />
  <path
     style="fill:#0f3158;stroke-width:0.39092636;fill-opacity:1"
     d="M 97.685547 35.736328 L 73.865234 52.90625 C 74.596042 54.36944 75.045599 56.164057 74.998047 58.361328 C 74.913397 62.456088 74.078555 66.522247 70.359375 69.117188 C 66.638427 71.712568 62.659466 72.174607 60.900391 72.404297 C 60.032316 72.518477 58.545799 72.638962 56.951172 72.732422 L 56.951172 82.757812 L 50.779297 82.757812 L 50.779297 72.894531 L 46.132812 72.894531 L 46.080078 72.931641 L 46.080078 82.757812 L 39.908203 82.757812 L 39.908203 77.380859 L 21.265625 90.818359 C 27.579727 95.272622 34.936205 98.308842 42.9375 99.443359 L 99.876953 47.568359 C 99.6782 43.44711 98.823087 39.53667 97.685547 35.736328 z "
     id="path910" />
  <path
     style="fill:#0f3158;stroke-width:0.39092636;fill-opacity:1"
     d="M 92.285156 23.5625 L 71.433594 38.451172 C 71.433404 38.852338 71.554038 39.588057 71.539062 39.792969 C 71.453092 40.975379 70.933665 43.253246 69.894531 44.722656 C 68.857602 46.193826 66.320312 47.664063 66.320312 47.664062 C 66.320312 47.664062 68.946432 48.295338 71.011719 49.673828 L 95.757812 29.960938 C 94.775896 27.722754 93.571179 25.614923 92.285156 23.5625 z "
     id="path906" />
  <path
     style="fill:#0f3158;stroke-width:0.39092636;fill-opacity:1"
     d="M 83.015625 12.712891 L 60.123047 27.925781 C 63.113817 28.401253 65.749962 29.159718 67.962891 30.794922 C 68.911196 31.49538 69.602736 32.328301 70.123047 33.195312 L 88.59375 18.568359 C 86.88051 16.46771 85.043217 14.509464 83.015625 12.712891 z "
     id="path902" />
  <path
     style="fill:#0f3158;stroke-width:0.39092636;fill-opacity:1"
     d="M 46.078125 18.357422 L 46.078125 27.306641 L 50.777344 27.306641 L 50.777344 17.416016 L 56.949219 17.416016 L 56.949219 25.082031 L 78.679688 9.1367188 C 75.717474 7.0532893 72.558713 5.2481404 69.171875 3.8398438 L 46.078125 18.357422 z "
     id="path898" />
  <path
     style="fill:#000000;stroke-width:0.39092636"
     d="M 31.839844 27.306641 L 39.908203 27.306641 L 39.908203 22.234375 L 31.839844 27.306641 z "
     id="path896" />
  <path
     style="fill:#0f3158;stroke-width:0.39092636;fill-opacity:1"
     d="M 0.13867188 47.232422 C 0.088064161 48.154275 0 49.065505 0 50 C 0 55.263127 1.0372948 60.237469 2.5449219 65.001953 L 35.640625 40.716797 L 35.640625 37.498047 C 35.640625 35.898577 35.510763 35.465861 34.775391 34.644531 C 34.040019 33.821431 32.30982 33.714844 31.335938 33.714844 L 27.769531 33.714844 L 27.769531 29.865234 L 0.13867188 47.232422 z "
     id="path894" />
  <path
     style="fill:#0f3158;stroke-width:0.39092636;fill-opacity:1"
     d="M 61.212891 1.3691406 C 57.596126 0.53733793 53.869292 0 50 0 C 23.925567 0 2.5375952 19.965895 0.23046875 45.439453 L 61.212891 1.3691406 z "
     id="path892" />
</svg>
