<?xml version="1.0" encoding="UTF-8" standalone="no"?>
<svg
   xmlns:dc="http://purl.org/dc/elements/1.1/"
   xmlns:cc="http://creativecommons.org/ns#"
   xmlns:rdf="http://www.w3.org/1999/02/22-rdf-syntax-ns#"
   xmlns:svg="http://www.w3.org/2000/svg"
   xmlns="http://www.w3.org/2000/svg"
   xmlns:sodipodi="http://sodipodi.sourceforge.net/DTD/sodipodi-0.dtd"
   xmlns:inkscape="http://www.inkscape.org/namespaces/inkscape"
   class="dai-icon"
   width="100"
   height="100"
   viewBox="0 0 80 80"
   version="1.1"
   id="svg6"
   sodipodi:docname="tbtc.svg"
   style="fill:none"
   inkscape:version="0.92.5 (2060ec1f9f, 2020-04-08)">
  <metadata
     id="metadata12">
    <rdf:RDF>
      <cc:Work
         rdf:about="">
        <dc:format>image/svg+xml</dc:format>
        <dc:type
           rdf:resource="http://purl.org/dc/dcmitype/StillImage" />
        <dc:title></dc:title>
      </cc:Work>
    </rdf:RDF>
  </metadata>
  <defs
     id="defs10" />
  <sodipodi:namedview
     pagecolor="#ffffff"
     bordercolor="#666666"
     borderopacity="1"
     objecttolerance="10"
     gridtolerance="10"
     guidetolerance="10"
     inkscape:pageopacity="0"
     inkscape:pageshadow="2"
     inkscape:window-width="1848"
     inkscape:window-height="1016"
     id="namedview8"
     showgrid="false"
     scale-x="0.8"
     fit-margin-top="0"
     fit-margin-left="0"
     fit-margin-right="0"
     fit-margin-bottom="0"
     inkscape:zoom="5.8711291"
     inkscape:cx="-7.4971329"
     inkscape:cy="33.33972"
     inkscape:window-x="72"
     inkscape:window-y="27"
     inkscape:window-maximized="1"
     inkscape:current-layer="svg6"
     showguides="false" />
  <path
     style="fill:#ffffff;fill-opacity:1;stroke-width:0.56497175"
     d="M 50 7.8359375 A 42.165051 42.165051 0 0 0 45.791016 8.0507812 A 42.165051 42.165051 0 0 0 41.623047 8.6875 A 42.165051 42.165051 0 0 0 37.541016 9.734375 A 42.165051 42.165051 0 0 0 33.583984 11.185547 A 42.165051 42.165051 0 0 0 29.791016 13.025391 A 42.165051 42.165051 0 0 0 26.203125 15.232422 A 42.165051 42.165051 0 0 0 22.851562 17.789062 A 42.165051 42.165051 0 0 0 19.771484 20.666016 A 42.165051 42.165051 0 0 0 16.994141 23.835938 A 42.165051 42.165051 0 0 0 16.992188 23.835938 A 42.165051 42.165051 0 0 0 14.546875 27.267578 A 42.165051 42.165051 0 0 0 13.603516 28.810547 A 42.165051 42.165051 0 0 0 11.662109 32.550781 A 42.165051 42.165051 0 0 0 11.660156 32.552734 A 42.165051 42.165051 0 0 0 10.099609 36.466797 A 42.165051 42.165051 0 0 0 8.9375 40.517578 A 42.165051 42.165051 0 0 0 8.9375 40.519531 A 42.165051 42.165051 0 0 0 8.1875 44.666016 A 42.165051 42.165051 0 0 0 7.8535156 48.867188 A 42.165051 42.165051 0 0 0 7.8359375 50 A 42.165051 42.165051 0 0 0 8.0625 54.207031 A 42.165051 42.165051 0 0 0 8.6191406 57.927734 A 42.165051 42.165051 0 0 0 9.6171875 62.021484 A 42.165051 42.165051 0 0 0 9.6171875 62.023438 A 42.165051 42.165051 0 0 0 11.019531 65.996094 A 42.165051 42.165051 0 0 0 12.810547 69.8125 A 42.165051 42.165051 0 0 0 14.974609 73.429688 A 42.165051 42.165051 0 0 0 17.488281 76.8125 A 42.165051 42.165051 0 0 0 17.490234 76.8125 A 42.165051 42.165051 0 0 0 20.328125 79.927734 A 42.165051 42.165051 0 0 0 23.464844 82.742188 A 42.165051 42.165051 0 0 0 26.865234 85.232422 A 42.165051 42.165051 0 0 0 30.498047 87.369141 A 42.165051 42.165051 0 0 0 34.326172 89.130859 A 42.165051 42.165051 0 0 0 38.3125 90.503906 A 42.165051 42.165051 0 0 0 42.414062 91.470703 A 42.165051 42.165051 0 0 0 42.416016 91.472656 A 42.165051 42.165051 0 0 0 46.59375 92.025391 A 42.165051 42.165051 0 0 0 50 92.164062 A 42.165051 42.165051 0 0 0 54.207031 91.925781 A 42.165051 42.165051 0 0 0 56.017578 91.691406 A 42.165051 42.165051 0 0 0 60.152344 90.876953 A 42.165051 42.165051 0 0 0 64.185547 89.652344 A 42.165051 42.165051 0 0 0 68.076172 88.03125 A 42.165051 42.165051 0 0 0 71.785156 86.03125 A 42.165051 42.165051 0 0 0 75.275391 83.669922 A 42.165051 42.165051 0 0 0 75.277344 83.667969 A 42.165051 42.165051 0 0 0 78.513672 80.970703 A 42.165051 42.165051 0 0 0 81.466797 77.962891 A 42.165051 42.165051 0 0 0 84.103516 74.675781 A 42.165051 42.165051 0 0 0 85.554688 72.53125 A 42.165051 42.165051 0 0 0 87.640625 68.869141 A 42.165051 42.165051 0 0 0 89.349609 65.015625 A 42.165051 42.165051 0 0 0 90.664062 61.013672 A 42.165051 42.165051 0 0 0 91.574219 56.898438 A 42.165051 42.165051 0 0 0 92.068359 52.710938 A 42.165051 42.165051 0 0 0 92.164062 50 A 42.165051 42.165051 0 0 0 91.955078 45.791016 A 42.165051 42.165051 0 0 0 91.324219 41.623047 A 42.165051 42.165051 0 0 0 90.283203 37.539062 A 42.165051 42.165051 0 0 0 88.837891 33.580078 A 42.165051 42.165051 0 0 0 87.003906 29.785156 A 42.165051 42.165051 0 0 0 84.800781 26.193359 A 42.165051 42.165051 0 0 0 82.25 22.837891 A 42.165051 42.165051 0 0 0 82.248047 22.837891 A 42.165051 42.165051 0 0 0 79.376953 19.751953 A 42.165051 42.165051 0 0 0 76.208984 16.970703 A 42.165051 42.165051 0 0 0 72.78125 14.519531 A 42.165051 42.165051 0 0 0 69.125 12.423828 A 42.165051 42.165051 0 0 0 65.279297 10.699219 A 42.165051 42.165051 0 0 0 61.279297 9.3710938 A 42.165051 42.165051 0 0 0 57.167969 8.4472656 A 42.165051 42.165051 0 0 0 52.982422 7.9414062 A 42.165051 42.165051 0 0 0 50 7.8359375 z "
     id="path1046"
     transform="scale(0.8)" />
  <path
     style="fill:#000000;fill-opacity:1;stroke-width:0.56497175"
     d="M 50 0 A 50 50 0 0 0 6.8417969 24.875 A 50 50 0 0 0 0 50 A 50 50 0 0 0 0.9296875 59.400391 A 50 50 0 0 0 50 100 A 50 50 0 0 0 57.134766 99.439453 A 50 50 0 0 0 92.162109 76.71875 A 50 50 0 0 0 100 50 A 50 50 0 0 0 50 0 z M 50 7.8359375 A 42.165051 42.165051 0 0 1 52.982422 7.9414062 A 42.165051 42.165051 0 0 1 57.167969 8.4472656 A 42.165051 42.165051 0 0 1 61.279297 9.3710938 A 42.165051 42.165051 0 0 1 65.279297 10.699219 A 42.165051 42.165051 0 0 1 69.125 12.423828 A 42.165051 42.165051 0 0 1 72.78125 14.519531 A 42.165051 42.165051 0 0 1 76.208984 16.970703 A 42.165051 42.165051 0 0 1 79.376953 19.751953 A 42.165051 42.165051 0 0 1 82.248047 22.837891 A 42.165051 42.165051 0 0 0 82.25 22.837891 A 42.165051 42.165051 0 0 1 84.800781 26.193359 A 42.165051 42.165051 0 0 1 87.003906 29.785156 A 42.165051 42.165051 0 0 1 88.837891 33.580078 A 42.165051 42.165051 0 0 1 90.283203 37.539062 A 42.165051 42.165051 0 0 1 91.324219 41.623047 A 42.165051 42.165051 0 0 1 91.955078 45.791016 A 42.165051 42.165051 0 0 1 92.164062 50 A 42.165051 42.165051 0 0 1 92.068359 52.710938 A 42.165051 42.165051 0 0 1 91.574219 56.898438 A 42.165051 42.165051 0 0 1 90.664062 61.013672 A 42.165051 42.165051 0 0 1 89.349609 65.015625 A 42.165051 42.165051 0 0 1 87.640625 68.869141 A 42.165051 42.165051 0 0 1 85.554688 72.53125 A 42.165051 42.165051 0 0 1 84.103516 74.675781 A 42.165051 42.165051 0 0 1 81.466797 77.962891 A 42.165051 42.165051 0 0 1 78.513672 80.970703 A 42.165051 42.165051 0 0 1 75.277344 83.667969 A 42.165051 42.165051 0 0 0 75.275391 83.669922 A 42.165051 42.165051 0 0 1 71.785156 86.03125 A 42.165051 42.165051 0 0 1 68.076172 88.03125 A 42.165051 42.165051 0 0 1 64.185547 89.652344 A 42.165051 42.165051 0 0 1 60.152344 90.876953 A 42.165051 42.165051 0 0 1 56.017578 91.691406 A 42.165051 42.165051 0 0 1 54.207031 91.925781 A 42.165051 42.165051 0 0 1 50 92.164062 A 42.165051 42.165051 0 0 1 46.59375 92.025391 A 42.165051 42.165051 0 0 1 42.416016 91.472656 A 42.165051 42.165051 0 0 0 42.414062 91.470703 A 42.165051 42.165051 0 0 1 38.3125 90.503906 A 42.165051 42.165051 0 0 1 34.326172 89.130859 A 42.165051 42.165051 0 0 1 30.498047 87.369141 A 42.165051 42.165051 0 0 1 26.865234 85.232422 A 42.165051 42.165051 0 0 1 23.464844 82.742188 A 42.165051 42.165051 0 0 1 20.328125 79.927734 A 42.165051 42.165051 0 0 1 17.490234 76.8125 A 42.165051 42.165051 0 0 0 17.488281 76.8125 A 42.165051 42.165051 0 0 1 14.974609 73.429688 A 42.165051 42.165051 0 0 1 12.810547 69.8125 A 42.165051 42.165051 0 0 1 11.019531 65.996094 A 42.165051 42.165051 0 0 1 9.6171875 62.023438 A 42.165051 42.165051 0 0 0 9.6171875 62.021484 A 42.165051 42.165051 0 0 1 8.6191406 57.927734 A 42.165051 42.165051 0 0 1 8.0625 54.207031 A 42.165051 42.165051 0 0 1 7.8359375 50 A 42.165051 42.165051 0 0 1 7.8535156 48.867188 A 42.165051 42.165051 0 0 1 8.1875 44.666016 A 42.165051 42.165051 0 0 1 8.9375 40.519531 A 42.165051 42.165051 0 0 0 8.9375 40.517578 A 42.165051 42.165051 0 0 1 10.099609 36.466797 A 42.165051 42.165051 0 0 1 11.660156 32.552734 A 42.165051 42.165051 0 0 0 11.662109 32.550781 A 42.165051 42.165051 0 0 1 13.603516 28.810547 A 42.165051 42.165051 0 0 1 14.546875 27.267578 A 42.165051 42.165051 0 0 1 16.992188 23.835938 A 42.165051 42.165051 0 0 0 16.994141 23.835938 A 42.165051 42.165051 0 0 1 19.771484 20.666016 A 42.165051 42.165051 0 0 1 22.851562 17.789062 A 42.165051 42.165051 0 0 1 26.203125 15.232422 A 42.165051 42.165051 0 0 1 29.791016 13.025391 A 42.165051 42.165051 0 0 1 33.583984 11.185547 A 42.165051 42.165051 0 0 1 37.541016 9.734375 A 42.165051 42.165051 0 0 1 41.623047 8.6875 A 42.165051 42.165051 0 0 1 45.791016 8.0507812 A 42.165051 42.165051 0 0 1 50 7.8359375 z "
     id="path931"
     transform="scale(0.8)" />
  <g
     id="g1040"
     transform="matrix(1.3689507,0,0,1.3689507,235.44018,31.475928)">
    <circle
       r="3.2849729"
       cy="-5.2610111"
       cx="-142.64935"
       id="path1023"
       style="opacity:1;fill:#000000;fill-opacity:1;stroke:none;stroke-width:22.55569649;stroke-linecap:round;stroke-linejoin:round;stroke-miterlimit:4;stroke-dasharray:none;stroke-dashoffset:0;stroke-opacity:1" />
    <rect
       ry="0"
       rx="0"
       y="3.9669251"
       x="-154.92761"
       height="4.8372297"
       width="24.322409"
       id="rect1033"
       style="opacity:1;fill:#000000;fill-opacity:1;stroke:none;stroke-width:15.88078785;stroke-linecap:round;stroke-linejoin:round;stroke-miterlimit:4;stroke-dasharray:none;stroke-dashoffset:0;stroke-opacity:1" />
    <rect
       transform="rotate(90)"
       style="opacity:1;fill:#000000;fill-opacity:1;stroke:none;stroke-width:13.57063675;stroke-linecap:round;stroke-linejoin:round;stroke-miterlimit:4;stroke-dasharray:none;stroke-dashoffset:0;stroke-opacity:1"
       id="rect1035"
       width="15.192989"
       height="5.6547894"
       x="5.8064346"
       y="139.93901"
       rx="0"
       ry="0" />
  </g>
</svg>
