<?xml version="1.0" encoding="UTF-8" standalone="no"?>
<svg
   xmlns:dc="http://purl.org/dc/elements/1.1/"
   xmlns:cc="http://creativecommons.org/ns#"
   xmlns:rdf="http://www.w3.org/1999/02/22-rdf-syntax-ns#"
   xmlns:svg="http://www.w3.org/2000/svg"
   xmlns="http://www.w3.org/2000/svg"
   xmlns:sodipodi="http://sodipodi.sourceforge.net/DTD/sodipodi-0.dtd"
   xmlns:inkscape="http://www.inkscape.org/namespaces/inkscape"
   width="100"
   height="100.00018"
   viewBox="0 0 100 100.00018"
   version="1.1"
   id="svg8"
   sodipodi:docname="unknown.svg"
   style="fill:none"
   inkscape:version="0.92.5 (2060ec1f9f, 2020-04-08)">
  <metadata
     id="metadata14">
    <rdf:RDF>
      <cc:Work
         rdf:about="">
        <dc:format>image/svg+xml</dc:format>
        <dc:type
           rdf:resource="http://purl.org/dc/dcmitype/StillImage" />
        <dc:title />
      </cc:Work>
    </rdf:RDF>
  </metadata>
  <defs
     id="defs12" />
  <sodipodi:namedview
     pagecolor="#ffffff"
     bordercolor="#666666"
     borderopacity="1"
     objecttolerance="10"
     gridtolerance="10"
     guidetolerance="10"
     inkscape:pageopacity="0"
     inkscape:pageshadow="2"
     inkscape:window-width="1848"
     inkscape:window-height="1016"
     id="namedview10"
     showgrid="false"
     fit-margin-top="0"
     fit-margin-left="0"
     fit-margin-right="0"
     fit-margin-bottom="0"
     inkscape:zoom="4.17193"
     inkscape:cx="-21.622468"
     inkscape:cy="41.804896"
     inkscape:window-x="72"
     inkscape:window-y="1107"
     inkscape:window-maximized="1"
     inkscape:current-layer="svg8" />
  <path
     inkscape:connector-curvature="0"
     d="M 50.000152,100.00017 C 77.614334,100.00017 100,77.614508 100,50.000054 100,22.385818 77.614334,4.9718407e-8 50.000152,4.9718407e-8 22.385807,4.9718407e-8 3.1390797e-8,22.385818 3.1390797e-8,50.000054 3.1390797e-8,77.614508 22.385807,100.00017 50.000152,100.00017 Z"
     id="path2"
     style="fill:#d3d3da;stroke-width:5.43025064;fill-opacity:1" />
  <path
     style="fill:#f0f0f1;fill-opacity:1;stroke-width:4.36292553"
     id="path835"
     d="m 50.000122,90.172568 c 22.186567,0 40.172292,-17.985722 40.172292,-40.172508 0,-22.18661 -17.985725,-40.1724575 -40.172292,-40.1724575 -22.186698,0 -40.1725362,17.9858475 -40.1725362,40.1724575 0,22.186786 17.9858382,40.172508 40.1725362,40.172508 z"
     inkscape:connector-curvature="0" />
  <path
     style="fill:#d3d3da;fill-opacity:1;stroke-width:2.892102"
     d="M 50 23.371094 C 35.292851 23.371094 23.371094 35.292909 23.371094 50 C 23.371094 64.707206 35.292851 76.628906 50 76.628906 C 62.239322 76.628906 72.44122 68.325575 75.556641 57.078125 L 65.460938 57.078125 C 65.071018 57.927185 64.649102 58.76024 64.130859 59.527344 C 63.51836 60.433967 62.821762 61.279798 62.050781 62.050781 C 61.279801 62.821765 60.433963 63.518358 59.527344 64.130859 C 58.620725 64.74336 57.652228 65.271949 56.632812 65.703125 C 55.613398 66.134301 54.542962 66.468304 53.433594 66.695312 C 52.324226 66.922322 51.176479 67.041016 50 67.041016 C 48.823515 67.041016 47.675781 66.922322 46.566406 66.695312 C 45.457032 66.468304 44.386609 66.134301 43.367188 65.703125 C 42.347766 65.271949 41.379281 64.74336 40.472656 64.130859 C 39.566032 63.518358 38.720204 62.821765 37.949219 62.050781 C 37.178233 61.279798 36.481644 60.433967 35.869141 59.527344 C 35.256637 58.62072 34.728053 57.652234 34.296875 56.632812 C 33.865697 55.613391 33.531697 54.544924 33.304688 53.435547 C 33.077677 52.32617 32.958984 51.17649 32.958984 50 C 32.958984 48.823519 33.077677 47.675778 33.304688 46.566406 C 33.531697 45.457035 33.865697 44.386605 34.296875 43.367188 C 34.728053 42.347769 35.256637 41.379279 35.869141 40.472656 C 36.481644 39.566033 37.178233 38.720203 37.949219 37.949219 C 38.720204 37.178234 39.566032 36.481643 40.472656 35.869141 C 41.379281 35.256638 42.347766 34.728053 43.367188 34.296875 C 44.386609 33.865697 45.457032 33.531697 46.566406 33.304688 C 47.675781 33.077677 48.823515 32.958984 50 32.958984 C 51.176479 32.958984 52.324226 33.077677 53.433594 33.304688 C 54.542962 33.531697 55.613398 33.865697 56.632812 34.296875 C 57.652228 34.728053 58.620725 35.256638 59.527344 35.869141 C 60.433963 36.481643 61.279801 37.178234 62.050781 37.949219 C 62.821762 38.720203 63.51836 39.566033 64.130859 40.472656 C 64.48334 40.994398 64.740827 41.578037 65.035156 42.138672 L 75.314453 42.138672 C 71.944557 31.296194 61.951329 23.371094 50 23.371094 z "
     id="path843" />
</svg>
