<?xml version="1.0" encoding="UTF-8" standalone="no"?>
<svg
   xmlns:dc="http://purl.org/dc/elements/1.1/"
   xmlns:cc="http://creativecommons.org/ns#"
   xmlns:rdf="http://www.w3.org/1999/02/22-rdf-syntax-ns#"
   xmlns:svg="http://www.w3.org/2000/svg"
   xmlns="http://www.w3.org/2000/svg"
   xmlns:sodipodi="http://sodipodi.sourceforge.net/DTD/sodipodi-0.dtd"
   xmlns:inkscape="http://www.inkscape.org/namespaces/inkscape"
   viewBox="0 0 100 100"
   version="1.1"
   id="svg8"
   sodipodi:docname="wbtc.svg"
   width="100"
   height="100"
   style="fill:#f5a623"
   inkscape:version="0.92.5 (2060ec1f9f, 2020-04-08)">
  <metadata
     id="metadata14">
    <rdf:RDF>
      <cc:Work
         rdf:about="">
        <dc:format>image/svg+xml</dc:format>
        <dc:type
           rdf:resource="http://purl.org/dc/dcmitype/StillImage" />
        <dc:title />
      </cc:Work>
    </rdf:RDF>
  </metadata>
  <defs
     id="defs12" />
  <sodipodi:namedview
     pagecolor="#ffffff"
     bordercolor="#666666"
     borderopacity="1"
     objecttolerance="10"
     gridtolerance="10"
     guidetolerance="10"
     inkscape:pageopacity="0"
     inkscape:pageshadow="2"
     inkscape:window-width="1848"
     inkscape:window-height="1016"
     id="namedview10"
     showgrid="false"
     inkscape:zoom="1.84375"
     inkscape:cx="-108.7674"
     inkscape:cy="18.609453"
     inkscape:window-x="72"
     inkscape:window-y="1107"
     inkscape:window-maximized="1"
     inkscape:current-layer="svg8"
     fit-margin-top="0"
     fit-margin-left="0"
     fit-margin-right="0"
     fit-margin-bottom="0" />
  <g
     id="g827">
    <path
       sodipodi:nodetypes="sssss"
       inkscape:connector-curvature="0"
       d="M 50.000439,0 C 22.386078,0 -5e-7,22.38544 -5e-7,50 c 0,27.61412 22.3860785,50 50.0004395,50 27.61437,0 49.99956,-22.38588 49.99956,-50 0,-27.61456 -22.38519,-50 -49.99956,-50 z"
       id="path821"
       style="fill:#ffffff;stroke-width:0.39092636" />
    <path
       style="fill:#000000;stroke-width:0.39092636"
       id="path2"
       d="m 59.832734,53.89329 c -1.152436,-0.57753 -3.719626,-1.35522 -6.775296,-1.55758 -3.056999,-0.20192 -6.978098,0 -6.978098,0 v 13.23482 c 0,0 4.094362,0.0873 6.834815,-0.11463 2.737802,-0.20192 5.564224,-0.89364 6.977214,-1.67309 1.412107,-0.77857 3.113868,-1.98963 3.113868,-5.01662 0,-3.02831 -2.018745,-4.29624 -3.172503,-4.8729 z"
       inkscape:connector-curvature="0" />
    <path
       style="fill:#000000;stroke-width:0.39092636"
       id="path4"
       d="m 51.211511,46.19356 c 2.250205,-0.0868 4.643248,-0.60531 6.371901,-1.55714 1.730416,-0.95139 2.710473,-2.4499 2.654042,-4.69964 -0.05908,-2.2493 -1.557156,-4.15208 -4.094366,-4.93153 -2.538089,-0.77857 -4.238086,-0.83633 -6.171304,-0.86498 -1.931892,-0.0282 -3.892886,0.1446 -3.892886,0.1446 v 11.90869 c 3.91e-4,0 2.883732,0.0868 5.132613,0 z"
       inkscape:connector-curvature="0" />
    <path
       style="fill:#000000;stroke-width:0.39092636"
       id="path6"
       d="M 50.000439,0 C 22.386079,0 0,22.38544 0,50 c 0,27.61412 22.386079,50 50.000439,50 27.614363,0 49.999559,-22.38588 49.999559,-50 0,-27.61456 -22.385196,-50 -49.999559,-50 z m 20.358519,69.11774 c -3.720948,2.59538 -7.699802,3.05741 -9.458877,3.2871 -0.868075,0.11418 -2.35513,0.23454 -3.949757,0.328 v 10.02443 h -6.171305 v -9.86219 c -1.152878,0 -2.804377,0 -4.699679,0 v 9.86219 h -6.170866 v -9.86219 c -6.106936,0 -12.139807,0 -12.139807,0 l 1.268825,-7.41185 c 0,0 2.450799,0 3.690526,0 1.24061,0 1.758632,-0.11506 2.277537,-0.60487 0.518905,-0.49068 0.634413,-1.23971 0.634413,-1.84635 0,-0.6053 0,-23.93288 0,-25.53322 0,-1.59947 -0.130057,-2.0324 -0.865429,-2.85373 -0.735372,-0.8231 -2.464907,-0.93111 -3.438789,-0.93111 -0.973002,0 -3.567083,0 -3.567083,0 v -6.40712 c 0,0 5.83977,0 12.139369,0 v -9.8904 h 6.170421 v 9.8904 c 1.714544,0 3.322842,0 4.699679,0 v -9.8904 h 6.171304 v 10.009 c 4.600485,0.28524 8.025168,1.16168 11.014266,3.37042 3.864673,2.85461 3.661871,7.81392 3.57546,8.99632 -0.08597,1.18241 -0.604871,3.46081 -1.644005,4.93022 -1.036929,1.47117 -3.574576,2.9419 -3.574576,2.9419 0,0 2.99836,0.63397 5.104395,2.2202 2.103396,1.58624 3.662312,4.38266 3.573696,8.47743 -0.08465,4.09476 -0.920538,8.16088 -4.639718,10.75582 z"
       inkscape:connector-curvature="0" />
  </g>
</svg>
