<?xml version="1.0" encoding="UTF-8" standalone="no"?>
<svg
   xmlns:dc="http://purl.org/dc/elements/1.1/"
   xmlns:cc="http://creativecommons.org/ns#"
   xmlns:rdf="http://www.w3.org/1999/02/22-rdf-syntax-ns#"
   xmlns:svg="http://www.w3.org/2000/svg"
   xmlns="http://www.w3.org/2000/svg"
   xmlns:sodipodi="http://sodipodi.sourceforge.net/DTD/sodipodi-0.dtd"
   xmlns:inkscape="http://www.inkscape.org/namespaces/inkscape"
   viewBox="0 0 118.55895 100"
   width="100"
   version="1.1"
   id="svg1637"
   sodipodi:docname="usdc.svg"
   height="100"
   style="fill:none"
   inkscape:version="0.92.5 (2060ec1f9f, 2020-04-08)">
  <metadata
     id="metadata1641">
    <rdf:RDF>
      <cc:Work
         rdf:about="">
        <dc:format>image/svg+xml</dc:format>
        <dc:type
           rdf:resource="http://purl.org/dc/dcmitype/StillImage" />
        <dc:title></dc:title>
      </cc:Work>
    </rdf:RDF>
  </metadata>
  <sodipodi:namedview
     pagecolor="#ffffff"
     bordercolor="#666666"
     borderopacity="1"
     objecttolerance="10"
     gridtolerance="10"
     guidetolerance="10"
     inkscape:pageopacity="0"
     inkscape:pageshadow="2"
     inkscape:window-width="1848"
     inkscape:window-height="1016"
     id="namedview1639"
     showgrid="false"
     fit-margin-top="0"
     fit-margin-left="0"
     fit-margin-right="0"
     fit-margin-bottom="0"
     inkscape:zoom="2.9213974"
     inkscape:cx="11.941793"
     inkscape:cy="36.062895"
     inkscape:window-x="72"
     inkscape:window-y="27"
     inkscape:window-maximized="1"
     inkscape:current-layer="svg1637" />
  <path
     d="m -268.739,55.398475 c -0.325,0 -0.601,-0.113 -0.828,-0.338 -0.227,-0.193 -0.341,-0.467 -0.341,-0.82 v -3.38 c -2.337,-0.225 -4.349,-0.773 -6.037,-1.642 -1.655,-0.901 -2.921,-1.995 -3.797,-3.283 -0.844,-1.32 -1.298,-2.72 -1.363,-4.2 0,-0.29 0.097,-0.531 0.292,-0.724 0.227,-0.194 0.487,-0.29 0.779,-0.29 h 4.333 c 0.357,0 0.633,0.08 0.827,0.241 0.228,0.129 0.439,0.354 0.633,0.676 0.357,1.095 1.104,2.012 2.24,2.752 1.168,0.74 2.775,1.11 4.82,1.11 2.271,0 3.992,-0.37 5.16,-1.11 1.168,-0.772 1.753,-1.835 1.753,-3.186 0,-0.902 -0.292,-1.642 -0.877,-2.221 -0.584,-0.58 -1.476,-1.078 -2.677,-1.497 -1.201,-0.45 -2.97,-0.965 -5.307,-1.545 -3.83,-0.901 -6.637,-2.092 -8.422,-3.573 -1.753,-1.512 -2.629,-3.653 -2.629,-6.42 0,-2.511 0.909,-4.62 2.726,-6.326 1.85,-1.738 4.366,-2.800001 7.546,-3.186001 v -3.331 c 0,-0.355 0.114,-0.628 0.341,-0.821 0.227,-0.226 0.503,-0.338 0.828,-0.338 h 2.969 c 0.325,0 0.601,0.112 0.828,0.338 0.227,0.225 0.341,0.499 0.341,0.82 v 3.428 c 2.109,0.29 3.911,0.918001 5.404,1.883001 1.525,0.934 2.677,2.028 3.456,3.283 0.812,1.256 1.25,2.479 1.315,3.67 a 0.996,0.996 0 0 1 -1.023,1.014 h -4.527 c -0.714,0 -1.201,-0.306 -1.461,-0.918 -0.162,-1.03 -0.795,-1.883 -1.898,-2.559 -1.104,-0.708 -2.483,-1.062 -4.139,-1.062 -1.785,0 -3.197,0.338 -4.235,1.014 -1.039,0.676 -1.558,1.658 -1.558,2.945 0,0.901 0.26,1.642 0.779,2.221 0.519,0.58 1.331,1.094 2.434,1.545 1.136,0.45 2.759,0.95 4.869,1.497 2.856,0.644 5.128,1.368 6.815,2.172 1.721,0.805 2.986,1.819 3.798,3.042 0.811,1.223 1.217,2.784 1.217,4.683 0,2.768 -1.006,5.037 -3.019,6.808 -2.012,1.738 -4.754,2.784 -8.227,3.138 v 3.331 c 0,0.322 -0.114,0.596 -0.341,0.821 a 1.133,1.133 0 0 1 -0.828,0.338 z m 30.702,-4.828 c -0.325,0 -0.601,-0.113 -0.828,-0.338 a 1.114,1.114 0 0 1 -0.341,-0.82 v -25.01 l -7.4,5.649 c -0.194,0.16 -0.422,0.241 -0.681,0.241 -0.39,0 -0.714,-0.177 -0.974,-0.53 l -2.045,-2.608 c -0.162,-0.257 -0.243,-0.499 -0.243,-0.724 0,-0.386 0.178,-0.708 0.535,-0.966 l 10.906,-8.352001 c 0.292,-0.226 0.698,-0.338 1.217,-0.338 h 4.284 c 0.357,0 0.633,0.112 0.828,0.338 0.227,0.193001 0.34,0.467001 0.34,0.820001 v 31.48 c 0,0.321 -0.113,0.595 -0.34,0.82 -0.195,0.225 -0.471,0.338 -0.828,0.338 z"
     id="path1583"
     inkscape:connector-curvature="0"
     style="fill:#ffffff" />
  <path
     d="m -162.615,5.0894743 a 15.776,15.776 0 0 1 -14.299,-14.2999995 1.581,1.581 0 0 0 -1.573,-1.4379998 h -156.57 a 1.58,1.58 0 0 0 -1.573,1.4369998 15.777,15.777 0 0 1 -14.3,14.2999995 1.574,1.574 0 0 0 -1.437,1.572 V 61.316475 a 1.58,1.58 0 0 0 1.438,1.572 15.776,15.776 0 0 1 14.3,14.3 1.58,1.58 0 0 0 1.572,1.437 h 156.57 c 0.814,0 1.501,-0.624 1.573,-1.437 a 15.776,15.776 0 0 1 14.299,-14.3 1.58,1.58 0 0 0 1.438,-1.572 V 6.6604743 c 0,-0.821 -0.624,-1.5 -1.438,-1.572 z m -6.462,51.1860007 a 23.823,23.823 0 0 0 -14.45,14.45 h -146.49 a 23.825,23.825 0 0 0 -14.45,-14.45 V 11.701474 a 23.825,23.825 0 0 0 14.45,-14.4499997 h 146.498 a 23.823,23.823 0 0 0 14.45,14.4499997 v 44.574001 z"
     id="path1585"
     inkscape:connector-curvature="0"
     style="fill:#ffffff" />
  <g
     id="g1659"
     transform="matrix(0.8094729,0,0,0.81204861,-308.03196,-15.776011)">
    <path
       d="m 453.766,154 a 73.394,73.394 0 0 0 40.686,-12.303 73.049,73.049 0 0 0 26.972,-32.761 72.78,72.78 0 0 0 4.167,-42.178 A 72.922,72.922 0 0 0 505.549,29.381 73.3,73.3 0 0 0 468.053,9.403 73.447,73.447 0 0 0 425.742,13.557 73.181,73.181 0 0 0 392.876,40.443 72.834,72.834 0 0 0 380.534,81 72.882,72.882 0 0 0 401.984,132.619 73.348,73.348 0 0 0 453.766,154 Z"
       id="path1587"
       inkscape:connector-curvature="0"
       style="fill:#2775ca" />
    <path
       id="path1591"
       d="m 473.828,92.603 c 0,-10.645 -6.499,-14.234 -19.07,-15.953 -9.292,-1.338 -11.077,-3.513 -11.077,-7.832 0,-4.32 3.143,-7.011 9.154,-7.011 5.477,0 8.636,1.9 9.932,6.296 a 2.331,2.331 0 0 0 2.213,1.688 h 4.805 a 2.145,2.145 0 0 0 1.66,-0.736 2.12,2.12 0 0 0 0.492,-1.743 c -1.526,-6.95 -6.225,-11.132 -13.594,-12.44 v -7.33 c 0,-0.606 -0.241,-1.186 -0.67,-1.614 a 2.295,2.295 0 0 0 -1.619,-0.668 h -4.577 c -0.607,0 -1.189,0.24 -1.618,0.668 a 2.278,2.278 0 0 0 -0.67,1.613 v 7.072 c -9.154,1.278 -14.936,7.3 -14.936,15.026 0,9.992 6.102,13.87 18.857,15.589 8.681,1.414 11.152,3.285 11.152,8.197 0,4.912 -4.195,8.212 -10.115,8.212 -7.979,0 -10.679,-3.482 -11.579,-8 a 2.314,2.314 0 0 0 -2.243,-1.855 h -5.218 a 2.14,2.14 0 0 0 -2.072,1.56 c -0.083,0.3 -0.1,0.613 -0.049,0.92 1.328,7.603 6.225,13.17 16.203,14.508 v 7.209 c 0,0.605 0.241,1.185 0.67,1.613 a 2.29,2.29 0 0 0 1.618,0.668 h 4.577 c 0.607,0 1.189,-0.24 1.619,-0.668 0.429,-0.428 0.67,-1.008 0.67,-1.613 v -7.209 c 9.459,-1.49 15.485,-8 15.485,-16.166 z"
       inkscape:connector-curvature="0"
       style="fill:#ffffff" />
    <path
       id="path1593"
       d="m 438.067,124.616 a 45.757,45.757 0 0 1 -21.807,-16.708 45.523,45.523 0 0 1 -8.264,-26.15 45.524,45.524 0 0 1 8.264,-26.15 45.754,45.754 0 0 1 21.807,-16.706 3.294,3.294 0 0 0 1.968,-2.875 V 31.77 a 2.153,2.153 0 0 0 -0.896,-1.965 2.169,2.169 0 0 0 -2.155,-0.21 54.919,54.919 0 0 0 -27.665,19.859 54.634,54.634 0 0 0 -10.58,32.306 54.633,54.633 0 0 0 10.58,32.305 54.92,54.92 0 0 0 27.665,19.859 2.166,2.166 0 0 0 3.051,-2.175 v -4.258 a 3.293,3.293 0 0 0 -1.968,-2.874 z m 32.481,-95.022 a 2.173,2.173 0 0 0 -2.155,0.21 2.16,2.16 0 0 0 -0.897,1.965 v 4.258 a 3.286,3.286 0 0 0 1.969,2.874 45.754,45.754 0 0 1 21.807,16.708 45.53,45.53 0 0 1 8.263,26.15 45.53,45.53 0 0 1 -8.263,26.149 45.757,45.757 0 0 1 -21.807,16.708 3.036,3.036 0 0 0 -1.969,2.874 v 4.258 a 2.152,2.152 0 0 0 0.897,1.965 2.165,2.165 0 0 0 2.155,0.21 54.92,54.92 0 0 0 27.665,-19.859 54.633,54.633 0 0 0 10.58,-32.305 54.634,54.634 0 0 0 -10.58,-32.306 54.919,54.919 0 0 0 -27.665,-19.859 z"
       inkscape:connector-curvature="0"
       style="fill:#ffffff" />
  </g>
  <defs
     id="defs1635">
    <linearGradient
       id="usdc-hero_svg__paint0_linear"
       x1="310.57401"
       y1="107.767"
       x2="231.524"
       y2="107.767"
       gradientUnits="userSpaceOnUse">
      <stop
         stop-color="#C2D3E7"
         id="stop1595" />
      <stop
         offset="1"
         stop-color="#C2D3E7"
         stop-opacity="0"
         id="stop1597" />
    </linearGradient>
    <linearGradient
       id="usdc-hero_svg__paint1_linear"
       x1="447.34799"
       y1="83.433998"
       x2="374.047"
       y2="83.433998"
       gradientUnits="userSpaceOnUse">
      <stop
         stop-color="#C2D3E7"
         id="stop1600" />
      <stop
         offset="1"
         stop-color="#C2D3E7"
         stop-opacity="0"
         id="stop1602" />
    </linearGradient>
    <filter
       id="usdc-hero_svg__filter0_d"
       x="0"
       y="13.905"
       width="247.524"
       height="146.714"
       filterUnits="userSpaceOnUse"
       style="color-interpolation-filters:sRGB">
      <feFlood
         flood-opacity="0"
         result="BackgroundImageFix"
         id="feFlood1605" />
      <feColorMatrix
         in="SourceAlpha"
         values="0 0 0 0 0 0 0 0 0 0 0 0 0 0 0 0 0 0 127 0"
         id="feColorMatrix1607" />
      <feOffset
         dy="8"
         id="feOffset1609" />
      <feGaussianBlur
         stdDeviation="8"
         id="feGaussianBlur1611" />
      <feColorMatrix
         values="0 0 0 0 0.0666667 0 0 0 0 0.2 0 0 0 0 0.333333 0 0 0 0.16 0"
         id="feColorMatrix1613" />
      <feBlend
         in2="BackgroundImageFix"
         result="effect1_dropShadow"
         id="feBlend1615"
         mode="normal" />
      <feBlend
         in="SourceGraphic"
         in2="effect1_dropShadow"
         result="shape"
         id="feBlend1617"
         mode="normal" />
    </filter>
    <filter
       id="usdc-hero_svg__filter1_d"
       x="364.534"
       y="0"
       width="178.464"
       height="178"
       filterUnits="userSpaceOnUse"
       style="color-interpolation-filters:sRGB">
      <feFlood
         flood-opacity="0"
         result="BackgroundImageFix"
         id="feFlood1620" />
      <feColorMatrix
         in="SourceAlpha"
         values="0 0 0 0 0 0 0 0 0 0 0 0 0 0 0 0 0 0 127 0"
         id="feColorMatrix1622" />
      <feOffset
         dy="8"
         id="feOffset1624" />
      <feGaussianBlur
         stdDeviation="8"
         id="feGaussianBlur1626" />
      <feColorMatrix
         values="0 0 0 0 0.0666667 0 0 0 0 0.2 0 0 0 0 0.333333 0 0 0 0.16 0"
         id="feColorMatrix1628" />
      <feBlend
         in2="BackgroundImageFix"
         result="effect1_dropShadow"
         id="feBlend1630"
         mode="normal" />
      <feBlend
         in="SourceGraphic"
         in2="effect1_dropShadow"
         result="shape"
         id="feBlend1632"
         mode="normal" />
    </filter>
  </defs>
</svg>
