<?xml version="1.0" encoding="UTF-8" standalone="no"?>
<svg
   xmlns:dc="http://purl.org/dc/elements/1.1/"
   xmlns:cc="http://creativecommons.org/ns#"
   xmlns:rdf="http://www.w3.org/1999/02/22-rdf-syntax-ns#"
   xmlns:svg="http://www.w3.org/2000/svg"
   xmlns="http://www.w3.org/2000/svg"
   xmlns:sodipodi="http://sodipodi.sourceforge.net/DTD/sodipodi-0.dtd"
   xmlns:inkscape="http://www.inkscape.org/namespaces/inkscape"
   viewBox="0 0 100 100"
   version="1.1"
   id="svg8"
   sodipodi:docname="usdt.svg"
   inkscape:version="0.92.5 (2060ec1f9f, 2020-04-08)"
   width="100"
   height="100">
  <metadata
     id="metadata14">
    <rdf:RDF>
      <cc:Work
         rdf:about="">
        <dc:format>image/svg+xml</dc:format>
        <dc:type
           rdf:resource="http://purl.org/dc/dcmitype/StillImage" />
        <dc:title></dc:title>
      </cc:Work>
    </rdf:RDF>
  </metadata>
  <defs
     id="defs12" />
  <sodipodi:namedview
     pagecolor="#ffffff"
     bordercolor="#666666"
     borderopacity="1"
     objecttolerance="10"
     gridtolerance="10"
     guidetolerance="10"
     inkscape:pageopacity="0"
     inkscape:pageshadow="2"
     inkscape:window-width="1920"
     inkscape:window-height="1043"
     id="namedview10"
     showgrid="false"
     inkscape:zoom="5.2149125"
     inkscape:cx="12.854785"
     inkscape:cy="27.553364"
     inkscape:window-x="0"
     inkscape:window-y="0"
     inkscape:window-maximized="1"
     inkscape:current-layer="svg8"
     fit-margin-top="0"
     fit-margin-left="0"
     fit-margin-right="0"
     fit-margin-bottom="0" />
  <g
     id="g6"
     transform="scale(3.125)"
     style="fill:none;fill-rule:evenodd">
    <circle
       cx="16"
       cy="16"
       r="16"
       id="circle2"
       style="fill:#26a17b" />
    <path
       d="m 17.922,17.383 v -0.002 c -0.11,0.008 -0.677,0.042 -1.942,0.042 -1.01,0 -1.721,-0.03 -1.971,-0.042 v 0.003 c -3.888,-0.171 -6.79,-0.848 -6.79,-1.658 0,-0.809 2.902,-1.486 6.79,-1.66 v 2.644 c 0.254,0.018 0.982,0.061 1.988,0.061 1.207,0 1.812,-0.05 1.925,-0.06 v -2.643 c 3.88,0.173 6.775,0.85 6.775,1.658 0,0.81 -2.895,1.485 -6.775,1.657 m 0,-3.59 v -2.366 h 5.414 V 7.819 H 8.595 v 3.608 h 5.414 v 2.365 C 9.609,13.994 6.3,14.866 6.3,15.91 c 0,1.044 3.309,1.915 7.709,2.118 v 7.582 h 3.913 v -7.584 c 4.393,-0.202 7.694,-1.073 7.694,-2.116 0,-1.043 -3.301,-1.914 -7.694,-2.117"
       id="path4"
       inkscape:connector-curvature="0"
       style="fill:#ffffff" />
  </g>
</svg>
